<svg width="256" height="256" viewBox="0 0 256 256" fill="none" xmlns="http://www.w3.org/2000/svg">
    <g filter="url(#filter0_d_5_344)">
        <circle cx="128" cy="124" r="100" fill="#D9D9D9" fill-opacity="0.5" shape-rendering="crispEdges"/>
        <circle cx="128" cy="124" r="103.5" stroke="url(#paint0_linear_5_344)" stroke-width="7" stroke-dasharray="20 20" shape-rendering="crispEdges"/>
    </g>
    <g clip-path="url(#clip0_5_344)">
        <path d="M72.6256 98.2098C74.7648 94.5507 110.763 79.8488 113.279 81.5114C115.795 83.1739 130.267 121.017 128.636 124.686C127.005 128.355 95.8208 143.911 91.9528 142.718C88.0849 141.525 70.4866 101.869 72.6256 98.2098Z" fill="#14080E"/>
        <path d="M92.4704 143.034C92.2356 143.034 92.0369 143.011 91.8776 142.962C90.3351 142.486 87.252 136.958 84.9373 132.404C81.9847 126.595 78.7439 119.332 76.2682 112.976C73.9751 107.09 71.4435 99.7268 72.4055 98.0815C73.6706 95.9174 85.0806 90.8743 88.5474 89.3802C97.134 85.6797 105.833 82.5109 110.193 81.4951C112.528 80.9512 113.153 81.1229 113.419 81.299C114.821 82.2251 119.175 92.5441 122.752 102.259C124.466 106.916 129.975 122.303 128.869 124.79C127.986 126.776 119.382 131.727 111.246 135.754C104.229 139.226 95.4538 143.034 92.4704 143.034ZM112.611 81.6343C112.203 81.6343 111.504 81.713 110.309 81.9915C105.975 83.0011 97.3108 86.1585 88.7491 89.8482C79.7284 93.7359 73.6345 96.9892 72.8456 98.3387C72.1947 99.4521 73.6517 104.855 76.7432 112.791C79.2131 119.133 82.4463 126.378 85.3917 132.173C88.5077 138.303 90.9884 142.154 92.0278 142.475C92.1483 142.512 92.3029 142.53 92.4893 142.53C94.8217 142.53 102.173 139.675 111.02 135.297C120.395 130.657 127.706 126.151 128.403 124.583C129.076 123.069 126.67 114.376 122.273 102.435C118.337 91.7418 114.239 82.4512 113.138 81.7242C113.08 81.6852 112.94 81.6343 112.611 81.6343Z" fill="#14080E"/>
        <path d="M131.828 80.6327C135.752 76.5735 172.299 91.9505 173.573 94.9866C175.117 98.6636 170.066 133.086 164.98 136.638C161.385 139.148 124.204 127.502 122.898 123.28C121.592 119.058 128.611 83.9608 131.828 80.6328V80.6327Z" fill="#14080E"/>
        <path d="M163.058 137.244C161.347 137.244 158.733 136.854 155.239 136.075C150.43 135.002 144.437 133.278 138.797 131.342C135.209 130.111 123.44 125.897 122.654 123.355C121.945 121.064 123.531 110.763 125.417 101.57C127.18 92.9782 129.868 82.2931 131.645 80.4555C132.5 79.5713 134.622 79.4616 138.133 80.1203C149.467 82.2461 172.708 92.268 173.808 94.8877C174.675 96.9506 173.576 107.193 172.014 115.904C171.02 121.449 168.357 134.59 165.126 136.847C164.746 137.112 164.055 137.244 163.058 137.244V137.244ZM134.38 80.2093C132.973 80.2093 132.313 80.4977 132.011 80.8099C130.633 82.2353 128.184 90.6194 125.916 101.672C123.701 112.471 122.56 121.325 123.141 123.205C123.609 124.718 129.82 127.723 138.963 130.86C149.323 134.415 159.063 136.739 163.101 136.74C163.94 136.74 164.533 136.639 164.834 136.429C166.968 134.939 169.464 127.233 171.512 115.814C173.25 106.125 174.069 96.8259 173.338 95.0852C172.96 94.1842 168.154 91.4036 159.701 87.8319C151.312 84.2874 143.214 81.592 138.039 80.6214C136.456 80.3245 135.269 80.2093 134.38 80.2093Z" fill="#14080E"/>
        <path d="M140.748 128.272C144.049 127.108 177.023 135.18 177.909 138.646C178.795 142.113 175.045 174.249 172.158 175.725C169.272 177.2 129.141 171.589 128.189 169.45C127.237 167.312 137.448 129.436 140.748 128.272Z" fill="#14080E"/>
        <path d="M169.795 176.22C166.028 176.22 158.884 175.464 152.373 174.6C143.549 173.43 133.007 171.67 129.344 170.375C128.275 169.998 128.043 169.748 127.956 169.553C127.477 168.477 129.373 160.38 131.143 153.773C133.033 146.717 135.863 137.293 138.139 132.006C139.543 128.746 140.252 128.176 140.663 128.031C142.361 127.431 150.418 129.035 156.802 130.59C163.592 132.244 172.234 134.751 176.121 136.828C177.357 137.488 178.023 138.062 178.156 138.582C178.647 140.504 177.801 149.947 176.701 157.966C176.055 162.672 175.345 166.782 174.648 169.852C173.392 175.38 172.551 175.81 172.274 175.951C171.909 176.138 171.034 176.22 169.795 176.22L169.795 176.22ZM141.775 128.41C141.346 128.41 141.028 128.443 140.833 128.512C140.554 128.61 139.893 129.221 138.608 132.208C136.342 137.47 133.521 146.866 131.635 153.905C129.147 163.192 128.136 168.703 128.422 169.346C128.433 169.369 128.564 169.58 129.73 169.969C133.608 171.263 144.076 172.993 152.73 174.133C163.183 175.511 170.944 176.059 172.042 175.497C173.178 174.917 174.808 168.009 176.196 157.897C177.423 148.955 178.081 140.348 177.662 138.709C177.609 138.501 177.307 138.039 175.881 137.277C172.035 135.223 163.441 132.732 156.681 131.085C149.857 129.423 144.139 128.41 141.775 128.41L141.775 128.41ZM71.6411 147.744C73.4546 144.707 108.485 129.179 110.754 130.144C113.022 131.108 123.292 166.231 121.542 169.312C119.793 172.393 86.8693 184.85 84.1875 183.835C81.5058 182.82 69.8275 150.782 71.641 147.744L71.6411 147.744Z" fill="#14080E"/>
        <path d="M84.6264 184.144C84.4019 184.144 84.2239 184.121 84.0975 184.073C83.8242 183.97 82.9925 183.655 80.4108 177.859C78.9106 174.49 77.1501 169.977 75.5807 165.475C74.2988 161.798 70.2105 149.643 71.4223 147.614C72.4379 145.913 82.5619 140.947 90.9229 137.211C92.7746 136.384 109.066 129.15 110.854 129.909C111.584 130.22 112.884 133.125 114.718 138.546C116.604 144.122 118.664 151.262 120.093 157.181C121.267 162.047 122.511 168.124 121.764 169.438C120.787 171.16 111.21 175.313 103.306 178.348C97.4437 180.598 87.4324 184.143 84.6263 184.144H84.6264ZM110.458 130.352C109.977 130.352 108.507 130.613 104.031 132.298C100.487 133.633 95.9056 135.543 91.131 137.676C80.5461 142.406 72.6216 146.6 71.8601 147.875C71.152 149.061 72.8407 156.067 76.0621 165.307C79.4236 174.95 83.1093 183.154 84.2779 183.597C85.4068 184.023 93.5087 181.563 103.123 177.872C113.111 174.038 120.594 170.466 121.321 169.187C122.391 167.303 118.249 150.574 114.235 138.709C111.674 131.14 110.803 130.442 110.654 130.378C110.623 130.365 110.565 130.352 110.458 130.352V130.352Z" fill="#14080E"/>
    </g>
    <g clip-path="url(#clip1_5_344)">
        <path d="M73.8744 90.7671C76.0129 87.108 112.002 72.4055 114.518 74.068C117.033 75.7306 131.502 113.576 129.871 117.244C128.241 120.913 97.0638 136.47 93.1967 135.277C89.3298 134.084 71.7357 94.4263 73.8744 90.7671Z" fill="#090C9B"/>
        <path d="M93.7144 135.593C93.4798 135.593 93.2812 135.57 93.1219 135.52C91.5797 135.045 88.4974 129.516 86.1832 124.962C83.2313 119.153 79.9913 111.89 77.5162 105.534C75.2236 99.647 72.6928 92.2841 73.6544 90.6387C74.9192 88.4745 86.3264 83.4312 89.7924 81.9371C98.3769 78.2364 107.074 75.0676 111.433 74.0517C113.767 73.508 114.392 73.6794 114.659 73.8556C116.06 74.7817 120.413 85.101 123.989 94.8159C125.703 99.473 131.21 114.861 130.104 117.348C129.222 119.334 120.62 124.286 112.486 128.312C105.47 131.785 96.6971 135.593 93.7144 135.593V135.593ZM113.85 74.191C113.442 74.191 112.744 74.2697 111.549 74.5482C107.216 75.5578 98.5537 78.7153 89.9941 82.4052C80.9755 86.2929 74.8831 89.5464 74.0945 90.896C73.4437 92.0094 74.9004 97.4125 77.991 105.349C80.4604 111.691 83.6927 118.936 86.6374 124.731C89.7527 130.862 92.2328 134.713 93.2719 135.033C93.3923 135.071 93.547 135.089 93.7333 135.089C96.0651 135.089 103.415 132.234 112.26 127.855C121.633 123.216 128.941 118.71 129.639 117.141C130.311 115.628 127.906 106.934 123.51 94.9921C119.574 84.299 115.477 75.0079 114.377 74.2809C114.319 74.2419 114.179 74.1909 113.85 74.1909V74.191Z" fill="#090C9B"/>
        <path d="M78.5058 95.032C80.154 92.8232 105.184 81.2262 116.898 78.1212C115.823 75.8607 114.974 74.3694 114.518 74.068C112.002 72.4054 76.013 87.1079 73.8743 90.7671C73.2437 91.8461 74.3294 96.0561 76.2726 101.486C76.631 99.3859 77.3029 96.6442 78.5058 95.032Z" fill="#1789FC"/>
        <path d="M76.2726 101.742C76.2201 101.742 76.1689 101.725 76.1259 101.695C76.083 101.665 76.0505 101.622 76.0327 101.573C73.8231 95.3979 73.023 91.7193 73.6544 90.6388C74.9194 88.4746 86.3267 83.4312 89.7927 81.9371C98.3773 78.2364 107.074 75.0674 111.433 74.0517C113.767 73.5078 114.392 73.6795 114.659 73.8557C114.837 73.9733 115.378 74.3313 117.128 78.0121C117.144 78.0459 117.152 78.0829 117.153 78.1203C117.153 78.1578 117.145 78.1948 117.129 78.2288C117.113 78.2627 117.09 78.2928 117.062 78.3169C117.033 78.3409 116.999 78.3583 116.963 78.3679C111.769 79.7448 103.196 83.0261 94.0318 87.1455C85.9035 90.7992 79.4598 94.1802 78.7102 95.1848C77.5276 96.7696 76.8686 99.51 76.524 101.53C76.5139 101.589 76.4831 101.643 76.4371 101.682C76.3911 101.721 76.3328 101.742 76.2726 101.742ZM113.85 74.191C113.442 74.191 112.744 74.2697 111.549 74.5482C107.216 75.5578 98.5542 78.7153 89.9945 82.4052C80.9757 86.2929 74.8832 89.5465 74.0945 90.8961C73.8538 91.3078 73.5996 93.0656 76.1959 100.505C76.5842 98.5788 77.2378 96.3058 78.3016 94.8799C79.2499 93.609 86.7804 89.8462 93.8229 86.6806C102.839 82.628 111.29 79.3825 116.536 77.9549C115.162 75.097 114.595 74.4248 114.377 74.281C114.319 74.242 114.179 74.1909 113.85 74.1909V74.191Z" fill="#1789FC"/>
    </g>
    <g clip-path="url(#clip2_5_344)">
        <path d="M136.23 75.9411C140.153 71.8829 176.688 87.2559 177.963 90.2912C179.506 93.9672 174.457 128.381 169.372 131.932C165.778 134.441 128.608 122.798 127.303 118.577C125.997 114.356 133.014 79.2682 136.23 75.9411Z" fill="#DE541E"/>
        <path d="M167.451 132.54C165.74 132.54 163.127 132.149 159.635 131.371C154.827 130.298 148.837 128.574 143.198 126.64C139.611 125.409 127.845 121.195 127.059 118.654C126.351 116.363 127.936 106.065 129.821 96.8744C131.583 88.2852 134.271 77.6029 136.047 75.7657C136.902 74.8818 139.024 74.7723 142.534 75.4306C153.864 77.5559 177.098 87.5752 178.197 90.1942C179.063 92.2565 177.965 102.497 176.404 111.205C175.409 116.748 172.748 129.886 169.518 132.142C169.138 132.407 168.447 132.539 167.451 132.539V132.54ZM138.781 75.5194C137.375 75.5194 136.715 75.8077 136.414 76.1198C135.036 77.5449 132.587 85.9266 130.32 96.9768C128.106 107.772 126.965 116.625 127.546 118.504C128.014 120.017 134.223 123.021 143.364 126.157C153.721 129.711 163.456 132.034 167.494 132.035C168.333 132.035 168.925 131.935 169.226 131.724C171.359 130.235 173.855 122.53 175.902 111.115C177.639 101.428 178.458 92.1315 177.728 90.3912C177.349 89.4906 172.545 86.7105 164.094 83.1399C155.708 79.5966 147.613 76.9018 142.44 75.9314C140.857 75.6345 139.67 75.5194 138.781 75.5194Z" fill="#DE541E"/>
        <path d="M147.214 92.061C148.101 92.1244 148.376 93.2778 148.322 94.0338C148.268 94.7896 139.719 100.288 139.336 101.139C138.953 101.989 142.03 108.011 142.038 109.115C142.046 110.219 140.921 111.687 139.993 111.621C139.064 111.554 135.315 101.15 135.721 100.134C136.128 99.1177 146.327 91.9976 147.214 92.061Z" fill="#090C9B"/>
        <path d="M140.052 111.878C140.026 111.878 140 111.877 139.974 111.875C139.757 111.86 139.545 111.662 139.265 111.215C138.043 109.265 135.045 101.14 135.485 100.04C135.798 99.2549 140.252 96.1073 141.141 95.4843C142.391 94.609 146.521 91.7591 147.232 91.8072C147.721 91.8421 148.119 92.1537 148.354 92.6849C148.527 93.0747 148.61 93.5859 148.576 94.0521C148.544 94.4986 147.4 95.3886 143.739 98.0178C141.954 99.3001 139.732 100.896 139.568 101.244C139.402 101.628 140.428 104.097 141.041 105.573C141.711 107.186 142.289 108.578 142.293 109.113C142.298 109.838 141.876 110.723 141.243 111.316C140.855 111.681 140.435 111.878 140.052 111.878L140.052 111.878ZM140.029 111.368C140.285 111.379 140.592 111.229 140.895 110.945C141.422 110.451 141.787 109.699 141.783 109.117C141.78 108.682 141.165 107.201 140.57 105.768C139.496 103.182 138.861 101.573 139.104 101.035C139.292 100.616 140.635 99.6203 143.442 97.604C145.315 96.2588 147.874 94.4201 148.069 93.9973C148.093 93.6153 148.026 93.2031 147.888 92.8911C147.729 92.5324 147.498 92.339 147.201 92.3158C146.839 92.3433 144.56 93.708 141.362 95.9519C138.027 98.2913 136.089 99.9015 135.958 100.229C135.828 100.565 136.383 102.81 137.536 105.982C138.723 109.25 139.701 111.184 140.029 111.368V111.368ZM159.715 92.3138C160.739 92.0008 162.654 93.7435 162.928 94.836C163.201 95.9285 147.562 116.743 146.659 117.309C145.757 117.874 143.267 117.102 142.846 116.055C142.425 115.008 158.692 92.6269 159.715 92.3138H159.715Z" fill="#090C9B"/>
        <path d="M145.82 117.754C145.369 117.754 144.884 117.657 144.478 117.525C143.53 117.217 142.832 116.703 142.61 116.151C142.555 116.015 142.567 115.835 142.795 115.357C143.757 113.345 148.074 107.147 151.478 102.45C153.432 99.7554 155.307 97.2421 156.758 95.3732C159.223 92.1988 159.505 92.1125 159.641 92.0711C160.026 91.9535 160.518 92.0545 161.065 92.3633C162.032 92.9099 162.979 93.9918 163.175 94.7751C163.221 94.9593 163.298 95.2673 160.838 98.8731C159.144 101.358 156.967 104.35 155.44 106.422C152.298 110.684 147.378 117.16 146.795 117.525C146.533 117.69 146.187 117.755 145.82 117.755L145.82 117.754ZM143.094 115.988C143.272 116.381 143.871 116.792 144.636 117.04C145.413 117.293 146.172 117.314 146.524 117.094C146.914 116.826 150.588 112.139 154.919 106.269C160.553 98.6318 162.614 95.3679 162.675 94.8787C162.499 94.2245 161.653 93.2808 160.814 92.8067C160.404 92.575 160.045 92.4856 159.8 92.555C159.322 92.8289 155.841 97.2501 151.017 103.959C145.648 111.427 143.159 115.41 143.094 115.988V115.988ZM166.327 98.4016C167.109 98.8058 170.209 109.578 170.153 110.36C170.097 111.141 161.564 119.004 160.804 118.95C160.045 118.895 158.429 117.193 158.477 116.531C158.524 115.87 165.262 110.183 165.657 109.363C166.052 108.543 163.688 101.985 163.588 100.988C163.488 99.9903 165.546 97.9975 166.327 98.4016Z" fill="#090C9B"/>
        <path d="M160.828 119.204C160.813 119.204 160.799 119.203 160.786 119.202C159.889 119.138 158.164 117.328 158.222 116.512C158.251 116.118 159.182 115.2 162.16 112.452C163.616 111.109 165.266 109.586 165.428 109.251C165.636 108.811 164.636 105.533 164.098 103.773C163.693 102.445 163.373 101.396 163.335 101.012C163.252 100.186 164.279 99.0188 165.052 98.4936C165.62 98.1073 166.102 97.9969 166.444 98.1738C166.599 98.2541 167.072 98.4984 168.798 104.163C169.488 106.43 170.444 109.856 170.407 110.376C170.398 110.506 170.381 110.747 168.959 112.215C168.16 113.039 167.08 114.083 165.915 115.154C164.747 116.229 163.619 117.217 162.739 117.936C161.303 119.11 160.979 119.204 160.828 119.204L160.828 119.204ZM158.73 116.562C158.724 117.06 160.144 118.623 160.807 118.693C161.709 118.479 169.611 111.212 169.899 110.33C169.905 109.975 169.246 107.393 168.339 104.407C167.212 100.696 166.456 98.8321 166.204 98.6233C166.082 98.567 165.786 98.6106 165.338 98.915C164.519 99.4713 163.792 100.465 163.842 100.961C163.875 101.295 164.221 102.426 164.586 103.624C165.551 106.785 166.162 108.9 165.887 109.472C165.693 109.874 164.476 111.009 162.506 112.827C160.976 114.239 158.885 116.168 158.73 116.562L158.73 116.562Z" fill="#090C9B"/>
        <path d="M178.236 93.7144C178.274 92.0389 178.19 90.832 177.962 90.2911C176.688 87.2559 140.153 71.8829 136.23 75.9411C135.4 76.8002 134.316 79.7769 133.188 83.7929C134.516 83.2148 136.245 82.5965 137.897 82.407C141.351 82.0105 169.669 89.2951 178.236 93.7145L178.236 93.7144Z" fill="#F06543"/>
        <path d="M178.236 93.971C178.196 93.971 178.156 93.9616 178.12 93.9427C174.357 92.0015 166.119 89.2201 156.083 86.5025C147.179 84.0915 139.544 82.4775 137.926 82.6618C136.597 82.8143 134.994 83.2869 133.289 84.0282C133.245 84.0475 133.196 84.0538 133.149 84.0465C133.101 84.0391 133.056 84.0184 133.02 83.9867C132.984 83.955 132.957 83.9136 132.943 83.8674C132.93 83.8212 132.929 83.772 132.942 83.7256C134.19 79.2839 135.235 76.6059 136.047 75.7658C136.902 74.8818 139.024 74.7722 142.534 75.4308C153.864 77.5561 177.098 87.5755 178.198 90.1943C178.432 90.7532 178.531 91.9401 178.491 93.7219C178.49 93.7884 178.462 93.8518 178.415 93.8983C178.367 93.9449 178.303 93.971 178.237 93.971H178.236ZM138.212 82.139C142.895 82.139 169.241 88.9833 177.989 93.3057C178.008 91.4707 177.861 90.7078 177.728 90.3915C177.35 89.4908 172.545 86.7109 164.095 83.1402C155.708 79.5969 147.613 76.902 142.44 75.9316C138.351 75.1646 136.906 75.6107 136.414 76.1199C135.913 76.6382 135.018 78.3211 133.578 83.353C135.159 82.7036 136.6 82.3012 137.868 82.1557C137.965 82.1446 138.08 82.139 138.212 82.139Z" fill="#F06543"/>
    </g>
    <g clip-path="url(#clip3_5_344)">
        <path d="M145.875 124.645C149.173 123.48 182.124 131.557 183.009 135.025C183.894 138.494 180.147 170.649 177.263 172.125C174.378 173.601 134.276 167.987 133.325 165.847C132.374 163.707 142.578 125.81 145.875 124.645Z" fill="#090C9B"/>
        <path d="M174.901 172.62C171.137 172.62 163.998 171.864 157.492 171C148.674 169.829 138.139 168.068 134.48 166.773C133.411 166.395 133.179 166.145 133.092 165.95C132.613 164.873 134.508 156.771 136.277 150.161C138.165 143.101 140.994 133.672 143.268 128.382C144.671 125.12 145.379 124.549 145.791 124.404C147.487 123.805 155.538 125.409 161.917 126.964C168.703 128.619 177.338 131.127 181.223 133.206C182.458 133.866 183.123 134.44 183.256 134.961C183.746 136.884 182.902 146.332 181.802 154.356C181.156 159.065 180.447 163.177 179.75 166.249C178.496 171.78 177.655 172.21 177.379 172.352C177.013 172.538 176.14 172.62 174.901 172.62ZM145.96 124.885C145.681 124.984 145.021 125.595 143.736 128.583C141.472 133.848 138.653 143.25 136.769 150.293C134.283 159.586 133.272 165.099 133.558 165.743C133.569 165.766 133.7 165.977 134.865 166.366C138.74 167.661 149.201 169.392 157.849 170.533C168.294 171.911 176.049 172.459 177.147 171.898C178.281 171.317 179.91 164.404 181.297 154.287C182.524 145.341 183.181 136.728 182.762 135.088C182.709 134.88 182.408 134.418 180.983 133.655C177.14 131.6 168.552 129.107 161.797 127.46C153.741 125.496 147.229 124.436 145.96 124.885Z" fill="#090C9B"/>
        <path d="M183.096 138.757C183.175 136.921 183.154 135.591 183.009 135.025C182.124 131.557 149.173 123.48 145.875 124.645C144.902 124.989 143.329 128.53 141.617 133.407C143.01 132.131 145.033 130.524 146.839 130.031C149.413 129.328 175.08 134.804 183.096 138.757Z" fill="#1789FC"/>
        <path d="M183.096 139.011C183.057 139.011 183.019 139.002 182.984 138.985C179.479 137.257 171.96 134.98 162.87 132.896C154.951 131.079 148.088 129.953 146.906 130.276C145.145 130.757 143.151 132.346 141.789 133.594C141.747 133.632 141.694 133.656 141.637 133.66C141.581 133.665 141.524 133.65 141.477 133.619C141.429 133.587 141.394 133.541 141.376 133.487C141.357 133.433 141.358 133.375 141.377 133.321C144.324 124.922 145.428 124.532 145.791 124.404C147.487 123.805 155.538 125.409 161.917 126.964C168.703 128.619 177.338 131.128 181.223 133.206C182.458 133.866 183.123 134.44 183.256 134.961C183.402 135.534 183.434 136.815 183.351 138.767C183.348 138.833 183.32 138.895 183.273 138.94C183.225 138.986 183.162 139.011 183.096 139.011V139.011ZM147.54 129.714C150.1 129.714 157.012 131.029 162.984 132.399C171.818 134.425 179.186 136.637 182.857 138.358C182.933 136.273 182.849 135.428 182.762 135.088C182.709 134.88 182.408 134.418 180.983 133.655C177.14 131.6 168.552 129.107 161.797 127.46C153.741 125.496 147.229 124.437 145.96 124.885C145.605 125.011 144.543 126.024 142.188 132.561C143.523 131.423 145.219 130.208 146.772 129.784C146.946 129.736 147.206 129.714 147.54 129.714L147.54 129.714Z" fill="#1789FC"/>
    </g>
    <g clip-path="url(#clip4_5_344)">
        <path d="M107.872 108.071C107.872 108.071 107.517 102.154 108.216 100.097C108.849 98.2351 112.236 90.8937 112.148 88.0966C112.06 85.2993 108.273 76.4429 106.97 74.6638C105.668 72.8846 95.5799 69.9715 93.011 70.544C90.4422 71.1166 83.9497 77.659 82.3858 79.8845C80.8219 82.11 82.5114 94.013 83.627 96.395C84.7426 98.777 93.8781 103.636 96.229 105.36C97.6702 106.418 101.483 110.756 101.483 110.756L107.872 108.071V108.071Z" fill="#FFD04D"/>
        <path d="M101.483 111.011C101.446 111.011 101.411 111.003 101.377 110.988C101.344 110.973 101.315 110.952 101.291 110.924C101.253 110.881 97.4808 106.595 96.0784 105.566C95.3985 105.067 94.1276 104.293 92.6559 103.397C88.8965 101.107 84.2176 98.257 83.3964 96.5032C82.8246 95.2824 82.1161 91.673 81.7483 88.1076C81.4876 85.581 81.1968 81.134 82.1773 79.7387C83.7842 77.452 90.2746 70.8938 92.9555 70.2961C94.4381 69.9658 97.9662 70.7265 100.537 71.4783C103.253 72.2727 106.424 73.4874 107.176 74.5139C108.483 76.2997 112.313 85.2532 112.402 88.0889C112.47 90.2607 110.569 94.9243 109.311 98.0103C108.918 98.9736 108.608 99.7344 108.457 100.18C107.782 102.165 108.122 107.997 108.126 108.056C108.129 108.109 108.116 108.161 108.088 108.206C108.06 108.25 108.019 108.285 107.971 108.306L101.581 110.991C101.55 111.004 101.516 111.011 101.483 111.011V111.011ZM93.8568 70.7233C93.5459 70.7233 93.2793 70.7455 93.0663 70.7931C90.6419 71.3334 84.1607 77.8018 82.5941 80.0313C81.146 82.0919 82.7029 93.822 83.8576 96.2876C84.6138 97.9022 89.4151 100.827 92.921 102.962C94.4026 103.865 95.6822 104.644 96.3797 105.156C97.698 106.123 100.879 109.69 101.553 110.451L107.608 107.906C107.553 106.878 107.329 101.916 107.975 100.016C108.131 99.5564 108.444 98.7895 108.84 97.8184C110.006 94.9573 111.958 90.1688 111.893 88.105C111.806 85.3359 108.048 76.5675 106.765 74.8147C105.66 73.3062 97.2053 70.7233 93.8568 70.7233Z" fill="#FFD04D"/>
        <path d="M99.6661 111.315C99.443 112.492 103.085 118.785 104.243 119.085C105.676 119.458 110.909 117.16 111.575 116.049C112.467 114.562 110.349 107.627 109.393 107.013C108.609 106.509 99.8956 110.105 99.6661 111.315Z" fill="#D3A32D"/>
        <path d="M104.601 119.376C104.44 119.376 104.298 119.362 104.179 119.331C103.288 119.099 101.687 116.46 101.217 115.656C100.885 115.088 99.2379 112.206 99.416 111.267C99.5863 110.368 102.795 108.9 104.166 108.31C104.938 107.978 108.826 106.344 109.531 106.798C110.132 107.184 110.933 109.317 111.423 111.136C111.739 112.311 112.408 115.154 111.793 116.179C111.146 117.259 106.533 119.376 104.601 119.376ZM99.9163 111.361C99.8428 111.749 100.428 113.296 101.657 115.399C102.901 117.528 103.931 118.74 104.307 118.838C104.883 118.988 106.406 118.606 108.097 117.888C109.738 117.191 111.079 116.381 111.357 115.917C111.703 115.34 111.536 113.515 110.931 111.268C110.335 109.053 109.597 107.445 109.256 107.226C109.121 107.172 108.318 107.26 106.296 108.006C104.711 108.59 102.958 109.372 101.721 110.045C100.036 110.961 99.9237 111.323 99.9164 111.361H99.9163Z" fill="#D3A32D"/>
        <path d="M102.99 110.12C102.941 110.12 102.893 110.105 102.851 110.079C102.81 110.052 102.778 110.014 102.757 109.969C102.704 109.85 98.4245 100.359 94.8053 95.9128C93.6652 96.3441 92.403 96.3743 91.5239 96.2105C90.5111 96.0219 89.8788 95.5894 89.7891 95.0237C89.6979 94.4488 90.1625 93.8794 91.17 93.3315C91.5452 93.1275 91.9739 93.1044 92.4442 93.2632C93.1993 93.518 94.0511 94.2592 94.9364 95.295C95.5928 94.9858 96.158 94.5289 96.5164 93.9107C96.937 93.1851 97.1441 92.1779 97.1941 91.1092C96.2455 90.7725 95.4714 90.2441 94.9639 89.5533C94.4374 88.8367 93.9671 87.6253 94.7164 85.9235C94.9811 85.3223 95.3023 85.004 95.6712 84.9774C96.0182 84.9504 96.3457 85.1815 96.6441 85.6583C97.281 86.6764 97.7412 88.7598 97.7131 90.7445C98.6429 91.0119 99.7356 91.0949 100.901 90.9656C101.039 90.9498 101.176 90.9246 101.31 90.8902C101.205 88.6401 101.43 86.59 102.294 85.3346C102.931 84.4093 103.86 83.9644 105.056 84.0134C106.641 84.0779 106.908 84.9533 106.926 85.4696C106.966 86.6258 105.902 88.1288 104.893 89.1499C103.896 90.1582 102.806 90.9018 101.834 91.2563C101.94 92.9111 102.231 94.8498 102.705 97.0476C103.749 101.883 105.375 106.532 106.213 108.478C106.239 108.54 106.24 108.61 106.215 108.673C106.19 108.736 106.141 108.786 106.079 108.813C106.017 108.839 105.947 108.84 105.884 108.815C105.822 108.79 105.771 108.742 105.745 108.68C104.899 106.715 103.259 102.025 102.208 97.1549C101.822 95.3673 101.471 93.3307 101.34 91.4047C101.209 91.4353 101.081 91.4577 100.957 91.4713C99.7775 91.6024 98.6623 91.5245 97.6943 91.2643C97.6291 92.3632 97.4018 93.3989 96.9571 94.1658C96.5472 94.8727 95.9487 95.3703 95.2777 95.7062C98.9267 100.234 103.005 109.276 103.222 109.761C103.24 109.799 103.247 109.842 103.244 109.884C103.241 109.927 103.227 109.968 103.204 110.003C103.181 110.039 103.149 110.068 103.112 110.088C103.074 110.109 103.033 110.119 102.99 110.119V110.12ZM91.8537 93.6682C91.6948 93.6682 91.549 93.705 91.4135 93.7787C90.6493 94.1942 90.2407 94.6191 90.2921 94.9441C90.3436 95.2692 90.8637 95.5699 91.6171 95.7101C92.4912 95.8726 93.5274 95.8106 94.4511 95.4917C93.6719 94.597 92.9316 93.9649 92.2814 93.7455C92.1287 93.6939 91.9866 93.6681 91.8536 93.6681L91.8537 93.6682ZM104.879 84.5189C103.934 84.5189 103.224 84.8813 102.714 85.6233C102.009 86.6467 101.707 88.3749 101.805 90.7289C103.995 89.8637 106.469 86.987 106.417 85.4875C106.409 85.2623 106.385 84.5772 105.035 84.5223C104.983 84.5201 104.931 84.5189 104.879 84.5189ZM95.7197 85.4847C95.7158 85.4847 95.712 85.4849 95.7081 85.4851C95.5515 85.4964 95.3551 85.737 95.1826 86.1286C94.6672 87.2995 94.7335 88.3796 95.3745 89.2521C95.7949 89.8243 96.4277 90.2719 97.2064 90.5741C97.2057 88.7434 96.7831 86.8407 96.2124 85.9283C96.0377 85.649 95.8546 85.4847 95.7196 85.4847H95.7197Z" fill="#D3A32D"/>
        <path d="M89.7257 75.1185C90.4191 74.964 92.978 76.2153 92.9414 77.1C92.905 77.9846 87.8307 82.4501 87.1567 83.6107C86.8476 84.143 86.9348 87.4195 86.3404 87.8824C85.746 88.3452 84.6211 87.5784 84.4622 86.8662C84.3034 86.154 84.3432 82.5808 84.5776 81.5352C84.8121 80.4896 89.0322 75.2731 89.7257 75.1185Z" fill="white"/>
        <path d="M85.906 88.2779C85.7578 88.2779 85.6002 88.2489 85.4377 88.1906C84.8545 87.9812 84.3284 87.4358 84.2137 86.9217C84.043 86.1564 84.0879 82.5558 84.3291 81.4796C84.507 80.6861 86.4028 78.3029 86.7811 77.8333C87.4654 76.9834 89.1168 74.9935 89.6701 74.8701C90.2935 74.7308 91.7713 75.4005 92.5436 76.0461C92.9901 76.4192 93.2095 76.7774 93.1957 77.1106C93.1725 77.673 91.934 78.9581 89.897 81.0073C88.7924 82.1187 87.6502 83.2678 87.3769 83.7385C87.2793 83.9065 87.2115 84.6653 87.1569 85.2748C87.0237 86.7645 86.9056 87.7648 86.4967 88.0833C86.3307 88.2125 86.1289 88.2779 85.906 88.2779ZM89.7833 75.3666C89.2163 75.5535 85.0568 80.5614 84.826 81.591C84.6055 82.5748 84.5578 86.1256 84.7107 86.811C84.7879 87.1572 85.1914 87.5612 85.6099 87.7116C85.7771 87.7716 86.0124 87.8152 86.1838 87.6817C86.4487 87.4755 86.5745 86.0695 86.6497 85.2295C86.7343 84.2838 86.7893 83.7365 86.9364 83.4831C87.2427 82.9556 88.3053 81.8865 89.5358 80.6486C90.7802 79.3966 92.6607 77.5046 92.6869 77.0894C92.6934 76.932 92.5177 76.688 92.2169 76.4366C91.4332 75.7817 90.1298 75.2923 89.783 75.3666H89.7833Z" fill="white"/>
    </g>
    <g clip-path="url(#clip5_5_344)">
        <path d="M73.8851 142.161C75.6984 139.126 110.726 123.609 112.994 124.572C115.262 125.536 125.531 160.634 123.781 163.713C122.032 166.792 89.1119 179.239 86.4304 178.225C83.749 177.211 72.0718 145.196 73.8851 142.161Z" fill="#DE541E"/>
        <path d="M86.869 178.535C86.6445 178.535 86.4665 178.512 86.3401 178.464C86.0669 178.361 85.2354 178.047 82.6546 172.256C81.1549 168.891 79.3949 164.382 77.8257 159.884C76.5436 156.209 72.4543 144.059 73.6662 142.031C74.6817 140.331 84.8048 135.369 93.165 131.635C95.0166 130.809 111.307 123.581 113.094 124.339C113.824 124.649 115.124 127.553 116.958 132.971C118.845 138.543 120.904 145.678 122.332 151.592C123.507 156.454 124.75 162.526 124.003 163.84C123.026 165.56 113.45 169.711 105.547 172.743C99.6852 174.992 89.675 178.535 86.8691 178.535L86.869 178.535ZM74.1039 142.292C73.3956 143.478 75.0847 150.48 78.3072 159.717C81.6678 169.35 85.3523 177.546 86.5205 177.988C86.6059 178.02 86.7312 178.036 86.8938 178.036C88.8826 178.036 96.4768 175.677 105.364 172.267C115.351 168.436 122.833 164.867 123.56 163.589C124.63 161.706 120.489 144.99 116.475 133.134C113.914 125.569 113.043 124.871 112.894 124.808C112.726 124.736 111.752 124.664 106.271 126.726C102.728 128.06 98.1471 129.969 93.373 132.1C82.7891 136.827 74.8653 141.018 74.1039 142.292Z" fill="#DE541E"/>
        <path d="M105.002 160.367C104.8 160.164 101.604 159.027 101.604 159.027C101.578 158.424 101.507 158.035 101.288 157.457C101.288 157.457 103.691 155.729 103.793 155.367C103.894 155.005 103.08 153.134 102.715 153.067C102.349 153.001 99.475 154.702 99.475 154.702C99.1716 154.418 98.7403 154.136 98.2318 153.875C98.5243 152.613 98.294 150.279 98.1606 150.007C97.8555 149.384 96.1253 149.375 95.9215 149.605C95.7177 149.835 94.6787 153.095 94.6787 153.095C94.2888 153.097 93.9302 153.067 93.4051 153.294C93.4051 153.294 91.4459 151.308 91.1716 151.157C90.8974 151.006 89.1087 151.751 89.0712 152.087C89.0336 152.423 90.4427 154.84 90.4427 154.84C89.9068 155.146 89.6201 155.585 89.3426 156.454C89.3426 156.454 86.1456 156.6 85.8407 156.81C85.5359 157.021 85.5215 158.726 85.6335 158.961C85.7453 159.196 88.7837 159.785 88.7837 159.785C88.795 160.492 88.9563 160.801 89.2134 161.341C89.2134 161.341 87.5237 163.78 87.4222 164.107C87.3209 164.433 88.3091 165.887 88.6962 165.831C89.0834 165.775 91.3287 163.93 91.3287 163.93C91.6948 164.205 92.04 164.438 92.4607 164.628C92.4607 164.628 92.5572 167.844 92.6962 168.09C92.8354 168.335 94.015 169.042 94.33 168.877C94.645 168.712 95.3401 166.395 95.5954 165.274C96.1308 165.257 96.6641 165.174 97.182 165.034C97.182 165.034 99.181 167.701 99.5522 167.795C99.9233 167.89 101.286 167.576 101.272 167.185C101.258 166.795 99.7371 163.645 99.7371 163.645C100.292 163.147 100.628 162.609 100.872 162.153C100.872 162.153 104.428 162.326 104.707 162.179C104.987 162.033 105.204 160.57 105.002 160.367V160.367ZM96.558 161.602C95.072 162.453 93.3666 161.727 92.8318 160.568C92.1068 158.997 92.7402 157.417 94.2105 156.715C95.5439 156.079 97.0825 156.793 97.7767 158.211C98.4049 159.493 97.9293 160.815 96.558 161.602Z" fill="#090C9B"/>
        <path d="M94.2228 169.151C93.6423 169.151 92.6265 168.484 92.4744 168.216C92.3385 167.977 92.2564 166.258 92.2106 164.793C91.8767 164.628 91.5931 164.441 91.3364 164.254C90.5793 164.871 89.1175 166.028 88.7327 166.084C88.5858 166.105 88.3404 166.075 87.908 165.569C87.6784 165.301 87.0516 164.442 87.1787 164.032C87.2771 163.715 88.4444 162.007 88.9197 161.318C88.7139 160.886 88.572 160.564 88.5367 159.997C85.5655 159.413 85.4604 159.191 85.4032 159.071C85.2655 158.782 85.2288 156.924 85.6957 156.602C85.9986 156.393 87.9191 156.268 89.1557 156.208C89.4037 155.488 89.6785 155.062 90.1001 154.758C89.4679 153.663 88.7814 152.385 88.8179 152.06C88.8342 151.914 88.9327 151.706 89.5555 151.384C89.5687 151.377 90.8776 150.705 91.2947 150.935C91.5585 151.08 92.9017 152.424 93.4678 152.996C93.8745 152.848 94.1907 152.841 94.4927 152.841C94.8933 151.59 95.5321 149.662 95.7308 149.437C95.9695 149.168 96.7612 149.195 97.1466 149.248C97.599 149.309 98.1817 149.471 98.3897 149.896C98.5604 150.244 98.7581 152.422 98.52 153.739C98.9132 153.952 99.2432 154.17 99.5052 154.39C100.824 153.614 102.396 152.75 102.76 152.818C102.936 152.85 103.106 153.009 103.31 153.335C103.619 153.828 104.156 155.017 104.038 155.436C103.939 155.789 102.689 156.758 101.594 157.552C101.747 157.993 101.818 158.355 101.85 158.845C103.077 159.284 104.98 159.985 105.182 160.188C105.384 160.391 105.351 160.919 105.288 161.326C105.224 161.742 105.092 162.267 104.825 162.406C104.553 162.549 102.641 162.493 101.019 162.416C100.805 162.799 100.507 163.259 100.048 163.704C100.479 164.602 101.513 166.793 101.527 167.178C101.53 167.285 101.494 167.446 101.3 167.602C100.896 167.927 99.8759 168.142 99.4891 168.043C99.1241 167.95 97.9999 166.545 97.0805 165.325C96.6596 165.428 96.2303 165.494 95.7977 165.521C95.6154 166.25 94.9348 168.849 94.4482 169.104C94.3855 169.137 94.3091 169.151 94.223 169.151L94.2228 169.151ZM92.9229 167.972C93.0733 168.175 93.9614 168.662 94.2074 168.649C94.4506 168.37 95.0653 166.454 95.3467 165.219C95.3592 165.164 95.3896 165.115 95.433 165.079C95.4765 165.043 95.5306 165.023 95.5869 165.021C96.0922 165.004 96.6065 164.927 97.1157 164.79C97.1649 164.776 97.217 164.778 97.2651 164.795C97.3133 164.811 97.3554 164.842 97.3859 164.883C98.2925 166.092 99.3722 167.413 99.6267 167.553C99.9355 167.619 100.875 167.363 101.014 167.176C100.957 166.871 100.213 165.218 99.5073 163.757C99.4833 163.707 99.4761 163.651 99.4868 163.597C99.4975 163.543 99.5255 163.494 99.5665 163.457C100.11 162.969 100.43 162.44 100.647 162.034C100.67 161.991 100.704 161.956 100.746 161.932C100.788 161.908 100.836 161.897 100.884 161.9C102.479 161.977 104.26 162.017 104.582 161.953C104.732 161.754 104.887 160.794 104.809 160.543C104.536 160.381 102.953 159.779 101.519 159.268C101.471 159.251 101.429 159.22 101.399 159.18C101.369 159.139 101.352 159.09 101.349 159.04C101.323 158.441 101.25 158.079 101.05 157.548C101.03 157.495 101.028 157.438 101.044 157.384C101.06 157.331 101.094 157.284 101.139 157.251C102.199 156.489 103.41 155.531 103.548 155.292C103.583 154.971 102.936 153.533 102.664 153.325C102.331 153.39 100.843 154.189 99.6048 154.922C99.5573 154.95 99.5021 154.962 99.4473 154.956C99.3925 154.95 99.3411 154.927 99.3009 154.889C99.025 154.631 98.6149 154.359 98.115 154.102C98.0646 154.076 98.0243 154.034 98.0005 153.983C97.9766 153.931 97.9706 153.873 97.9834 153.818C98.2655 152.601 98.0389 150.373 97.9304 150.117C97.8772 150.009 97.7035 149.903 97.4548 149.83C96.9206 149.674 96.2622 149.717 96.1075 149.785C95.9573 150.047 95.3946 151.688 94.9214 153.173C94.905 153.225 94.8729 153.269 94.8295 153.301C94.7862 153.333 94.7339 153.35 94.6801 153.351C94.6353 153.351 94.5908 153.351 94.5464 153.351C94.2119 153.35 93.923 153.348 93.5061 153.529C93.4589 153.549 93.4066 153.555 93.3562 153.545C93.3057 153.535 93.2594 153.51 93.2234 153.474C92.313 152.551 91.2781 151.541 91.0645 151.392C90.7578 151.369 89.5398 151.891 89.331 152.133C89.4035 152.44 90.0618 153.682 90.6627 154.713C90.6797 154.742 90.6907 154.774 90.6952 154.807C90.6997 154.841 90.6975 154.874 90.6888 154.907C90.6801 154.939 90.665 154.97 90.6444 154.996C90.6238 155.023 90.5982 155.045 90.5689 155.062C90.1046 155.327 89.8472 155.712 89.5852 156.532C89.5694 156.582 89.5387 156.625 89.4974 156.657C89.4561 156.689 89.4061 156.707 89.3541 156.709C87.8998 156.776 86.2659 156.909 85.9902 157.02C85.8333 157.243 85.7835 158.474 85.8535 158.812C86.159 158.962 87.5969 159.297 88.8321 159.536C88.8895 159.547 88.9413 159.578 88.9788 159.623C89.0164 159.667 89.0374 159.724 89.0383 159.782C89.0483 160.406 89.1781 160.677 89.4137 161.17L89.4433 161.232C89.4626 161.273 89.4708 161.317 89.4672 161.362C89.4636 161.407 89.4483 161.45 89.4228 161.487C88.6265 162.636 87.7647 163.938 87.6697 164.172C87.6793 164.47 88.41 165.492 88.6716 165.576C88.931 165.491 90.159 164.562 91.1667 163.734C91.2108 163.698 91.2659 163.678 91.3231 163.676C91.3803 163.675 91.4362 163.693 91.4819 163.728C91.7923 163.961 92.1385 164.204 92.5658 164.398C92.6092 164.417 92.6462 164.449 92.6726 164.488C92.699 164.528 92.7138 164.574 92.7152 164.622C92.7592 166.086 92.8482 167.722 92.9229 167.972ZM95.184 162.229C94.8793 162.229 94.573 162.182 94.2732 162.086C93.5229 161.847 92.8975 161.32 92.6002 160.676C91.8388 159.026 92.4698 157.264 94.1005 156.486C95.5165 155.81 97.2316 156.519 98.0054 158.1C98.6944 159.507 98.1758 160.968 96.6846 161.823C96.2152 162.093 95.7018 162.229 95.184 162.229ZM95.2255 156.741C94.9183 156.741 94.6112 156.807 94.3202 156.946C92.9303 157.609 92.4134 159.055 93.0631 160.462C93.3016 160.979 93.8118 161.405 94.428 161.601C95.0993 161.815 95.8106 161.737 96.4309 161.382C97.6899 160.66 98.1178 159.488 97.5475 158.324C97.061 157.33 96.1431 156.741 95.2254 156.741L95.2255 156.741ZM107.803 150.03C107.886 149.829 107.75 147.256 107.75 147.256C108.166 147.061 108.419 146.898 108.761 146.576C108.761 146.576 110.677 147.755 110.961 147.72C111.245 147.686 112.321 146.568 112.261 146.292C112.2 146.017 110.166 144.499 110.166 144.499C110.276 144.203 110.348 143.818 110.383 143.385C111.355 143.221 112.926 142.378 113.079 142.205C113.427 141.809 112.928 140.593 112.706 140.518C112.485 140.442 109.892 140.666 109.892 140.666C109.776 140.394 109.693 140.133 109.38 139.832C109.38 139.832 110.202 137.877 110.228 137.641C110.254 137.405 109.208 136.369 108.961 136.44C108.714 136.512 107.428 138.207 107.428 138.207C107.057 137.92 106.665 137.848 105.973 137.907C105.973 137.907 104.936 135.709 104.699 135.556C104.462 135.404 103.26 135.893 103.128 136.04C102.996 136.187 103.47 138.489 103.47 138.489C102.977 138.704 102.807 138.907 102.504 139.245C102.504 139.245 100.296 138.774 100.037 138.798C99.7785 138.823 99.0465 139.94 99.1989 140.195C99.3514 140.451 101.303 141.485 101.303 141.485C101.217 141.823 101.155 142.133 101.144 142.483C101.144 142.483 98.9135 143.491 98.7819 143.66C98.6504 143.829 98.4987 144.863 98.7065 145.036C98.9142 145.208 100.745 145.018 101.607 144.87C101.775 145.24 101.99 145.59 102.239 145.912C102.239 145.912 100.951 148.093 100.993 148.381C101.034 148.669 101.654 149.532 101.924 149.408C102.194 149.284 103.962 147.297 103.962 147.297C104.474 147.54 104.95 147.618 105.341 147.656C105.341 147.656 106.259 150.2 106.444 150.353C106.628 150.506 107.719 150.231 107.802 150.03L107.803 150.03ZM104.467 144.471C103.435 143.678 103.447 142.27 104.104 141.556C104.995 140.589 106.29 140.571 107.213 141.396C108.05 142.145 107.998 143.433 107.205 144.334C106.488 145.149 105.42 145.202 104.467 144.471V144.471Z" fill="#090C9B"/>
        <path d="M106.664 150.651C106.492 150.651 106.364 150.617 106.281 150.548C106.223 150.5 106.05 150.356 105.156 147.892C104.837 147.853 104.45 147.78 104.028 147.604C103.344 148.371 102.291 149.519 102.03 149.639C101.943 149.679 101.799 149.705 101.611 149.602C101.245 149.403 100.787 148.736 100.74 148.417C100.705 148.175 101.107 147.338 101.933 145.928C101.754 145.682 101.595 145.422 101.458 145.15C100.834 145.243 98.8791 145.509 98.5436 145.231C98.1734 144.923 98.4144 143.717 98.5807 143.503C98.6219 143.45 98.7455 143.291 100.898 142.314C100.916 142.061 100.959 141.83 101.009 141.616C100.247 141.208 99.1324 140.58 98.9801 140.325C98.8763 140.152 98.9141 139.901 99.0987 139.537C99.1035 139.528 99.5871 138.584 100.014 138.544C100.265 138.521 101.677 138.809 102.412 138.965C102.633 138.72 102.823 138.527 103.181 138.344C102.728 136.104 102.854 135.963 102.939 135.869C103.111 135.678 104.443 135.088 104.837 135.341C105.071 135.492 105.654 136.64 106.129 137.64C106.673 137.61 107.043 137.674 107.371 137.861C108.58 136.285 108.812 136.218 108.89 136.195C109.019 136.158 109.208 136.168 109.637 136.527C109.727 136.603 110.524 137.283 110.481 137.668C110.457 137.895 109.955 139.118 109.68 139.776C109.877 139.999 109.976 140.206 110.056 140.396C111.225 140.297 112.575 140.203 112.789 140.276C113.143 140.397 113.366 141.22 113.375 141.255C113.468 141.605 113.526 142.082 113.27 142.372C113.075 142.594 111.624 143.363 110.619 143.597C110.586 143.902 110.535 144.172 110.465 144.404C112.432 145.882 112.49 146.148 112.51 146.237C112.543 146.39 112.48 146.565 112.297 146.822C112.078 147.131 111.368 147.926 110.992 147.972C110.755 148.002 110.015 147.638 108.791 146.892C108.545 147.107 108.321 147.256 108.014 147.411C108.098 149.05 108.106 149.963 108.038 150.126C107.964 150.306 107.691 150.455 107.228 150.569C107.006 150.624 106.818 150.651 106.664 150.651H106.664ZM106.604 150.142C106.802 150.165 107.393 150.023 107.566 149.91C107.594 149.62 107.554 148.378 107.496 147.269C107.493 147.218 107.506 147.168 107.532 147.125C107.558 147.081 107.596 147.046 107.642 147.025C108.048 146.835 108.277 146.68 108.586 146.39C108.627 146.351 108.679 146.327 108.735 146.322C108.791 146.316 108.847 146.329 108.894 146.358C109.703 146.856 110.692 147.406 110.935 147.462C111.183 147.354 111.887 146.607 111.997 146.341C111.804 146.099 110.848 145.325 110.013 144.702C109.969 144.669 109.937 144.623 109.921 144.57C109.906 144.517 109.908 144.461 109.927 144.409C110.025 144.146 110.095 143.784 110.129 143.364C110.134 143.308 110.157 143.254 110.195 143.212C110.234 143.171 110.285 143.143 110.341 143.134C111.256 142.979 112.73 142.186 112.892 142.031C112.932 141.985 112.952 141.864 112.941 141.712C112.912 141.323 112.705 140.876 112.606 140.758C112.328 140.737 111.053 140.821 109.914 140.919C109.86 140.924 109.807 140.912 109.76 140.884C109.714 140.856 109.678 140.815 109.657 140.765L109.618 140.67C109.524 140.442 109.442 140.245 109.203 140.014C109.166 139.978 109.141 139.932 109.13 139.882C109.12 139.832 109.125 139.779 109.145 139.732C109.513 138.857 109.907 137.87 109.968 137.639C109.869 137.416 109.256 136.819 109.015 136.706C108.794 136.891 108.15 137.676 107.632 138.36C107.611 138.386 107.586 138.409 107.557 138.426C107.528 138.443 107.495 138.454 107.462 138.458C107.429 138.463 107.395 138.461 107.362 138.452C107.33 138.443 107.299 138.428 107.273 138.407C106.961 138.167 106.638 138.105 105.995 138.16C105.943 138.164 105.891 138.153 105.846 138.127C105.801 138.101 105.765 138.062 105.743 138.015C105.3 137.077 104.74 135.988 104.566 135.78C104.341 135.764 103.596 136.039 103.358 136.184C103.356 136.483 103.536 137.544 103.72 138.437C103.732 138.494 103.724 138.554 103.697 138.606C103.67 138.657 103.626 138.699 103.572 138.722C103.149 138.906 103 139.073 102.728 139.375L102.693 139.415C102.663 139.448 102.625 139.473 102.582 139.486C102.54 139.5 102.494 139.503 102.45 139.493C101.446 139.279 100.314 139.061 100.081 139.051C99.8869 139.17 99.4583 139.854 99.4339 140.078C99.6302 140.261 100.593 140.819 101.423 141.259C101.473 141.286 101.513 141.329 101.537 141.381C101.56 141.434 101.565 141.492 101.55 141.547C101.478 141.83 101.409 142.14 101.399 142.49C101.397 142.538 101.382 142.584 101.356 142.623C101.329 142.663 101.292 142.695 101.249 142.714C100.262 143.16 99.1625 143.688 98.9781 143.825C98.8959 143.987 98.8202 144.632 98.8781 144.83C99.1941 144.895 100.582 144.787 101.563 144.618C101.619 144.608 101.676 144.617 101.726 144.643C101.776 144.67 101.815 144.712 101.839 144.763C101.996 145.108 102.198 145.442 102.441 145.755C102.504 145.838 102.511 145.951 102.458 146.04C101.905 146.978 101.293 148.117 101.248 148.36C101.293 148.551 101.665 149.062 101.849 149.154C102.082 148.974 102.987 148.008 103.771 147.127C103.808 147.086 103.857 147.057 103.911 147.046C103.965 147.035 104.021 147.042 104.071 147.066C104.564 147.301 105.022 147.369 105.366 147.402C105.414 147.407 105.46 147.425 105.498 147.454C105.536 147.484 105.565 147.524 105.581 147.569C105.976 148.665 106.451 149.881 106.604 150.142L106.604 150.142ZM105.839 145.241C105.335 145.241 104.808 145.052 104.312 144.672C103.78 144.263 103.456 143.675 103.399 143.015C103.346 142.402 103.539 141.792 103.916 141.383C104.876 140.341 106.334 140.267 107.383 141.206C108.297 142.024 108.303 143.471 107.397 144.501C106.964 144.993 106.417 145.241 105.839 145.241ZM105.732 141.055C105.215 141.055 104.703 141.281 104.291 141.728C104.01 142.034 103.866 142.498 103.907 142.971C103.951 143.487 104.205 143.948 104.623 144.268C105.47 144.918 106.386 144.879 107.014 144.165C107.733 143.347 107.746 142.214 107.043 141.585C106.647 141.231 106.188 141.055 105.732 141.055Z" fill="#090C9B"/>
        <path d="M114.956 128.214C114.112 126.106 113.415 124.751 112.994 124.572C110.726 123.609 75.6983 139.126 73.8851 142.161C73.3372 143.078 74.0211 146.641 75.3161 151.195C75.69 149.539 76.62 147.265 77.3276 145.914C78.6298 143.426 105.859 130.545 114.956 128.214Z" fill="#F06543"/>
        <path d="M75.3162 151.45C75.2607 151.45 75.2068 151.432 75.1626 151.399C75.1184 151.365 75.0862 151.319 75.0711 151.265C73.5899 146.057 73.1174 142.95 73.6664 142.031C74.6819 140.331 84.805 135.369 93.1652 131.635C95.0168 130.809 111.306 123.581 113.094 124.339C113.287 124.421 113.798 124.638 115.193 128.12C115.206 128.154 115.212 128.19 115.211 128.226C115.209 128.262 115.2 128.298 115.183 128.33C115.167 128.362 115.144 128.391 115.115 128.413C115.087 128.436 115.054 128.452 115.019 128.461C110.919 129.512 102.405 132.957 93.3278 137.237C84.5963 141.354 78.1097 144.971 77.5536 146.033C76.8633 147.351 75.9316 149.628 75.5648 151.252C75.5523 151.307 75.5218 151.356 75.4781 151.392C75.4343 151.428 75.3798 151.449 75.3232 151.45H75.3162V151.45ZM112.698 124.781C112.218 124.781 110.747 125.042 106.271 126.726C102.728 128.06 98.1472 129.969 93.3732 132.1C82.7893 136.827 74.8655 141.018 74.104 142.292C73.8989 142.635 73.627 144.092 75.3093 150.224C75.7626 148.697 76.5035 146.94 77.102 145.796C77.8567 144.355 85.8662 140.192 93.1103 136.776C102.012 132.579 110.384 129.18 114.611 128.042C113.47 125.237 113.01 124.857 112.895 124.808C112.864 124.794 112.806 124.781 112.698 124.781L112.698 124.781Z" fill="#F06543"/>
    </g>
    <g clip-path="url(#clip6_5_344)">
        <path d="M71.933 134.165C71.6057 133.389 71.4265 126.78 72.209 124.499C73.0369 122.086 78.2314 117.359 78.2314 117.359C78.2314 117.359 73.5304 116.581 73.4757 115.673C73.421 114.765 85.3715 113.579 86.4026 114.196C87.4336 114.812 87.7689 126.007 86.7387 126.226C85.7085 126.445 83.975 121.95 83.975 121.95C83.975 121.95 80.4018 124.956 79.486 127.041C78.3951 129.524 79.0596 136.689 78.5543 136.914C77.5652 137.355 72.4131 135.303 71.933 134.165Z" fill="#65EB8F"/>
        <path d="M78.1641 137.23C77.2157 137.23 75.6578 136.646 75.1303 136.437C74.6262 136.238 72.0914 135.194 71.699 134.264C71.358 133.456 71.1716 126.739 71.9687 124.416C72.6851 122.327 76.4601 118.668 77.6842 117.519C77.226 117.432 76.5164 117.287 75.8101 117.103C73.5563 116.516 73.243 116.038 73.222 115.688C73.212 115.524 73.3072 115.379 73.5051 115.258C74.9781 114.358 85.4488 113.329 86.5328 113.977C87.1347 114.337 87.4068 116.804 87.5289 118.81C87.6812 121.31 87.6344 123.893 87.4125 125.236C87.2796 126.04 87.0939 126.411 86.7915 126.475C86.4336 126.552 85.8319 126.408 84.7446 124.287C84.3671 123.55 84.0445 122.795 83.8721 122.375C83.0328 123.113 80.4565 125.463 79.7186 127.143C79.0928 128.568 79.0631 131.693 79.0413 133.975C79.0176 136.457 78.982 137.003 78.6575 137.147C78.5283 137.205 78.3589 137.23 78.1641 137.23ZM72.1671 134.065C72.3578 134.518 73.6825 135.316 75.3171 135.963C76.889 136.586 78.0307 136.799 78.4019 136.698C78.5099 136.403 78.5222 135.114 78.5331 133.971C78.5552 131.644 78.5856 128.458 79.2534 126.938C80.1824 124.823 83.6639 121.879 83.8117 121.754C83.8427 121.728 83.8794 121.71 83.9188 121.701C83.9582 121.692 83.9992 121.693 84.0383 121.703C84.0774 121.713 84.1136 121.732 84.1438 121.759C84.174 121.786 84.1973 121.82 84.2119 121.858C84.2162 121.869 84.6482 122.985 85.198 124.057C86.1221 125.858 86.5653 125.978 86.667 125.978H86.6681C86.9343 125.709 87.2177 123.449 87.07 119.8C86.9309 116.365 86.5196 114.583 86.2719 114.414C85.9309 114.211 83.4493 114.217 79.8882 114.582C76.342 114.945 74.1346 115.418 73.7501 115.701C73.8282 115.818 74.1974 116.156 75.9351 116.609C77.0927 116.91 78.2611 117.105 78.2728 117.107C78.32 117.115 78.364 117.136 78.3998 117.168C78.4356 117.199 78.4618 117.241 78.4753 117.287C78.4888 117.333 78.4891 117.382 78.4762 117.428C78.4633 117.474 78.4376 117.515 78.4022 117.548C78.3508 117.594 73.2466 122.258 72.4494 124.582C71.6863 126.806 71.8687 133.357 72.1672 134.066L72.1671 134.065Z" fill="#65EB8F"/>
    </g>
    <g clip-path="url(#clip7_5_344)">
        <path d="M120.919 67.834C121.565 67.4888 127.273 66.8021 129.311 67.2949C131.467 67.8162 135.977 71.925 135.977 71.925C135.977 71.925 136.273 67.7998 137.055 67.6795C137.836 67.5591 139.822 77.7915 139.371 78.7321C138.921 79.6727 129.255 80.8631 128.982 79.9904C128.71 79.1177 132.463 77.2579 132.463 77.2579C132.463 77.2579 129.573 74.4118 127.695 73.7882C125.456 73.0452 119.306 74.1959 119.071 73.7773C118.609 72.9581 119.973 68.3405 120.919 67.834Z" fill="#65EB8F"/>
        <path d="M118.766 73.4653C118.69 72.6457 119.07 71.2524 119.209 70.7798C119.341 70.328 120.041 68.0535 120.815 67.6396C121.487 67.2799 127.288 66.5784 129.364 67.0804C131.229 67.5315 134.701 70.4994 135.794 71.4648C135.833 71.0619 135.901 70.437 136.004 69.8117C136.331 67.8167 136.719 67.5076 137.021 67.4612C137.163 67.4394 137.296 67.5101 137.416 67.6713C138.313 68.8719 140.046 77.8379 139.572 78.8268C139.308 79.376 137.194 79.8096 135.467 80.0766C133.314 80.4093 131.075 80.5765 129.894 80.4929C129.186 80.4428 128.851 80.3121 128.771 80.0559C128.676 79.7528 128.752 79.2212 130.501 78.1109C131.109 77.7255 131.736 77.3859 132.086 77.2031C131.38 76.5371 129.138 74.4997 127.624 73.9972C126.341 73.5711 123.632 73.7968 121.654 73.9616C119.504 74.1407 119.029 74.1539 118.877 73.8851C118.817 73.778 118.782 73.6337 118.766 73.4653ZM121.024 68.0282C120.648 68.2293 120.064 69.4384 119.634 70.903C119.222 72.3116 119.129 73.3154 119.246 73.6281C119.51 73.6977 120.627 73.6046 121.618 73.522C123.634 73.354 126.395 73.1239 127.765 73.5787C129.671 74.2114 132.5 76.9832 132.619 77.101C132.644 77.1256 132.663 77.1559 132.674 77.1892C132.685 77.2226 132.687 77.258 132.682 77.2926C132.676 77.3273 132.662 77.3601 132.641 77.3883C132.621 77.4166 132.593 77.4395 132.562 77.4551C132.552 77.4597 131.621 77.9228 130.737 78.4842C129.251 79.4278 129.183 79.8205 129.191 79.9083L129.191 79.9093C129.446 80.1176 131.425 80.1808 134.573 79.7595C137.536 79.363 139.046 78.8641 139.172 78.6366C139.321 78.3255 139.116 76.1814 138.514 73.1332C137.915 70.0978 137.328 68.2282 137.052 67.9188C136.957 67.9956 136.695 68.3418 136.442 69.88C136.273 70.9047 136.199 71.9301 136.198 71.9404C136.195 71.9818 136.18 72.0215 136.156 72.055C136.131 72.0885 136.097 72.1144 136.059 72.1298C136.02 72.1452 135.978 72.1494 135.937 72.1419C135.896 72.1345 135.858 72.1157 135.827 72.0877C135.782 72.047 131.334 68.0111 129.258 67.5091C127.271 67.0286 121.614 67.7133 121.024 68.0283L121.024 68.0282Z" fill="#65EB8F"/>
    </g>
    <g clip-path="url(#clip8_5_344)">
        <path d="M188.37 116.737C188.91 117.384 191.009 123.654 190.926 126.064C190.838 128.613 187.248 134.65 187.248 134.65C187.248 134.65 191.971 134.023 192.288 134.875C192.605 135.728 181.52 140.347 180.354 140.058C179.188 139.77 175.602 129.159 176.524 128.649C177.445 128.139 180.415 131.934 180.415 131.934C180.415 131.934 182.956 128.016 183.224 125.755C183.543 123.061 180.818 116.401 181.235 116.039C182.053 115.328 187.579 115.789 188.37 116.737Z" fill="#65EB8F"/>
        <path d="M181.517 115.623C182.424 115.346 184.084 115.449 184.649 115.495C185.19 115.539 187.919 115.798 188.565 116.573C189.127 117.247 191.265 123.617 191.18 126.072C191.104 128.279 188.56 132.88 187.724 134.336C188.188 134.286 188.909 134.217 189.638 134.188C191.965 134.092 192.404 134.457 192.527 134.786C192.584 134.94 192.535 135.107 192.381 135.28C191.235 136.57 181.519 140.609 180.294 140.305C179.613 140.137 178.633 137.856 177.931 135.972C177.056 133.625 176.348 131.142 176.168 129.792C176.061 128.984 176.13 128.575 176.401 128.426C176.721 128.248 177.338 128.21 178.997 129.922C179.573 130.516 180.102 131.144 180.389 131.496C180.977 130.545 182.756 127.546 182.971 125.724C183.154 124.179 182.271 121.18 181.627 118.991C180.926 116.611 180.8 116.078 181.069 115.845C181.175 115.752 181.33 115.679 181.517 115.623ZM188.176 116.9C187.861 116.523 186.361 116.146 184.609 116.004C182.924 115.866 181.77 115.996 181.444 116.2C181.427 116.514 181.791 117.751 182.114 118.847C182.771 121.079 183.672 124.136 183.476 125.785C183.205 128.079 180.733 131.91 180.628 132.072C180.606 132.106 180.576 132.134 180.541 132.154C180.506 132.174 180.467 132.186 180.426 132.188C180.386 132.189 180.346 132.181 180.309 132.164C180.272 132.147 180.24 132.122 180.215 132.09C180.208 132.081 179.469 131.139 178.63 130.274C177.221 128.821 176.762 128.835 176.665 128.865L176.664 128.865C176.488 129.201 176.876 131.444 178.081 134.892C179.216 138.137 180.13 139.722 180.415 139.811C180.801 139.906 183.173 139.176 186.473 137.789C189.759 136.407 191.732 135.31 192.017 134.927C191.909 134.839 191.457 134.623 189.663 134.697C188.468 134.746 187.293 134.9 187.281 134.902C187.234 134.908 187.186 134.901 187.142 134.881C187.099 134.861 187.062 134.829 187.035 134.789C187.009 134.749 186.994 134.702 186.993 134.654C186.992 134.607 187.005 134.559 187.029 134.518C187.065 134.458 190.587 128.509 190.672 126.054C190.753 123.704 188.668 117.49 188.175 116.9L188.176 116.9Z" fill="#65EB8F"/>
    </g>
    <g clip-path="url(#clip9_5_344)">
        <path d="M143.1 170.047C142.469 170.785 135.747 174.369 132.991 174.731C130.076 175.115 122.519 172.166 122.519 172.166C122.519 172.166 124.145 177.434 123.237 177.958C122.329 178.481 114.935 166.715 115.038 165.33C115.141 163.946 126.51 157.842 127.268 158.796C128.026 159.75 124.286 163.857 124.286 163.857C124.286 163.857 129.231 166.012 131.854 165.888C134.978 165.741 142.022 161.369 142.516 161.776C143.481 162.574 144.026 168.965 143.1 170.047Z" fill="#65EB8F"/>
        <path d="M143.042 162.019C143.532 163.001 143.735 164.914 143.792 165.568C143.847 166.193 144.08 169.354 143.324 170.239C142.666 171.008 135.837 174.654 133.03 175.024C130.507 175.356 124.784 173.328 122.967 172.651C123.114 173.17 123.331 173.98 123.506 174.806C124.065 177.442 123.734 178.012 123.384 178.214C123.22 178.308 123.021 178.284 122.794 178.141C121.106 177.079 114.637 166.765 114.745 165.309C114.805 164.5 117.209 162.95 119.214 161.792C121.713 160.349 124.4 159.069 125.9 158.608C126.798 158.332 127.276 158.334 127.498 158.614C127.762 158.946 127.924 159.643 126.299 161.859C125.735 162.629 125.123 163.351 124.779 163.746C125.973 164.236 129.726 165.695 131.84 165.595C133.632 165.511 136.87 163.935 139.234 162.784C141.804 161.533 142.386 161.289 142.703 161.55C142.829 161.655 142.942 161.817 143.042 162.019ZM142.877 169.856C143.245 169.426 143.383 167.644 143.207 165.619C143.037 163.671 142.667 162.379 142.372 162.046C142.012 162.086 140.676 162.736 139.491 163.313C137.081 164.486 133.781 166.093 131.868 166.183C129.207 166.308 124.374 164.217 124.169 164.128C124.127 164.109 124.089 164.08 124.059 164.044C124.03 164.008 124.009 163.965 123.999 163.919C123.99 163.874 123.991 163.826 124.003 163.781C124.015 163.736 124.038 163.695 124.069 163.66C124.079 163.65 125.006 162.629 125.827 161.508C127.207 159.625 127.103 159.104 127.05 158.999L127.05 158.998C126.634 158.861 124.158 159.729 120.472 161.758C117.001 163.669 115.377 165.011 115.331 165.354C115.297 165.812 116.585 168.378 118.8 171.879C121.006 175.365 122.634 177.407 123.125 177.66C123.205 177.519 123.362 176.963 122.932 174.93C122.645 173.576 122.243 172.266 122.239 172.253C122.222 172.2 122.221 172.144 122.235 172.091C122.25 172.037 122.279 171.989 122.319 171.951C122.36 171.914 122.41 171.888 122.464 171.878C122.518 171.867 122.574 171.873 122.626 171.893C122.701 171.922 130.145 174.81 132.953 174.44C135.64 174.087 142.301 170.53 142.877 169.856L142.877 169.856Z" fill="#65EB8F"/>
    </g>
    <g clip-path="url(#clip10_5_344)">
        <path d="M161.829 150.52C161.501 149.932 168.373 141.346 169.014 141.401C171.522 141.614 174.812 148.858 172.917 152.19C172.593 152.761 162.154 151.101 161.829 150.52Z" fill="#65EB8F"/>
        <path d="M172.218 152.533H172.186C170.888 152.528 168.225 152.171 166.161 151.819C161.889 151.09 161.696 150.743 161.632 150.629C161.548 150.479 161.528 150.258 162.196 149.223C162.958 148.042 164.426 146.1 165.937 144.277C168.541 141.134 168.885 141.163 169.033 141.176C170.069 141.264 171.272 142.427 172.25 144.288C173.504 146.674 174.309 150.199 173.113 152.302C173.017 152.472 172.781 152.533 172.218 152.533ZM162.052 150.415C162.429 150.633 164.431 151.101 167.336 151.553C170.435 152.035 172.406 152.162 172.742 152.041C173.823 150.081 173.042 146.764 171.851 144.499C170.968 142.818 169.887 141.723 169.023 141.628C168.698 141.771 167.222 143.359 165.261 145.827C163.283 148.316 162.162 150.003 162.052 150.415Z" fill="#65EB8F"/>
        <path d="M159.389 149.687C159.96 149.67 167.343 139.099 166.931 138.526C164.056 134.528 152.602 135.749 149.191 140.602C148.785 141.179 158.721 149.708 159.389 149.687Z" fill="#DE541E"/>
        <path d="M159.377 149.913C159.256 149.913 159.002 149.853 157.506 148.683C156.588 147.964 155.418 146.994 154.213 145.951C151.983 144.02 149.45 141.681 149.033 140.906C148.997 140.84 148.888 140.638 149.006 140.471C151.191 137.363 156.319 135.925 160.158 135.904H160.251C163.477 135.904 165.975 136.809 167.114 138.393C167.232 138.557 167.178 138.809 166.908 139.357C166.227 140.738 164.352 143.55 162.953 145.538C162.128 146.71 161.344 147.777 160.745 148.543C159.68 149.903 159.523 149.908 159.397 149.912C159.39 149.912 159.383 149.913 159.377 149.913ZM149.417 140.672C149.595 141.079 151.243 142.762 154.169 145.314C156.893 147.69 158.936 149.269 159.365 149.448C159.732 149.172 161.295 147.165 163.314 144.229C165.507 141.038 166.673 139.018 166.72 138.619C165.644 137.164 163.254 136.341 160.161 136.356C156.458 136.376 151.533 137.735 149.417 140.672Z" fill="#DE541E"/>
        <path d="M158.695 152.455C158.101 152.235 148.218 142.647 147.804 143.156C142.824 149.278 145.635 158.897 152.309 162.154C159.658 165.741 168.945 164.53 172.044 155.653C172.252 155.058 159.329 152.69 158.695 152.455Z" fill="#FFD04D"/>
        <path d="M160.145 164.253C157.537 164.253 154.786 163.613 152.21 162.357C148.798 160.692 146.238 157.318 145.36 153.333C144.531 149.566 145.358 145.805 147.629 143.013C147.654 142.983 147.684 142.958 147.719 142.941C147.753 142.923 147.791 142.913 147.83 142.911C147.835 142.911 147.84 142.91 147.846 142.91C148.387 142.91 150.48 144.746 155.226 149.092C156.851 150.581 158.531 152.12 158.778 152.244C158.96 152.308 160.259 152.572 161.761 152.878C169.546 154.461 171.993 155.073 172.234 155.497C172.254 155.531 172.267 155.569 172.271 155.609C172.275 155.649 172.27 155.689 172.257 155.727C171 159.329 168.627 161.936 165.395 163.268C163.795 163.927 162.006 164.253 160.145 164.253ZM147.911 143.382C145.778 146.057 145.009 149.642 145.8 153.235C146.649 157.087 149.119 160.345 152.408 161.95C156.707 164.049 161.498 164.385 165.223 162.851C168.298 161.584 170.567 159.111 171.791 155.693C170.965 155.21 164.724 153.941 161.671 153.32C159.796 152.939 158.808 152.737 158.617 152.666C158.375 152.576 157.411 151.706 154.921 149.426C152.564 147.267 148.671 143.701 147.911 143.382Z" fill="#FFD04D"/>
    </g>
    <defs>
        <filter id="filter0_d_5_344" x="0" y="0" width="256" height="256" filterUnits="userSpaceOnUse" color-interpolation-filters="sRGB">
            <feFlood flood-opacity="0" result="BackgroundImageFix"/>
            <feColorMatrix in="SourceAlpha" type="matrix" values="0 0 0 0 0 0 0 0 0 0 0 0 0 0 0 0 0 0 127 0" result="hardAlpha"/>
            <feMorphology radius="1" operator="dilate" in="SourceAlpha" result="effect1_dropShadow_5_344"/>
            <feOffset dy="4"/>
            <feGaussianBlur stdDeviation="10"/>
            <feComposite in2="hardAlpha" operator="out"/>
            <feColorMatrix type="matrix" values="0 0 0 0 0.396078 0 0 0 0 0.501961 0 0 0 0 0.427451 0 0 0 1 0"/>
            <feBlend mode="normal" in2="BackgroundImageFix" result="effect1_dropShadow_5_344"/>
            <feBlend mode="normal" in="SourceGraphic" in2="effect1_dropShadow_5_344" result="shape"/>
        </filter>
        <linearGradient id="paint0_linear_5_344" x1="128" y1="24" x2="128" y2="224" gradientUnits="userSpaceOnUse">
            <stop stop-color="#65EB8F"/>
            <stop offset="1" stop-color="#5AC2AF"/>
        </linearGradient>
        <clipPath id="clip0_5_344">
            <rect width="107.1" height="104.448" fill="white" transform="translate(71.196 79.7012)"/>
        </clipPath>
        <clipPath id="clip1_5_344">
            <rect width="56.814" height="61.914" fill="white" transform="translate(73.4399 73.6836)"/>
        </clipPath>
        <clipPath id="clip2_5_344">
            <rect width="51.612" height="57.528" fill="white" transform="translate(126.888 75.0098)"/>
        </clipPath>
        <clipPath id="clip3_5_344">
            <rect width="50.388" height="48.348" fill="white" transform="translate(133.008 124.275)"/>
        </clipPath>
        <clipPath id="clip4_5_344">
            <rect width="30.906" height="49.164" fill="white" transform="translate(81.498 70.2168)"/>
        </clipPath>
        <clipPath id="clip5_5_344">
            <rect width="50.796" height="54.264" fill="white" transform="translate(73.4399 124.275)"/>
        </clipPath>
        <clipPath id="clip6_5_344">
            <rect width="16.218" height="23.46" fill="white" transform="translate(71.3999 113.77)"/>
        </clipPath>
        <clipPath id="clip7_5_344">
            <rect width="14.076" height="20.4" fill="white" transform="translate(138.535 65.7324) rotate(84.6914)"/>
        </clipPath>
        <clipPath id="clip8_5_344">
            <rect width="16.218" height="23.46" fill="white" transform="translate(194.829 136.09) rotate(163.043)"/>
        </clipPath>
        <clipPath id="clip9_5_344">
            <rect width="18.768" height="27.03" fill="white" transform="translate(122.347 181.086) rotate(-116.505)"/>
        </clipPath>
        <clipPath id="clip10_5_344">
            <rect width="28.662" height="28.356" fill="white" transform="translate(145.044 135.904)"/>
        </clipPath>
    </defs>
</svg>