<svg width="1480" height="516" viewBox="0 0 1480 516" fill="none" xmlns="http://www.w3.org/2000/svg">
    <g clip-path="url(#clip0_481_345)">
        <path d="M1481 0H0V516H1481V0Z" fill="#0E2C33"/>
        <mask id="mask0_481_345" style="mask-type:luminance" maskUnits="userSpaceOnUse" x="0" y="0" width="1481" height="516">
            <path d="M1481 0H0V516H1481V0Z" fill="white"/>
        </mask>
        <g mask="url(#mask0_481_345)">
            <path d="M-21.5928 31.9224C-15.8998 31.91 -10.8624 29.1247 -4.94635 27.5622C0.0535114 26.2413 5.70697 27.0545 10.6772 25.49C15.8192 23.8718 19.4131 21.2072 24.1286 19.3042C30.7379 16.6375 41.1365 14.655 49.2128 13.6777C54.3786 13.0533 60.4052 11.9408 65.7902 12.2855C71.2284 12.6333 72.9562 14.4569 76.0446 16.5498C80.379 19.4868 86.6979 20.1463 90.8487 23.2206C94.0812 25.6148 96.6582 28.6097 98.2813 31.4147C99.4997 33.5179 98.0167 33.7501 97.1992 35.3136C96.5239 36.6025 96.7411 37.8595 96.7589 39.2156C96.7964 42.2785 96.2395 47.0691 100.114 49.6088C101.745 50.678 103.72 50.3189 104.806 51.5015C106.056 52.8648 104.363 56.0124 105.098 57.6151C106.476 60.6234 107.049 63.5718 108.419 66.5636C111.251 72.7453 119.866 78.9383 134.323 77.4532C139.194 76.9527 148.104 76.0704 151.751 74.124C157.231 71.1993 150.543 68.5068 154.184 65.6688C155.971 64.2756 159.51 62.8442 161.777 61.5119C164.753 59.7637 164.95 58.2002 167.158 56.2436C169.987 53.7348 174.938 52.4324 179.545 51.0268C183.542 49.807 185.607 49.9907 189.614 49.3343C197.925 47.9721 199.607 41.7594 210.322 42.9886C214.475 43.4653 217.227 45.3735 221.054 45.9814C222.553 46.2198 224.929 45.9163 226.609 46.1279C229.302 46.4664 232.095 47.3488 234.786 47.7554C241.056 48.7017 247.296 48.0897 252.921 50.0041C256.278 51.1455 259.985 52.9577 262.726 54.4675C264.011 55.1754 268.014 57.0723 268.263 58.0269C268.798 60.0692 265.295 61.4201 266.878 63.8866C273.341 64.0826 275.285 65.7122 278.559 68.5925C281.374 71.0703 284.712 72.2664 289.315 73.7907C294.887 75.6359 297.817 77.5203 301.137 80.5265C304.008 83.1272 306.95 85.38 312.021 86.7258C315.874 87.7485 317.442 88.9157 320.866 90.2325C331.146 94.1871 343.162 86.1664 354.716 86.7299C361.175 87.0446 364.713 87.9931 371.251 87.2614C376.555 86.668 380.299 86.0921 384.16 84.1086C390.611 80.7938 395.692 77.3954 402.645 74.2943C409.639 71.1756 417.453 66.8309 426.325 65.2261C431.445 64.2994 437.44 63.9475 442.849 63.9371C448.058 63.9268 452.42 65.0114 457.529 65.0651C468.257 65.1776 478.908 62.9454 489.806 62.9093C500.239 62.8752 513.019 65.2127 517.898 70.1498C519.962 72.2385 521.263 74.3304 525.262 75.6699C528.484 76.7484 530.729 76.8041 533.16 78.5657C536.628 81.0776 538.004 84.251 541.46 86.7866C545.806 89.9766 551.88 89.3945 557.05 91.8053C564.208 95.1427 559.949 102.071 566.589 105.129C569.397 106.424 573.988 105.854 577.144 106.71C582.679 108.212 585.898 111.785 588.405 114.533C591.006 117.383 596.389 119.858 598.121 122.817C599.868 125.8 598.395 130.023 596.277 132.799C591.421 139.161 580.687 144.358 568.625 146.679C539.621 152.259 506.552 151.418 476.191 153.1C420.614 156.178 366.396 164.194 310.704 166.449C247.511 169.008 184.926 167.522 122.795 161.039C84.5554 157.048 46.081 153.519 8.2148 148.629C-5.18924 146.899 -18.6723 145.381 -31.5866 142.795C-44.3291 140.244 -56.0073 136.698 -67.2984 132.718C-86.506 125.946 -103.297 116.865 -124.285 111.445C-138.896 107.672 -157.764 111.23 -171.267 106.465C-180.467 103.218 -182.68 95.6237 -185.67 90.5142C-188.251 86.1014 -189.765 82.1942 -195.077 78.4883C-192.561 76.0827 -187.473 74.2386 -183.756 72.3108C-177.994 69.3231 -172.507 66.0238 -166.275 63.2963C-159.954 60.5295 -158.431 61.03 -151.917 59.6399C-147.914 58.7864 -145.823 57.4397 -142.427 56.0341C-134.196 52.6274 -124.321 49.8183 -115.314 46.9876C-103.992 43.4292 -98.9859 39.4767 -89.8274 34.6768C-79.5453 29.2877 -67.7447 26.6819 -53.1875 26.7738C-53.1499 26.7738 -53.1104 26.7748 -53.0729 26.7748C-44.7596 26.8254 -35.6761 27.168 -29.2723 30.1567C-26.5176 31.4384 -23.9979 31.9276 -21.5928 31.9224Z" fill="#10353D"/>
            <path d="M719.63 141.509C721.354 139.357 722.487 136.977 725.147 135.097C732.388 129.979 749.676 130.525 759.982 131.808C768.876 132.915 775.679 133.278 784.314 131.112C791.545 129.298 797.785 126.035 805.824 125.05C813.022 124.169 819.939 124.307 827.06 122.856C836.57 120.918 844.656 117.764 855.254 118.912C859.276 119.348 863.032 120.041 867.242 119.833C872.155 119.589 873.061 118.57 876.48 116.866C882.186 114.018 889.108 113.04 896.665 112.234C901.777 111.689 907.818 111.135 912.75 110.243C917.266 109.427 919.251 107.509 923.016 106.188C924.74 105.585 928.316 104.721 930.38 104.44C932.892 104.099 936.055 104.708 938.336 104.304C941.46 103.752 942.724 101.379 944.604 100.082C948.006 97.7354 950.774 98.0099 956.005 98.0388C960.575 98.0646 962.314 97.4165 966.177 96.9335C974.105 95.9407 980.069 99.8045 985.224 102.22C989.61 104.276 991.917 105.764 997.519 106.292C1001.42 106.659 1004.59 107.726 1008.84 108.127C1012.97 108.515 1017.18 108.023 1021.21 108.59C1027.71 109.501 1029.31 109.992 1031.51 106.293C1032.41 104.792 1033.25 104.817 1032.62 103.201C1032.15 101.999 1030.42 101.46 1030.89 100.051C1031.26 98.982 1033.67 96.3556 1034.9 95.4216C1037.4 93.5134 1040.7 93.0986 1044.87 92.8798C1049.2 92.6528 1052.89 91.5588 1056.71 90.5826C1058.72 90.0707 1059.5 89.1956 1061 88.7281C1063.94 87.8096 1065.16 87.7766 1068.62 87.7033C1074.21 87.5846 1077.14 88.2131 1081.88 89.7632C1088.13 91.8045 1091.67 92.6992 1089.84 96.7539C1088.41 99.9304 1087.62 102.745 1094.19 104.534C1100.98 106.382 1112.56 104.923 1116.53 101.389C1118.07 100.022 1119.47 97.6642 1120.01 95.9789C1120.74 93.7147 1119.27 92.9345 1123.76 91.5681C1133.52 88.5939 1144.17 92.756 1151.54 95.7457C1154.97 97.1368 1155.87 97.7385 1157.81 99.7436C1160.61 102.646 1163.74 109.252 1169.23 111.07C1173.25 112.399 1179.88 112.555 1184.47 113.236C1189.98 114.051 1195.05 115.628 1200.36 116.431C1206.09 117.298 1210.64 115.641 1216.23 115.559C1221.24 115.486 1228.59 116.557 1232.55 114.649C1236.47 112.754 1235.82 109.165 1238.33 106.854C1240.97 104.427 1242.03 105.13 1246.24 105.293C1248.09 105.365 1250.35 105.364 1252.21 105.288C1254.27 105.203 1256.37 104.482 1258.13 104.411C1262.06 104.253 1270.17 106.486 1273.01 107.815C1276.78 109.577 1278.32 110.881 1283.85 110.443C1287.71 110.137 1289.48 109.025 1293.68 109.624C1300.97 110.663 1313.59 110.054 1317.08 105.279C1317.96 104.069 1317.39 102.406 1317.8 101.131C1318.31 99.5279 1319.67 98.432 1319.49 96.7766C1319.12 93.2627 1316.32 90.0996 1317.27 86.3865C1318.02 83.469 1319.13 83.1625 1323.35 81.7848C1324.81 81.309 1325.73 80.7125 1327.18 80.2347C1328.49 79.9891 1329.72 79.663 1330.86 79.2564C1331.15 78.6516 1331.37 78.0396 1331.53 77.4215C1334.77 74.9488 1339.46 72.7764 1343.04 70.4028C1346.72 67.9642 1349.12 67.0788 1354.35 65.795C1358.8 64.7021 1363.75 63.3553 1368.61 62.8713C1374.88 62.2459 1385.39 65.3368 1390.14 67.0798C1393.91 68.4606 1397.52 70.5649 1400.34 72.4689C1404.95 75.5732 1404.28 77.9984 1404.25 81.7806C1404.22 87.9582 1404.02 94.1533 1404.22 100.329C1404.32 103.786 1404.65 107.061 1412.06 108.146C1414.87 108.558 1417.68 108.264 1420.55 108.561C1423.74 108.89 1426.85 109.8 1429.83 110.42C1437.94 112.103 1446.74 113.147 1455.47 112.307C1459.47 111.922 1463.26 110.871 1467.25 110.509C1479.83 109.37 1489.29 112.998 1497.19 117.64C1511.6 126.113 1530.42 144.778 1508.82 154.418C1498.64 158.958 1481.61 158.072 1469.52 158.076C1445.59 158.084 1422.09 156.481 1398.36 155.235C1353.4 152.876 1309.59 156.022 1265.36 160.234C1249.62 161.733 1234.75 162.504 1218.85 163.257C1202.04 164.053 1186.82 166.8 1170.66 169.06C1149.66 171.997 1127.48 172.147 1106.09 170.33C1095.23 169.409 1084.59 168.061 1073.51 168.086C1059.34 168.119 1045.1 169.066 1030.89 169.219C987.683 169.682 945.899 178.132 902.61 174.405C883.507 172.76 864.566 174.128 845.426 173.135C838.238 172.763 830.278 172.79 823.223 171.958C813.892 170.859 805.548 167.037 795.775 167.01C785.973 166.984 781.265 171.042 772.501 172.231C760.114 173.911 745.97 169.492 736.243 166.115C732.242 164.725 728.431 164.085 725.26 162.043C722.276 160.123 719.981 157.815 717.47 155.724C715.576 154.148 713.733 152.632 713.034 150.697C711.952 147.704 716.616 144.84 718.931 142.319C719.18 142.056 719.411 141.784 719.63 141.509Z" fill="#10353D"/>
            <path d="M1476.82 91.7745C1476.22 91.63 1475.62 91.4979 1475 91.3803C1471.87 90.7838 1470.22 91.0025 1467.39 91.1831C1456.7 91.8643 1454.36 98.0717 1450.34 102.252C1446.92 105.8 1441.86 108.108 1440.95 112.142C1440.26 115.217 1438.12 117.775 1432.44 119.03C1428.22 119.965 1423.51 121.449 1419.06 121.979C1414.71 122.498 1411.56 121.715 1407.54 121.411C1401.67 120.968 1395.16 118.843 1392.73 115.789C1390.83 113.397 1390.12 111.174 1385.59 109.734C1379.49 107.798 1373.16 104.247 1365.75 106.245C1363.19 106.937 1360.78 107.708 1358.16 108.327C1354.77 109.131 1353.53 110.316 1351.27 111.805C1345.08 115.882 1337.94 119.361 1330.53 122.839C1323.57 126.106 1315.77 128.116 1306.88 129.43C1303.27 129.963 1300.42 130.517 1296.63 130.251C1292.6 129.967 1288.43 129.091 1284.43 128.629C1281.62 128.306 1279.04 128.376 1276.2 128.328C1273.72 128.287 1271.7 127.894 1269.32 127.681C1265.43 127.332 1260.37 127.47 1256.81 127.966C1253.44 128.434 1249.89 128.38 1246.34 129C1239.19 130.248 1234.14 130.595 1226.63 129.684C1222.33 129.163 1214.18 129.214 1211.67 127.1C1210.67 126.267 1211.49 125.577 1210.84 124.815C1210.24 124.116 1208.4 123.932 1207.14 123.611C1206.02 124.534 1204.53 124.051 1202.8 124.162C1201.1 124.27 1200.4 124.48 1198.96 124.853C1195.46 125.76 1191.91 126.823 1188.02 127.482C1182.52 128.412 1175.07 127.909 1170.19 126.274C1167.95 125.525 1166.59 124.569 1164.69 123.646C1162.62 122.635 1160.85 122.179 1158.39 121.418C1150.02 118.824 1139.24 120.494 1130.17 121.584C1124.78 122.233 1120.11 123.616 1115.95 125.551C1109.93 128.349 1104.06 134.258 1105.65 138.566C1109.46 148.851 1134.33 154.758 1150.46 158.54C1189.59 167.713 1236.31 167.827 1278.25 168.755C1317.36 169.621 1356.65 170.087 1395.59 167.478C1422.36 165.684 1449.95 159.471 1466 147.654C1476 140.288 1480.93 132.234 1485.56 123.668C1489.49 116.407 1490.97 109.747 1491.16 102.227C1491.24 99.0088 1487.65 96.0212 1483.16 93.9541C1481.26 93.0841 1479.12 92.3328 1476.82 91.7745Z" fill="#14363D"/>
            <path d="M1471.26 152.695C1470.72 152.29 1470.15 151.897 1469.56 151.519C1464 147.988 1455.87 147.217 1447.52 147.093C1432.02 146.864 1416.96 146.226 1401.64 144.919C1398.28 144.632 1394.93 144.331 1391.58 144.026C1380.05 142.977 1368.41 141.894 1357.08 140.357C1348.05 139.132 1339.57 137.651 1330.12 137.699C1319.51 137.754 1308.47 139.951 1297.88 138.587C1292.28 137.866 1289.72 137.404 1284.6 138.807C1280.49 139.933 1277.68 141.624 1272.94 141.95C1268.79 142.235 1262.27 142.347 1258.13 141.967C1253.82 141.569 1249.49 140.894 1245.2 140.375C1235.19 139.167 1224.79 137.845 1214.6 136.958C1206.2 136.229 1197.41 136.937 1188.93 136.772C1183.09 136.66 1178.69 134.786 1173.67 133.373C1162.13 130.126 1151.08 125.79 1138.43 123.328C1126.96 121.097 1111.55 121.922 1100.27 123.968C1088.69 126.068 1076.42 126.445 1064.53 127.98C1057.02 128.949 1049.58 130.772 1042.08 131.504C1037.74 131.927 1032.64 133.079 1028.17 132.571C1021.15 131.772 1014.6 128.752 1007.36 128.472C1002.03 128.266 1000.19 127.445 995.446 125.981C990.993 124.607 986.828 122.928 981.978 121.947C979.174 121.379 976.564 121.484 973.782 121.07C968.501 120.281 964.558 117.924 959.661 116.857C950.733 114.912 940.909 114.03 931.927 112.008C922.276 109.834 912.553 107.18 902.603 105.512C899.51 104.994 896.742 104.345 893.772 103.707C890.457 102.994 890.66 102.752 887.864 103.707C886.598 104.141 885.913 105.06 884.706 105.512C881.606 106.675 876.835 107.186 873.291 107.811C853.13 111.367 835.119 117.33 815.078 121.22C795.28 125.063 773.675 126.869 753.429 130.079C747.22 131.062 741.006 131.587 734.705 132.365C729.581 132.997 724.202 134.189 719.01 134.535C705.095 135.464 694.572 128.721 681.176 133.582C674.979 135.83 668.942 137.617 662.073 139.302C651.109 141.992 639.463 143.4 628.446 145.942C585.939 155.749 641.384 177.245 660.625 183.793C702.067 197.897 749.564 209.051 795.22 218.713C848.732 230.038 904.696 239.76 961.371 245.687C1018.25 251.636 1076.36 255.442 1134.31 256.652C1186.17 257.734 1239.6 259.116 1291.35 256.501C1329 254.599 1366.01 250.839 1402.2 245.086C1424.74 241.502 1452.13 238.492 1470.35 230.126C1493.94 219.298 1494.68 204.527 1491.16 189.38C1489.39 181.746 1485.81 174.348 1481.9 166.95C1479.42 162.249 1476.76 156.829 1471.26 152.695Z" fill="#1A3A41"/>
            <path d="M983.396 209.738C979.565 208.669 974.725 208.162 971.135 207.295C963.314 205.406 955.508 203.468 947.815 201.441C934.489 197.929 920.852 194.662 907.804 190.871C896.929 187.71 886.679 184.268 875.105 181.788C864.024 179.415 852.448 177.593 841.234 175.391C819.185 171.059 797.491 166.922 776.309 161.437C756.039 156.188 737.193 149.583 718.481 142.969C703.112 137.538 691.554 130.96 673.622 127.952C660.254 125.709 647.221 124.397 633.566 122.808C627.719 122.128 621.764 121.835 616.132 120.747C612.333 120.014 608.456 119.096 604.43 118.762C599.776 118.375 598.581 119.171 594.878 119.762C592.118 120.203 587.128 119.685 584.47 119.479C579.31 119.079 573.953 118.929 568.831 118.451C547.757 116.481 532.633 109.303 514.071 104.183C504.891 101.651 495.762 99.1652 486.296 96.9608C483.462 96.3014 481.049 95.2766 478.247 94.6378C474.983 93.8937 471.756 94.0011 468.302 93.6595C459.083 92.7451 449.827 92.7121 440.46 92.0991C435.673 91.7853 431.797 91.8287 427.253 90.871C422.763 89.9247 418.333 88.4272 413.507 87.9277C406.711 87.2229 399.77 87.3302 392.872 86.4809C380.234 84.9236 367.31 82.8534 355.134 80.5015C344.874 78.52 329.805 74.8667 318.228 76.293C315.959 76.5726 314.393 77.2919 312.292 77.7832C308.579 78.6521 304.166 78.9019 300.244 79.4364C283.124 81.7708 265.315 81.9494 248.431 84.8596C240.139 86.2889 232.237 87.5552 223.805 88.7244C216.226 89.776 209.503 91.6543 202.092 92.935C188.072 95.3581 173.412 98.4954 158.886 99.8721C147.559 100.945 136.061 102.211 124.635 102.989C111.986 103.849 101.012 102.043 88.73 100.908C75.2489 99.6626 62.3208 97.1941 48.4626 96.9598C44.2249 96.8886 39.9616 97.1198 35.726 97.0331C30.7913 96.9319 26.4529 96.0382 21.534 95.9206C13.3866 95.7255 4.25769 95.0362 -3.83449 95.645C-14.7564 96.4675 -22.2463 98.4676 -31.6161 101.38C-39.0843 103.702 -47.1764 105.555 -55.3259 107.107C-65.2506 108.997 -75.8486 109.828 -85.0703 112.629C-92.5898 114.912 -97.8543 117.082 -98.4625 121.872C-99.9731 133.787 -77.5962 144.187 -62.6776 151.238C-7.49947 177.314 57.9548 196.308 124.809 212.863C169.373 223.898 215.069 233.746 261.237 242.789C290.804 248.691 320.735 254.03 351.035 258.806C381.816 263.296 412.893 267.137 444.265 270.329C540.283 280.753 638.505 286.192 736.547 287.858C802.722 288.982 872.264 287.602 934.049 273.849C958.288 268.453 972.913 258.936 983.913 246.586C988.605 241.318 989.247 235.428 991.111 229.855C992.695 225.121 987.916 221.169 988.576 216.682C988.765 215.396 989.912 214.298 989.105 212.997C988.149 211.456 986.009 210.467 983.396 209.738Z" fill="#243F45"/>
            <path d="M1481.8 129.967C1474.02 128.487 1466.13 131.157 1458.69 132.283C1436.83 135.592 1413.65 135.22 1391.13 135.169C1377.52 135.137 1363.65 135.269 1350.16 136.377C1342.36 137.018 1335.02 138.316 1327.29 139.12C1319.41 139.941 1311.83 140.126 1303.84 140.605C1289.68 141.454 1275.76 143.276 1261.69 144.456C1244.38 145.907 1227.13 147.973 1210.19 150.324C1194.98 152.434 1182.34 157.396 1167.02 158.945C1150.48 160.617 1133.9 160.764 1117.23 160.961C1102.46 161.136 1087.04 162.785 1072.47 164.087C1062.53 164.976 1052.52 165.773 1042.51 166.121C1036.55 166.33 1031.04 167.246 1025.03 167.207C1020.11 167.175 1014.03 166.638 1009.23 167.11C1000.85 167.932 991.423 173.631 985.367 176.402C976.816 180.312 967.192 183.205 958.069 186.692C944.655 191.821 932.284 197.63 918.882 202.785C894.088 212.322 867.047 220.962 839.502 228.123C809.009 236.05 768.742 242.319 748.782 257.854C740.066 264.637 734.928 272.27 742.218 280.124C753.025 291.769 778.59 300.64 798.356 307.571C833.029 319.732 869.861 328.422 908.576 336.467C931.974 341.33 955.567 346.45 979.615 350.333C1009.47 355.156 1039.88 358.951 1070.28 362.694C1119.03 368.695 1168.41 374.036 1217.65 378.843C1264.66 383.432 1312.37 385.002 1359.46 379.93C1378.93 377.832 1396.13 374.734 1412.98 369.165C1431.28 363.119 1445.93 355.617 1459.31 346.762C1487.2 328.319 1501.6 306.334 1511.33 283.637C1519.53 264.506 1525.37 244.822 1524.99 225.169C1524.73 211.389 1521.8 197.748 1517.8 184.14C1515.99 177.965 1513.03 172.726 1509.36 166.917C1507.1 163.338 1504.47 159.719 1502.95 156.071C1500.87 151.076 1496.99 146.321 1495.48 141.256C1493.88 135.911 1493.26 132.568 1482.6 130.135C1482.33 130.075 1482.06 130.019 1481.8 129.967Z" fill="#2D4347"/>
            <path d="M908.979 252.713C915.596 250.282 923.662 248.891 930.283 246.372C937.842 243.495 946.541 241.379 955.842 240.612C960.162 240.256 964.455 240.703 968.762 240.445C974.307 240.113 978.007 239.043 982.952 237.634C993.368 234.665 1006.76 230.083 1018.91 230.136C1024.19 230.16 1023.47 230.077 1026.72 228.069C1028.51 226.966 1031.71 225.533 1034.14 225.083C1037.85 228.882 1049.28 230.141 1056.45 231.206C1066.68 232.724 1078.58 232.53 1087.95 235.445C1095.47 237.787 1101.01 240.283 1110.22 240.579C1117.95 240.828 1125.92 240.362 1133.66 240.407C1148.1 240.489 1161.42 243.233 1175.43 244.907C1192.53 246.95 1206.08 240.268 1220.04 235.981C1229.64 233.034 1239.48 231.574 1250.17 230.172C1261.63 228.67 1271.88 225.259 1283.54 223.905C1299.89 222.006 1316.19 220.064 1332.64 218.386C1349.43 216.673 1366.23 217.028 1383.06 215.694C1391.38 215.035 1399.79 214.687 1407.89 213.464C1419.47 211.717 1429.37 207.797 1440.61 205.967C1447.9 204.779 1453.92 205.617 1461.18 206.171C1470.88 206.911 1482.69 206.886 1492.03 205.356C1506.3 203.018 1520.33 199.28 1532.66 194.96C1546.08 190.262 1559.66 185.046 1575.64 183.146C1585.95 181.92 1592.29 183.006 1599.62 186.821C1608.58 191.489 1616.4 199.503 1621.34 205.385C1637.46 224.603 1638.28 246.326 1629.16 266.574C1616.26 295.231 1558.64 311.271 1508.95 319.382C1472.43 325.342 1434.24 329.199 1396.12 330.648C1341.22 332.734 1284.17 332.077 1229.39 329.327C1187.81 327.239 1145.57 325.29 1104.73 320.564C1074.43 317.057 1044.47 312.051 1015.14 306.764C991.85 302.567 969.094 298.556 948.127 291.66C936.721 287.909 926.848 283.065 915.159 279.539C910.724 278.201 906.143 277.154 901.416 276.151C897.226 275.262 892.575 274.847 890.105 272.587C886.381 269.154 889.568 262.945 894.66 260.153C896.007 259.415 897.818 259.242 899.255 258.635C901.086 257.862 901.183 257.443 902.255 256.405C903.795 254.912 904.536 254.513 907.332 253.357C907.867 253.133 908.418 252.92 908.979 252.713Z" fill="#37484B"/>
            <path d="M396.47 193.694C399.108 193.884 401.772 194.005 404.41 194.114C410.063 194.35 409.352 193.36 413.515 192.625C422.188 191.094 433.781 191.51 442.817 191.551C467.473 191.659 490.458 188.271 514.608 186.809C521.999 186.361 531.989 186.112 539.195 187.153C544.878 187.974 549.518 189.483 555.474 189.911C560.829 190.296 566.451 190.093 571.842 190.016C581.356 189.881 590.603 189.074 600.016 188.247C604.613 187.844 609.124 186.965 613.798 186.804C620.49 186.574 626.856 187.346 633.524 186.55C640.6 185.706 644.881 184.655 651.875 186.858C655.313 187.941 658.129 189.853 660.56 191.772C663.581 194.154 665.234 196.859 668.17 199.26C671.711 202.152 676.564 204.381 680.691 207.042C686.446 210.752 691.86 214.916 699.121 217.916C704.695 220.219 711.538 220.852 717.93 222.336C731.241 225.425 743.673 230.174 758.272 231.534C768.84 232.517 779.263 231.7 789.608 230.616C804.787 229.026 817.125 230.027 832.324 231.395C856.735 233.592 881.509 234.285 905.79 236.851C918.281 238.172 931.103 238.416 943.681 239.451C954.418 240.334 961.392 244.676 968.647 248.731C984.024 257.324 996.014 266.13 1016.11 272.06C1036.15 277.974 1054.37 285.389 1073.44 292.089C1089.29 297.655 1105.11 301.891 1123.31 304.845C1160.68 310.909 1197.14 317.729 1234.01 324.58C1270.43 331.347 1306.98 337.866 1342.8 345.482C1386.48 354.773 1430.07 366.287 1457.47 387.406C1468.89 396.203 1481.78 407.403 1460.83 415.078C1449.5 419.229 1435.34 420.479 1422.09 422.112C1402.2 424.563 1382.14 426.9 1361.97 428.56C1330.89 431.118 1299.74 431.7 1268.38 432.489C1227.38 433.52 1186.4 434.629 1145.36 435.085C1059.48 436.04 974.259 433.226 888.651 429.979C804.351 426.782 721.48 422.454 640.169 409.953C577.339 400.293 517.629 387.206 467.785 364.504C432.573 348.466 404.659 330.591 385.054 308.334C369.326 290.479 362.266 272.688 355.426 253.541C351.597 242.826 347.8 233.137 351.789 222.268C354.204 215.688 356.745 208.483 361.471 202.27C364.415 198.399 374.827 190.752 385.244 191.418C387.777 191.58 388.415 192.856 390.931 193.167C392.759 193.391 394.61 193.56 396.47 193.694Z" fill="#3F4B4D"/>
            <path d="M-61.9232 63.0084C-59.9169 64.0383 -58.0035 65.1343 -55.7465 65.9836C-50.9954 67.771 -48.0038 67.7163 -44.5758 70.2251C-35.8319 76.6266 -30.8795 84.5287 -23.046 91.2573C-13.7532 99.2378 -0.355081 108.571 15.2942 113.501C26.1351 116.916 42.3787 116.636 54.8448 117.407C69.2598 118.299 83.8941 120.363 97.9359 122.295C109.389 123.871 120.052 122.917 131.642 123.366C141.448 123.746 151.426 125.408 160.799 126.949C172.156 128.815 183.459 128.808 194.949 129.954C203.034 130.76 211.27 130.594 219.139 131.471C227.974 132.457 233.534 135.184 242.855 133.95C252.681 132.648 260.2 130.692 270.8 131.11C282.117 131.557 290.328 134.993 299.425 138.25C313.678 143.354 327.086 148.853 340.786 154.368C359.682 161.975 375.317 170.855 395.504 177.654C412.508 183.381 432.486 190.248 451.887 193.184C468.33 195.672 485.273 196.192 502.055 197.707C519.429 199.276 537.58 200.491 554.041 203.944C563.663 205.963 575.847 204.307 583.753 208.483C589.18 211.349 589.983 216.137 595.331 219.129C603.944 223.95 620.707 224.315 632.318 225.858C648.528 228.013 661.922 233.03 672.748 239.443C684.059 246.144 695.589 255.311 709.753 260.367C721.81 264.67 738.16 265.306 752.188 266.646C770.505 268.394 788.87 268.386 807.201 269.698C825.587 271.015 845.16 268.964 862.89 271.956C880.086 274.859 889.378 280.102 901.957 286.701C910.261 291.057 918.22 295.768 927.249 299.729C939.288 305.009 952.775 309.361 964.925 314.602C1001.52 330.388 1044.94 339.486 1087.7 349.698C1127.58 359.223 1171.61 369.999 1193.46 391.129C1203.88 401.204 1203.03 411.929 1185.3 418.899C1160.3 428.723 1120.19 429.758 1090.2 430.971C1037.17 433.114 981.613 432.644 928.909 429.707C877.868 426.863 827.338 421.805 776.726 417.381C734.869 413.722 693.318 410.299 650.841 409.607C604.468 408.85 557.966 408.554 511.8 405.991C467.611 403.538 423.487 399.152 381.871 390.797C338.172 382.025 295.642 370.408 253.846 359.447C175.649 338.939 91.0384 321.371 23.1494 291.87C-23.6581 271.53 -64.5653 246.409 -91.6104 217.783C-109.513 198.833 -118.318 178.166 -124.552 157.365C-127.308 148.167 -127.875 139.464 -125.8 130.232C-123.649 120.665 -123.979 111.391 -120.227 101.894C-116.531 92.5452 -114.321 82.3594 -105.072 74.0043C-98.0359 67.6534 -82.8033 55.8731 -66.7592 60.9433C-64.9721 61.5068 -63.422 62.2395 -61.9232 63.0084Z" fill="#444C4D"/>
            <path d="M980.406 383.093C975.405 379.657 967.812 379.038 957.579 376.973C942.181 373.866 925.4 369.87 911.728 364.978C904.704 362.466 898.557 359.286 890.763 357.431C886.377 356.388 881.385 355.72 876.829 354.852C870.384 353.623 865.046 351.938 859.197 350.019C849.859 346.954 840.776 345.031 830.036 343.583C817.435 341.884 805.09 341.475 792.503 340.264C786.782 339.714 781.03 340.524 775.31 340.206C766.406 339.712 757.944 337.594 750.204 335.45C744.13 333.767 737.345 332.924 730.477 332.497C723.566 332.068 719.486 333.304 713.197 333.671C696.137 334.663 679.686 326.633 667.773 321.437C640.442 309.516 616.197 295.234 590.988 282.07C581.18 276.948 571.522 273.389 560.652 269.008C547.791 263.824 537.206 255.612 522.074 252.14C510.649 249.518 497.286 250.294 485.136 250.347C477.311 250.381 472.485 250.303 465.226 248.84C458.437 247.472 451.77 246.255 444.561 245.708C427.764 244.436 409.388 241.863 394.051 238.04C371.034 232.304 352 223.724 330.609 216.688C315.155 211.605 299.423 205.673 282.881 201.687C268.105 198.128 254.944 193.738 240.384 189.942C222.431 185.262 203.531 182.749 184.72 179.307C159.143 174.628 133.636 168.138 109.002 162.2C90.4814 157.735 71.9551 152.828 54.7044 147.134C35.6588 140.848 18.8287 131.715 2.97802 123.429C-14.9085 114.076 -31.0119 104.362 -47.3898 94.2921C-56.6293 88.6099 -71.3603 76.5613 -86.2414 74.166C-90.0209 75.3745 -88.7946 78.8131 -88.8578 80.7172C-89.0572 86.7564 -88.4846 92.8101 -88.5695 98.8535C-88.8874 121.228 -91.5591 143.885 -93.834 166.222C-96.5314 192.709 -99.3847 219.206 -101.504 245.707C-103.52 270.935 -102.191 296.447 -90.009 321.005C-78.7396 343.722 -55.0081 364.73 -24.7186 381.894C10.5094 401.856 57.4907 415.827 103.08 428.284C156.386 442.851 215.843 452.036 274.039 459.549C349.416 469.279 428.049 475.323 505.341 478.638C624.534 483.749 743.638 484.667 862.533 477.074C883.456 475.738 903.791 473.666 923.678 469.874C937.268 467.284 951.62 464.783 962.996 460.019C976.179 454.498 983.362 445.352 987.703 436.979C990.85 430.909 991.318 425.414 992.634 419.251C993.787 413.84 996.429 409.134 995.092 403.62C994.126 399.641 988.973 397.351 986.534 393.922C985.574 392.573 985.995 390.749 985.383 389.314C984.184 386.516 982.529 384.551 980.406 383.093Z" fill="#484B4B"/>
            <path d="M915.21 398.967C914.249 397.527 913.078 396.147 910.353 395.435C904.725 393.965 897.156 395.594 892.974 392.58C889.143 389.819 889.425 387.892 882.587 386.361C865.782 382.596 847.077 381.098 829.551 378.494C815.981 376.477 805.354 375.536 791.253 375.628C779.464 375.704 767.93 375.588 756.195 374.895C736.971 373.761 718.921 371.884 700.173 369.476C678.995 366.757 658.014 363.21 640.447 356.196C636.895 354.778 633.542 353.268 630.193 351.757C625.008 349.417 618.772 346.863 611.935 346.086C601.499 344.9 590.84 345.916 580.428 346.519C574 346.892 566.875 347.356 560.679 346.232C555.531 345.299 552.743 343.115 548.509 341.543C543.853 339.814 537.498 338.313 531.724 338.367C525.218 338.427 519.92 339.987 513.32 338.877C508.463 338.061 505.862 336.003 501.447 334.936C497.162 333.9 491.461 333.434 486.767 333.311C481.967 333.185 477.435 333.434 472.982 332.31C465.889 330.521 459.139 326.738 453.725 323.823C447.937 320.705 442.866 318.369 435.467 316.288C428.998 314.469 422.614 312.642 416.615 310.395C410.626 308.153 405.184 305.818 400.729 302.764C398.318 301.11 396.624 299.256 393.78 297.782C390.468 296.065 386.462 294.792 383.036 293.116C378.435 290.866 374.371 288.385 370.159 285.944C368.026 284.708 365.57 283.294 364.361 281.722C363.931 281.164 363.759 280.624 363.153 280.095C362.11 279.183 359.682 277.454 357.612 277.134C354.587 278.824 351.98 280.425 348.179 281.749C344.046 283.189 338.284 284.642 333.229 284.792C329.388 284.906 325.741 284.296 321.92 284.253C311.278 284.132 300.69 286.764 291.212 288.972C286.107 290.161 281.803 291.442 276.1 291.564C271.133 291.672 266.394 290.993 261.469 290.961C256.659 290.93 251.843 291.632 247.074 291.931C240.716 292.329 234.399 292.87 228.036 293.241C224.211 293.464 220.491 293.767 216.66 293.513C212.762 293.255 209.151 292.401 205.347 292.121C203.085 291.953 200.585 292.379 198.363 292.575C196.898 292.704 194.969 293.264 193.468 293.128C191.898 292.984 189.817 291.792 188.308 293.001C188.456 292.882 180.769 291.871 180.247 291.718C177.868 291.026 177.287 289.528 174.468 289.085C169.719 288.34 164.804 289.148 160.1 287.937C149.968 285.326 142.739 281.02 137.482 275.912C133.872 272.403 130.656 268.663 125.354 265.736C119.465 262.487 112.617 260.767 104.203 260.204C96.2709 259.673 86.9781 261.042 79.269 259.979C72.8257 259.09 66.9253 255.526 62.3797 253.277C53.3693 248.821 44.3964 245.904 32.4477 244.059C21.1723 242.319 10.8468 239.938 0.477824 237.095C-12.4878 233.541 -26.3204 230.906 -39.055 227.115C-61.8624 220.324 -81.3464 211.442 -103.589 204.294C-110.568 202.052 -117.11 199.445 -124.145 197.25C-126.246 196.595 -133.045 194.256 -136.292 194.816C-141.422 195.702 -142.322 201.591 -143.183 203.699C-148.637 217.053 -147.626 230.954 -149.342 244.525C-151.299 260.001 -153.011 275.432 -151.899 290.945C-150.908 304.795 -146.147 317.609 -129.817 328.896C-111.64 341.459 -90.3608 353.349 -67.9167 363.781C-42.0387 375.807 -17.93 389.208 11.6386 398.764C25.5837 403.271 39.4459 406.956 55.3163 409.214C67.8791 411.002 80.3274 411.854 93.2536 412.677C127.145 414.834 161.091 416.588 194.953 418.928C229.075 421.286 262.522 424.528 295.627 429.463C330.652 434.685 363.232 442.675 399.903 444.281C428.333 445.525 457.303 444.546 485.568 442.637C511.15 440.909 537.33 438.669 563.228 439.812C577.013 440.421 590.56 441.616 604.445 441.039C616.86 440.523 627.873 437.711 640.088 436.687C656.195 435.336 672.998 435.672 689.222 435.061C707.221 434.383 724.489 432.088 742.182 430.395C759.705 428.718 776.857 428.792 794.489 428.006C806.552 427.468 817.603 426.652 828.987 429.472C842.578 432.838 857.398 440.668 872.8 435.983C884.494 432.427 895.738 427.67 904.553 422.294C909.831 419.075 917.483 417.267 919.8 412.873C922.317 408.092 921.142 405.507 917.282 401.775C916.411 400.934 915.858 399.937 915.21 398.967Z" fill="#484848"/>
            <path d="M881.478 390.637C878.087 389.655 873.968 389.256 870.191 389.324C864.377 389.429 858.801 390.252 852.898 390.21C845.673 390.158 838.365 388.616 831.165 389.296C825.745 389.808 821.288 390.536 815.666 389.886C812.183 389.483 809.006 388.038 805.495 387.928C801.964 387.818 798.336 389.043 794.579 389.087C790.726 389.132 786.834 389.077 782.979 389.053C775.359 389.006 769.317 391.106 761.696 391.127C758.201 391.136 755.16 391.194 751.969 392.149C749.681 392.833 747.747 394.355 744.714 394.326C742.062 394.301 739.683 393.239 736.824 393.167C734.047 393.098 731.64 393.355 728.925 392.965C724.484 392.328 725.181 392.375 720.625 392.965C715.513 393.628 709.389 393.2 704.186 393.181C693.491 393.142 682.619 396.812 672.572 395.82C667.744 395.343 662.973 394.815 657.93 395.335C654.006 395.74 650.422 397.248 646.396 397.421C640.537 397.675 633.92 396.36 627.988 396.262C625.468 396.221 622.763 396.483 620.273 396.31C617.512 396.119 616.934 395.508 614.497 395.2C611.468 394.819 607.258 395.313 604.12 395.278C599.337 395.223 595.39 394.595 590.789 393.916C584.13 392.932 579.496 394.301 572.964 394.329C566.033 394.359 558.861 392.909 552.036 392.365C545.778 391.865 539.465 392.294 533.166 392.197C527.793 392.115 522.953 391.217 517.634 391.078C512.178 390.935 507.387 392.014 502.079 391.992C496.582 391.97 491.434 390.524 485.97 390.162C480.46 389.797 476.916 390.901 471.677 391.18C463.885 391.594 456.759 390.068 449.004 390.098C436.779 390.146 425.089 389.866 413.024 388.805C399.26 387.596 385.325 386.898 371.556 385.787C363.353 385.124 355.65 383.017 347.769 381.741C339.89 380.466 332.262 381.273 324.27 381.965C318.279 382.484 314.395 383.151 308.317 382.413C303.406 381.816 298.896 380.699 294.058 380.007C281.718 378.243 268.79 379.51 256.932 376.707C251.608 375.449 248.781 374.966 243.155 374.647C238.759 374.397 234.109 373.981 229.773 373.632C224.717 373.225 222.016 371.547 217.541 370.409C213.262 369.321 209.185 369.485 204.633 369.466C198.211 369.438 193.47 367.414 186.8 367.38C183.945 367.365 180.858 367.616 178.062 367.339C173.473 366.882 168.625 365.155 164.168 364.274C155.381 362.536 145.867 363.566 137.064 361.248C124.389 357.909 111.484 355.833 98.5185 352.938C92.5668 351.61 86.5303 350.544 81.1848 348.584C76.0152 346.688 71.8072 344.99 65.974 343.66C61.1341 342.558 55.5458 340.32 50.0286 340.427C42.7124 340.568 42.7223 342.513 35.809 339.504C31.05 337.433 27.5391 334.428 22.0633 332.812C16.2302 331.09 12.5336 332.278 6.28575 332.379C-10.0763 332.641 -23.4922 325.898 -39.2323 324.255C-50.6557 323.063 -62.9698 321.867 -74.6144 321.821C-80.7003 321.797 -89.0808 321.622 -94.5052 323.108C-103.52 325.577 -106.166 329.512 -108.569 334.49C-117.257 352.491 -119.159 370.577 -119.959 389.081C-121.031 413.875 -116.39 438.731 -111.319 463.358C-101.926 508.99 -76.2612 563.894 16.4 581.371C66.515 590.823 119.863 591.51 172.58 591.2C243.797 590.78 315.781 587.038 386.597 583.178C422.461 581.224 458.265 579.059 494.139 577.156C540.769 574.682 587.466 572.238 633.454 567.331C692.206 561.062 749.331 553.335 802.333 538.399C822.125 532.821 840.403 527.026 856.135 518.544C873.478 509.193 886.736 498.424 896.442 486.438C910.794 468.717 913.748 448.334 912.776 429.339C912.283 419.684 912.914 406.207 895.235 400.381C889.783 398.584 889.686 395.347 886.251 392.818C885.003 391.9 883.352 391.18 881.478 390.637Z" fill="#5B5B5B"/>
            <path d="M1445.9 265.225C1444.38 265.238 1442.57 265.371 1440.43 265.651C1427.24 267.374 1416.03 271.18 1403.2 273.304C1395.11 274.645 1385.93 274.939 1378.15 276.536C1371.27 277.946 1367.35 280.48 1361.64 282.423C1358.78 283.4 1355.73 284.136 1351.88 284.303C1343.6 284.661 1335.33 282.526 1327.37 283.128C1322.7 283.48 1320.14 284.941 1317.09 286.175C1311.83 288.301 1306.02 289.328 1299.12 290.433C1291.59 291.637 1282.61 289.882 1275.55 291.549C1270.57 292.723 1272.34 294.771 1265.31 294.25C1262.47 294.04 1260.32 292.762 1257.52 292.527C1252.37 292.096 1248.81 293.718 1244.35 294.226C1237.72 294.981 1230.02 294.163 1223.25 294.378C1219.52 294.497 1214.25 294.942 1210.74 295.438C1207.42 295.908 1205.48 296.868 1202.42 297.346C1199.02 297.876 1195.91 297.252 1192.45 297.468C1189.07 297.679 1186.97 298.197 1184 298.81C1175.98 300.464 1168.02 300.733 1159.76 301.821C1152.32 302.801 1147.05 305.542 1140.1 306.865C1133.87 308.052 1127.45 307.74 1121.1 308.828C1115.88 309.721 1110.41 311.023 1105.31 312.2C1099.51 313.54 1096.68 316.062 1089.78 316.882C1086.23 317.305 1082.15 316.615 1078.89 317.038C1076.53 317.345 1076.26 317.966 1074.07 318.407C1070.62 319.102 1066.92 319.647 1063.51 320.21C1055.28 321.57 1046.43 322.328 1037.94 323.472C1027.9 324.826 1020.39 327.912 1011.02 329.474C1005.13 330.454 1000.75 330.962 995.292 332.311C989.575 333.722 982.85 334.32 976.945 335.657C971.818 336.818 966.852 337.236 961.159 337.689C957.269 337.999 954.761 338.545 950.796 338.743C948.306 338.867 945.142 338.405 942.736 338.67C940.275 338.94 940.008 339.576 937.816 340.028C933.586 340.901 932.077 340.852 927.207 340.581C918.141 340.077 919.045 339.223 911.429 341.51C903.893 343.774 900.732 345.712 891.095 345.929C881.694 346.141 878.617 347.895 871.53 350.073C865.632 351.885 861.546 352.539 854.341 352.371C848.827 352.242 850.321 351.673 845.904 353.294C842.508 354.541 841.412 357.5 835.276 357.381C832.786 357.333 832.663 355.954 830.11 356.102C826.451 356.313 828.228 357.261 826.968 358.265C825.807 359.189 824.965 360.688 822.436 361.226C820.067 361.731 816.971 361.256 814.387 361.581C811.216 361.978 805.995 363.656 803.366 364.416C800.019 365.384 797.854 366.501 794.263 367.33C789.042 368.536 783.515 369.235 778.328 370.676C770.056 372.974 760.424 373.848 751.408 375.799C747.091 376.733 743.241 378.227 738.387 378.733C734.686 379.119 731.368 378.54 727.903 378.811C722.582 379.227 719.715 381.343 714.851 382.281C708.573 383.491 703.117 382.513 696.63 382.935C691.747 383.254 689.757 384.367 685.488 385.122C680.036 386.086 676.244 386.162 670.294 386.119C661.016 386.052 652.935 386.053 644.095 386.876C637.894 387.453 631.926 388.463 625.738 387.902C619.51 387.338 618.265 388.003 612.693 389.185C607.302 390.33 602.458 390.254 596.393 390.223C587.752 390.177 583.658 391.129 575.939 392.07C568.488 392.979 561.904 390.832 554.193 391.434C546.663 392.021 541.408 394.434 533.87 395.163C527.598 395.77 523.525 396.02 517.696 397.403C510.491 399.111 504.384 400.065 496.584 401.266C489.612 402.339 483.796 404.394 477.003 405.465C474.141 405.916 471.355 405.801 468.492 406.366C464.456 407.161 463.911 408.116 460.682 409.303C455.021 411.383 447.698 411.391 441.827 413.007C432.355 415.615 427.291 418.482 416.201 420.088C411.122 420.823 405.267 420.965 400.924 422.324C395.978 423.872 393.195 425.174 387.297 426.315C376.014 428.499 363.963 429.344 353.133 432.02C348.793 433.094 345.191 434.647 340.767 435.644C335.738 436.779 329.128 436.921 323.65 437.601C317.16 438.406 310.34 438.816 304.021 439.833C297.291 440.916 291.629 442.743 284.975 443.858C279.636 444.753 274.352 444.765 269.343 446.017C263.029 447.595 257.827 448.884 250.996 450.186C234.062 453.415 218.268 458.247 200.637 460.88C195.102 461.706 189.676 461.57 184.033 461.981C175.858 462.576 169.018 464.205 162.347 466.11C149.077 469.898 140.25 475.036 123.242 476.527C108.057 477.859 97.2267 479.591 84.5098 483.175C78.8721 484.763 73.2999 486.373 67.4761 487.861C60.3602 489.681 52.1461 490.45 45.2031 492.366C30.5362 496.411 17.3369 500.746 1.78933 504.374C-18.075 509.01 -39.0297 512.644 -57.8535 517.985C-62.4507 519.29 -90.6549 524.772 -73.519 526.269C-64.1805 527.085 -50.6432 525.715 -41.6978 525.219C-12.7964 523.617 16.2938 521.862 45.4416 521.141C115.796 519.4 186.093 525.084 254.902 530.009C295.396 532.908 336.233 535.733 377.194 537.399C435.285 539.761 494.01 540.133 552.282 541.576C660.78 544.262 768.3 550.496 876.612 553.826C1002.94 557.71 1129.86 556.963 1256.31 560.145C1283.29 560.823 1310.33 561.445 1337.26 562.43C1373.48 563.755 1409.12 567.385 1445.32 568.449C1465.48 569.042 1486.12 568.456 1502.02 562.791C1513.86 557.664 1521.45 551.67 1524.79 544.808C1531.16 536.047 1535.46 527.13 1537.68 518.057C1542.14 502.213 1543.23 486.087 1545.83 470.179C1548.42 454.267 1550.99 438.316 1553.15 422.396C1554.7 410.95 1554.51 399.466 1550.73 388.086C1546.15 374.33 1539.65 359.586 1529.66 346.258C1519.72 332.995 1503.54 320.635 1493.04 307.398C1488.35 301.493 1485.93 295.288 1482.16 289.277C1480.25 286.233 1477.99 283.12 1473.57 280.474C1469.03 277.761 1459.27 276.283 1456.87 273.183C1454.17 269.713 1455.32 265.153 1445.9 265.225Z" fill="#707070"/>
        </g>
    </g>
    <defs>
        <clipPath id="clip0_481_345">
            <rect width="1481" height="516" fill="white"/>
        </clipPath>
    </defs>
</svg>