<svg width="256" height="256" viewBox="0 0 256 256" fill="none" xmlns="http://www.w3.org/2000/svg">
    <g filter="url(#filter0_d_5_344)">
        <circle cx="128" cy="124" r="100" fill="#D9D9D9" fill-opacity="0.5" shape-rendering="crispEdges"/>
        <circle cx="128" cy="124" r="103.5" stroke="url(#paint0_linear_5_344)" stroke-width="7" stroke-dasharray="20 20" shape-rendering="crispEdges"/>
    </g>
    <g clip-path="url(#clip0_5_344)">
        <path d="M163.987 70.3922C161.676 68.7057 103.256 68.1033 101.569 70.2544C99.8827 72.4056 111.613 186.541 113.624 188.918C115.635 191.295 179.457 183.557 180.594 180.885C181.73 178.214 166.297 72.0785 163.987 70.3922Z" fill="#14080E"/>
        <path d="M122.966 189.427C125.516 189.274 128.534 189.04 131.892 188.731C141.784 187.824 153.966 186.347 163.685 184.878C180.253 182.374 180.696 181.333 180.842 180.991C180.95 180.737 181.278 179.966 179.071 162.697C177.776 152.565 175.873 138.909 173.849 125.23C171.724 110.858 169.64 97.6169 167.982 87.947C165.047 70.8322 164.392 70.3542 164.146 70.1743C162.652 69.0844 142.823 68.6774 132.546 68.6145C124.557 68.5655 117.153 68.6534 111.699 68.8617C102.029 69.2312 101.541 69.8535 101.357 70.0879C101.176 70.3188 100.695 70.9323 102.19 89.3905C103.05 100.005 104.382 114.26 105.942 129.529C107.488 144.663 109.067 158.933 110.388 169.709C112.651 188.185 113.229 188.867 113.418 189.092C113.588 189.293 113.987 189.764 119.29 189.6C120.367 189.567 121.6 189.509 122.966 189.427ZM163.823 70.6063C164.061 70.8543 164.893 73.0899 167.5 88.3256C169.157 98.011 171.233 111.217 173.346 125.51C177.745 155.271 180.82 179.549 180.346 180.78C180.252 180.952 179.093 181.928 165.524 184.05C157.236 185.346 146.556 186.709 136.956 187.696C130.521 188.357 124.997 188.806 120.98 188.994C114.628 189.292 113.91 188.837 113.83 188.743C112.983 187.655 109.833 162.277 106.503 129.712C104.951 114.535 103.62 100.321 102.755 89.6881C101.421 73.2851 101.63 70.7386 101.786 70.4159C101.94 70.2542 103.126 69.7263 111.794 69.3978C117.249 69.1912 124.641 69.1046 132.608 69.1538C149.11 69.2571 162.805 69.8942 163.823 70.6063Z" fill="#14080E"/>
    </g>
    <g clip-path="url(#clip1_5_344)">
        <path d="M158.096 66.2629C155.779 64.5777 97.3591 64.0358 95.6747 66.1805C93.9903 68.3252 105.826 182.457 107.839 184.831C109.852 187.204 173.664 179.411 174.797 176.738C175.931 174.065 160.413 67.9481 158.096 66.2629Z" fill="#090C9B"/>
        <path d="M117.193 185.341C119.743 185.186 122.765 184.948 126.116 184.636C136.009 183.721 148.19 182.234 157.909 180.757C174.478 178.236 174.922 177.194 175.064 176.85C175.167 176.595 175.498 175.83 173.27 158.557C171.963 148.426 170.052 134.776 168.011 121.101C165.872 106.72 163.781 93.4804 162.113 83.8137C159.16 66.7045 158.505 66.2257 158.256 66.0464C156.764 64.9593 136.94 64.5767 126.653 64.5217C118.667 64.4779 111.262 64.5717 105.809 64.7846C96.1425 65.1672 95.6512 65.7914 95.4706 66.0185C95.2899 66.2456 94.8087 66.8584 96.3205 85.3195C97.1928 95.9314 98.5353 110.189 100.112 125.458C101.67 140.588 103.262 154.863 104.597 165.63C106.876 184.099 107.458 184.787 107.645 185.014C107.82 185.219 108.215 185.681 113.52 185.521C114.598 185.477 115.826 185.424 117.193 185.341ZM157.937 66.4764C158.178 66.721 159.006 68.9615 161.628 84.189C163.298 93.8772 165.386 107.073 167.508 121.37C171.944 151.128 175.04 175.404 174.564 176.632C174.466 176.8 173.316 177.778 159.749 179.921C151.456 181.225 140.781 182.599 131.184 183.593C124.754 184.265 119.228 184.709 115.211 184.91C108.856 185.21 108.137 184.757 108.056 184.665C107.212 183.581 104.037 158.198 100.674 125.64C99.1032 110.467 97.7633 96.2533 96.8896 85.6198C95.5359 69.2238 95.7479 66.6716 95.9011 66.3489C96.0534 66.1884 97.2421 65.6622 105.906 65.3189C111.359 65.1061 118.754 65.0129 126.718 65.058C143.218 65.1457 156.921 65.771 157.937 66.4764Z" fill="#090C9B"/>
        <path d="M156.508 68.7467C154.034 67.1359 100.906 66.4017 99.3251 68.1187C97.7443 69.8357 107.881 181.618 109.826 183.045C111.297 184.133 170.911 176.779 171.779 174.717C172.761 172.388 158.983 70.3574 156.508 68.7467Z" fill="#FAF5E7"/>
        <path d="M113.214 183.336C114.463 183.261 116.172 183.124 118.514 182.906C123.433 182.445 129.989 181.711 136.968 180.844C149.138 179.336 165.149 177.066 170.27 175.652C171.736 175.249 171.948 175.01 172.023 174.821C172.118 174.599 172.411 173.912 170.411 157.371C169.212 147.427 167.497 134.327 165.697 121.427C163.757 107.466 161.849 94.7447 160.343 85.6084C157.623 69.1441 156.949 68.7097 156.657 68.5222C155.116 67.5246 137.662 67.041 127.587 66.919C120.355 66.8295 113.605 66.8618 108.568 66.9953C99.7577 67.2394 99.3123 67.7312 99.1196 67.9374C98.9275 68.1544 98.4 68.7159 100.09 91.3479C101.068 104.417 102.526 121.271 104.091 137.601C105.301 150.202 106.427 161.079 107.366 169.062C108.977 182.751 109.441 183.101 109.666 183.261C109.791 183.35 110.029 183.53 113.214 183.336ZM171.535 174.603C171.383 174.774 170.19 175.397 161.624 176.826C156.266 177.714 148.92 178.777 140.934 179.803C124.9 181.869 111.1 183.217 109.997 182.83C109.781 182.486 109.118 179.933 107.372 164.361C106.229 154.089 104.853 140.353 103.518 125.685C102.187 111.092 101.048 97.3299 100.308 86.9476C99.1895 71.218 99.3794 68.6563 99.5199 68.302C99.6956 68.1725 100.912 67.7527 108.72 67.5371C113.768 67.403 120.506 67.3713 127.696 67.4635C142.982 67.6575 155.293 68.3026 156.36 68.9725C156.612 69.2057 157.444 71.3486 159.856 85.9622C161.363 95.0984 163.257 107.766 165.191 121.631C169.02 149.06 171.917 173.25 171.535 174.603Z" fill="#FAF5E7"/>
        <path d="M128.974 73.3447C127.747 73.3333 126.761 72.426 126.771 71.3181C126.782 70.2103 127.784 69.3215 129.011 69.3329C130.238 69.3443 131.224 70.2516 131.213 71.3594C131.203 72.4673 130.2 73.3561 128.974 73.3447Z" fill="#14080E"/>
        <path d="M129.194 73.6275C129.775 73.5922 130.324 73.3751 130.754 72.9924C131.658 72.2242 131.76 70.8781 131.003 69.9841C130.934 69.9019 130.864 69.8304 130.784 69.7597C130.304 69.3242 129.685 69.0918 129.037 69.088C127.664 69.0742 126.537 70.0828 126.527 71.3369C126.521 71.9532 126.784 72.5423 127.252 72.9568C127.732 73.3923 128.351 73.6248 129 73.6285C129.064 73.6246 129.13 73.6315 129.194 73.6275ZM128.875 69.6273L129.026 69.6181C129.534 69.6196 130.031 69.8055 130.409 70.1499C131.07 70.7256 131.142 71.7369 130.567 72.3986C130.517 72.4665 130.456 72.5243 130.383 72.5719C129.582 73.2581 128.404 73.2434 127.605 72.5464C127.251 72.2329 127.052 71.7912 127.056 71.3264C127.077 70.4282 127.874 69.6882 128.875 69.6273Z" fill="#14080E"/>
        <path d="M99.6258 80.7002L104.264 67.4406C104.77 67.4099 105.319 67.3873 105.89 67.3633L99.9371 85.2844C99.8167 83.6601 99.7129 82.132 99.6258 80.7002Z" fill="white"/>
        <path d="M99.9426 85.5526C100.05 85.5461 100.143 85.4756 100.18 85.3653L106.144 67.4436C106.189 67.3004 106.115 67.1536 105.971 67.0975C105.938 67.0887 105.905 67.0799 105.873 67.0819C105.302 67.1058 104.753 67.1284 104.247 67.1592C104.139 67.1657 104.046 67.2362 104.009 67.3357L99.371 80.5952C99.3622 80.6282 99.3534 80.6611 99.356 80.7042C99.4418 82.1145 99.5462 83.6533 99.6565 85.2891C99.6644 85.4182 99.7678 85.52 99.8875 85.5343C99.9103 85.5546 99.9318 85.5533 99.9426 85.5526ZM105.508 67.6444L100.101 83.9005C100.023 82.7923 99.9583 81.7265 99.8981 80.7361L104.452 67.6978C104.786 67.6775 105.142 67.6666 105.508 67.6444ZM115.027 67.1518L100.884 98.0081C100.74 96.1692 100.598 94.3733 100.471 92.6413L110.019 67.2295C111.573 67.1998 113.257 67.173 115.027 67.1518Z" fill="white"/>
        <path d="M100.9 98.2778C100.997 98.2719 101.091 98.2122 101.129 98.1235L115.272 67.2671C115.339 67.1334 115.276 66.9751 115.142 66.9076C115.108 66.8881 115.065 66.8799 115.032 66.8819C113.24 66.8937 111.556 66.9204 110.025 66.9596C109.917 66.9661 109.813 67.0265 109.776 67.1368L100.228 92.5486C100.219 92.5815 100.211 92.6252 100.213 92.6683C100.34 94.3895 100.481 96.1854 100.626 98.0351C100.624 98.1758 100.75 98.287 100.9 98.2778ZM114.601 67.4268L101.068 96.9493C100.957 95.4865 100.838 94.0566 100.733 92.68L110.198 67.5001C111.568 67.4708 113.036 67.4464 114.601 67.4268Z" fill="white"/>
    </g>
    <g clip-path="url(#clip2_5_344)">
        <path d="M147.296 79.5966C145.607 78.6674 76.0109 88.2417 75.2407 89.3426C74.4706 90.4435 76.7342 108.797 78.4501 109.624C80.1659 110.452 148.325 98.7457 149.276 97.297C150.228 95.8484 148.984 80.5258 147.296 79.5966Z" fill="#5AC2AF"/>
        <path d="M78.8399 109.933C78.4694 109.933 78.3878 109.894 78.3326 109.867C78.0336 109.723 77.6148 109.267 77.0225 107.001C75.7366 102.079 74.2816 90.2431 75.0196 89.1884C75.1469 89.0064 75.3599 88.7018 86.5451 86.9585C93.073 85.9412 101.718 84.6921 110.887 83.4414C120.221 82.1683 128.927 81.0545 135.402 80.305C146.754 78.9909 147.225 79.2499 147.426 79.3607C147.686 79.5042 148.087 79.9098 148.547 81.7662C149.611 86.0474 150.36 96.1393 149.502 97.4451C149.372 97.642 149.103 98.0517 138.102 100.215C131.831 101.449 123.341 102.999 114.196 104.58C105.192 106.137 96.651 107.536 90.1469 108.518C82.2879 109.705 79.7304 109.933 78.8399 109.933ZM78.5615 109.379C79.5555 109.67 94.7519 107.393 113.948 104.076C133.442 100.707 148.171 97.7933 149.062 97.1314C149.7 96.0434 149.176 86.5346 148.024 81.8959C147.608 80.2223 147.274 79.8978 147.172 79.8364C146.193 79.5008 131.407 81.1893 111.181 83.9453C91.7896 86.5879 76.5202 88.973 75.4476 89.5245C74.9868 90.5519 76.2288 102.45 77.7322 107.541C78.1896 109.091 78.4924 109.341 78.5615 109.379Z" fill="#5AC2AF"/>
        <path d="M89.6283 103.985C93.1625 103.383 95.5601 100.154 94.9833 96.7712C94.4066 93.3888 91.074 91.1348 87.5397 91.7365C84.0055 92.3383 81.6079 95.5681 82.1847 98.9504C82.7614 102.333 86.094 104.587 89.6283 103.985Z" fill="#FAF5E7"/>
        <path d="M88.4769 104.352C87.1088 104.352 85.781 103.952 84.6461 103.185C83.1787 102.192 82.2101 100.704 81.9187 98.9955C81.6274 97.2865 82.0481 95.562 83.1039 94.1399C84.1569 92.7214 85.7162 91.7734 87.4943 91.4706C89.273 91.1684 91.0581 91.5465 92.5218 92.5364C93.9892 93.5288 94.9578 95.0167 95.2492 96.7256C95.8499 100.249 93.3487 103.625 89.6735 104.251C89.2781 104.318 88.8779 104.352 88.4769 104.352ZM88.6903 91.908C88.3239 91.908 87.9545 91.9391 87.5851 92.002C85.9446 92.2813 84.507 93.1546 83.5372 94.4611C82.5699 95.764 82.1841 97.3422 82.4506 98.9049C82.7171 100.468 83.6042 101.829 84.9486 102.738C86.2968 103.65 87.9427 103.999 89.5829 103.719C92.9647 103.143 95.2678 100.046 94.7174 96.8163C94.4509 95.2536 93.5638 93.8922 92.2194 92.9828C91.1748 92.2763 89.9514 91.908 88.6903 91.908Z" fill="#FAF5E7"/>
        <path d="M90.3316 100.383L89.8337 99.2206C90.5911 98.5478 90.8768 97.115 90.6238 95.9287C90.2697 94.2681 88.82 93.1694 87.386 93.4748C85.9519 93.7801 85.0764 95.3739 85.4305 97.0345C85.7121 98.355 86.5112 99.5847 87.6196 99.7711L87.639 100.953C87.639 100.953 85.5562 101.508 85.1811 101.985C85.0425 102.161 84.9195 102.553 84.8411 102.992C86.1814 103.883 87.88 104.284 89.6282 103.986C91.3874 103.687 92.8647 102.736 93.8341 101.44C93.5971 101.064 93.3326 100.737 93.1491 100.619C92.6841 100.319 90.3316 100.383 90.3316 100.383Z" fill="#090C9B"/>
        <path d="M88.4794 104.353C87.1296 104.353 85.8168 103.963 84.6917 103.216C84.648 103.186 84.6137 103.145 84.593 103.097C84.5724 103.049 84.5664 102.995 84.5756 102.944C84.6297 102.641 84.7528 102.093 84.969 101.818C85.3267 101.363 86.7649 100.918 87.366 100.748L87.3534 99.9866C86.1267 99.6415 85.4117 98.2384 85.1668 97.09C84.7824 95.2867 85.7525 93.5465 87.3297 93.2105C88.9076 92.875 90.5031 94.0685 90.8878 95.8719C91.158 97.14 90.8503 98.5332 90.1542 99.2831L90.5079 100.109C91.1543 100.098 92.8407 100.099 93.2952 100.392C93.5953 100.585 93.9317 101.088 94.0623 101.295C94.1219 101.39 94.117 101.511 94.0503 101.6C92.9972 103.009 91.4429 103.95 89.6736 104.251C89.275 104.319 88.8757 104.353 88.4795 104.353L88.4794 104.353ZM85.141 102.864C86.4519 103.682 88.0218 103.985 89.583 103.72C91.1522 103.453 92.5373 102.641 93.5037 101.426C93.2894 101.11 93.1029 100.909 93.0031 100.845C92.7593 100.688 91.4298 100.622 90.3389 100.652C90.2848 100.653 90.2315 100.639 90.186 100.609C90.1405 100.58 90.1048 100.538 90.0836 100.488L89.5858 99.3258C89.5636 99.2738 89.5582 99.2161 89.5706 99.1609C89.5829 99.1057 89.6123 99.0558 89.6546 99.0183C90.3029 98.4425 90.6062 97.1381 90.3602 95.9839C90.0376 94.4715 88.73 93.4628 87.4423 93.7375C86.1561 94.0115 85.372 95.4648 85.6946 96.9774C85.9362 98.1111 86.6391 99.332 87.6645 99.5044C87.7267 99.5149 87.7832 99.5468 87.8243 99.5945C87.8654 99.6423 87.8884 99.7029 87.8895 99.7659L87.909 100.947C87.91 101.008 87.8908 101.066 87.8546 101.114C87.8183 101.162 87.767 101.197 87.7089 101.212C86.8799 101.433 85.6137 101.871 85.3936 102.151C85.3267 102.236 85.2254 102.47 85.1412 102.863L85.141 102.864ZM101.843 92.3256C102.323 91.746 139.379 86.0298 140.067 86.52C140.756 87.0103 140.669 87.6303 140.259 88.3317C139.849 89.033 103.111 94.5575 102.322 94.1184C101.533 93.6794 101.362 92.9053 101.843 92.3256H101.843Z" fill="#090C9B"/>
        <path d="M102.571 94.4097C102.291 94.4097 102.236 94.379 102.191 94.3539C101.717 94.0903 101.41 93.7024 101.327 93.262C101.254 92.8745 101.364 92.4809 101.635 92.1537C101.734 92.0341 101.87 91.8701 107.875 90.8394C111.362 90.241 115.964 89.5007 120.836 88.7552C125.801 87.9952 130.418 87.3263 133.836 86.8715C139.894 86.0655 140.085 86.201 140.224 86.3004C141.307 87.0721 140.693 88.1224 140.491 88.4675C140.394 88.6344 140.283 88.8235 134.315 89.8589C130.951 90.4426 126.39 91.1741 121.473 91.919C116.633 92.6522 112.047 93.3078 108.56 93.7652C104.566 94.2891 103.127 94.4097 102.571 94.4097ZM102.429 93.869C103.156 93.9821 111.224 92.9251 121.296 91.4004C131.482 89.8587 139.3 88.5018 140.053 88.1472C140.477 87.3974 140.321 87.0452 139.944 86.7637C139.171 86.6521 131.393 87.6845 120.911 89.2888C110.801 90.8363 102.748 92.2191 102.024 92.5301C101.874 92.7264 101.816 92.9442 101.857 93.1625C101.909 93.4357 102.111 93.6858 102.429 93.869ZM102.05 92.4975L102.05 92.4982C102.05 92.498 102.05 92.4978 102.05 92.4975ZM103.153 98.0539C103.646 97.6195 122.65 94.2559 123.13 94.6949C123.61 95.1339 123.931 96.1444 123.701 96.5556C123.47 96.9668 103.713 99.9558 103.244 99.5308C102.774 99.1058 102.661 98.4884 103.153 98.0539Z" fill="#090C9B"/>
        <path d="M103.609 99.8388C103.182 99.8388 103.12 99.7821 103.063 99.7305C102.739 99.4374 102.562 99.074 102.564 98.7071C102.566 98.3829 102.709 98.0871 102.975 97.8517C103.419 97.4599 112.111 95.9518 113.101 95.7811C115.7 95.3328 118.093 94.9511 119.838 94.7064C123.05 94.2559 123.184 94.3781 123.312 94.4958C123.847 94.9847 124.245 96.1351 123.936 96.6872C123.849 96.8419 123.76 97.0018 118.311 97.8916C115.24 98.393 111.547 98.9387 108.674 99.3156C105.561 99.7239 104.217 99.8388 103.609 99.8388H103.609ZM103.387 99.2958C103.879 99.3678 107.202 99.0272 113.507 98.0924C119.142 97.2569 122.918 96.5738 123.489 96.3652C123.58 96.0541 123.35 95.2979 122.985 94.9292C122.497 94.8623 119.245 95.2667 113.09 96.33C107.522 97.2921 103.708 98.0803 103.318 98.2688C103.177 98.3985 103.105 98.5471 103.104 98.7105C103.103 98.906 103.205 99.1171 103.388 99.2958H103.387Z" fill="#090C9B"/>
        <path d="M148.104 81.1626C147.853 80.3216 147.58 79.7535 147.295 79.5966C145.607 78.6674 76.0108 88.2417 75.2407 89.3426C75.0371 89.6337 75.0456 91.1313 75.2 93.1919C75.2 93.1919 76.6601 91.3448 77.2806 90.9879C77.9011 90.631 148.104 81.1626 148.104 81.1626Z" fill="#65EB8F"/>
        <path d="M75.1999 93.4615C75.1318 93.4615 75.0663 93.4357 75.0165 93.3895C74.9666 93.3433 74.936 93.2799 74.9309 93.2121C74.6673 89.692 74.9232 89.3261 75.0196 89.1883C75.1469 89.0063 75.3599 88.7018 86.5451 86.9585C93.073 85.9411 101.718 84.6921 110.887 83.4414C120.221 82.1683 128.928 81.0544 135.402 80.305C146.754 78.9909 147.225 79.2499 147.426 79.3607C147.77 79.5501 148.067 80.0982 148.362 81.0857C148.374 81.1231 148.377 81.1623 148.371 81.2009C148.366 81.2395 148.352 81.2764 148.331 81.3091C148.309 81.3418 148.281 81.3695 148.249 81.3904C148.216 81.4113 148.179 81.4247 148.14 81.4299C124.241 84.6532 78.8348 90.8321 77.3961 91.2329C76.9134 91.5289 75.8036 92.8632 75.4116 93.3591C75.3863 93.391 75.3541 93.4168 75.3175 93.4346C75.2808 93.4523 75.2406 93.4615 75.1999 93.4615ZM75.4496 89.5233C75.4051 89.6416 75.2778 90.1947 75.4219 92.4926C75.916 91.9012 76.7 91.0109 77.146 90.7544C77.2756 90.6799 77.5796 90.5051 112.888 85.6746C129.026 83.4668 145.293 81.2702 147.75 80.9386C147.463 80.0794 147.245 79.8807 147.172 79.8365C146.192 79.5009 131.406 81.1895 111.181 83.9454C91.8015 86.5862 76.5391 88.9699 75.4496 89.5233Z" fill="#65EB8F"/>
    </g>
    <g clip-path="url(#clip3_5_344)">
        <path d="M133.318 106.985C134.383 105.244 183.692 97.1194 185.075 98.6168C186.458 100.114 186.452 119.811 185.075 121.094C183.698 122.378 138.546 123.598 136.787 123.598C135.028 123.598 132.254 108.726 133.318 106.985Z" fill="#DE541E"/>
        <path d="M136.787 123.869C136.448 123.869 136.136 123.594 135.805 123.004C134.854 121.307 133.935 117.316 133.436 114.413C133.18 112.923 132.398 107.973 133.088 106.845C133.207 106.649 133.456 106.244 139.023 105.016C142.271 104.3 146.709 103.443 151.858 102.537C162.36 100.688 173.529 99.0402 179.652 98.4353C184.804 97.9265 185.109 98.257 185.273 98.4345C186.35 99.6005 186.38 108.882 186.38 109.937C186.38 111.659 186.324 120.299 185.259 121.293C185.001 121.533 184.315 122.172 161.085 123.098C149.465 123.561 137.746 123.869 136.787 123.869ZM133.545 107.132C133.174 107.758 133.347 110.71 133.968 114.322C134.615 118.088 135.521 121.393 136.276 122.74C136.602 123.322 136.779 123.329 136.787 123.329C137.734 123.329 149.359 123.024 160.92 122.564C181.634 121.741 184.587 121.122 184.896 120.894C185.351 120.469 185.839 116.482 185.84 109.937C185.841 104.115 185.439 99.4467 184.884 98.809C184.14 98.3517 175.043 99.2535 159.05 101.865C152.589 102.92 146.476 104.024 141.84 104.972C134.646 106.443 133.671 106.994 133.545 107.132Z" fill="#DE541E"/>
        <path d="M139.661 116.966C139.93 116.51 160.628 114.36 161.073 114.657C161.518 114.953 161.273 116.892 160.976 117.287C160.68 117.683 140.436 118.87 140.068 118.701C139.699 118.532 139.392 117.423 139.661 116.966Z" fill="#090C9B"/>
        <path d="M140.431 118.985C140.042 118.985 139.996 118.964 139.955 118.946C139.648 118.805 139.478 118.386 139.404 118.149C139.277 117.745 139.217 117.186 139.429 116.828C139.496 116.714 139.612 116.659 139.947 116.582C141.358 116.259 146.708 115.627 151.383 115.144C153.895 114.884 156.235 114.664 157.97 114.525C160.997 114.281 161.112 114.357 161.223 114.431C161.388 114.542 161.495 114.746 161.548 115.056C161.673 115.786 161.483 117.06 161.192 117.449C161.094 117.58 161.016 117.684 157.659 117.967C155.863 118.119 153.344 118.299 150.566 118.475C148.035 118.635 145.446 118.781 143.461 118.876C141.719 118.96 140.864 118.986 140.432 118.986L140.431 118.985ZM140.161 118.442C141.265 118.536 159.414 117.49 160.792 117.075C161.04 116.639 161.144 115.167 160.943 114.902C160.332 114.839 155.773 115.221 150.39 115.79C144.122 116.453 140.421 116.971 139.867 117.16C139.801 117.341 139.82 117.673 139.919 117.988C140.003 118.258 140.108 118.399 140.161 118.443L140.161 118.442ZM138.753 111.279C139.079 110.969 154.872 109.044 155.236 109.56C155.54 109.992 155.521 111.632 155.149 112.056C154.776 112.48 140.037 113.637 139.565 113.422C139.093 113.206 138.427 111.589 138.753 111.279Z" fill="#090C9B"/>
        <path d="M140.052 113.711C139.734 113.711 139.52 113.698 139.453 113.667C138.973 113.449 138.521 112.438 138.421 111.838C138.361 111.48 138.409 111.234 138.567 111.084C138.648 111.006 138.741 110.918 141.087 110.581C142.468 110.383 144.322 110.146 146.173 109.931C147.9 109.73 153.643 109.087 155.01 109.221C155.215 109.242 155.369 109.281 155.457 109.405C155.821 109.923 155.819 111.701 155.351 112.235C155.258 112.341 155.152 112.462 152.654 112.747C151.301 112.902 149.441 113.08 147.416 113.248C146.36 113.336 141.742 113.712 140.052 113.712L140.052 113.711ZM139.662 113.168C140.037 113.225 143.029 113.07 147.312 112.715C152.08 112.319 154.595 111.993 154.968 111.85C155.228 111.484 155.239 110.165 155.045 109.767C153.772 109.473 140.091 111.147 138.941 111.492C138.926 111.578 138.939 111.802 139.062 112.157C139.252 112.701 139.529 113.088 139.662 113.168Z" fill="#090C9B"/>
        <path d="M182.124 111.276C182.236 107.952 179.513 105.163 176.043 105.046C172.574 104.929 169.67 107.53 169.559 110.854C169.447 114.178 172.17 116.968 175.639 117.084C179.109 117.201 182.013 114.6 182.124 111.276Z" fill="#FAF5E7"/>
        <path d="M175.866 117.357C175.788 117.357 175.709 117.355 175.631 117.353C172.018 117.231 169.173 114.312 169.289 110.844C169.406 107.376 172.439 104.657 176.053 104.775C177.801 104.834 179.423 105.542 180.62 106.769C181.821 107.998 182.451 109.602 182.394 111.284C182.338 112.966 181.602 114.524 180.322 115.67C179.102 116.763 177.528 117.357 175.866 117.357H175.866ZM175.821 105.311C172.6 105.311 169.933 107.76 169.829 110.862C169.723 114.032 172.333 116.702 175.649 116.813C177.256 116.865 178.789 116.318 179.961 115.268C181.131 114.221 181.803 112.799 181.855 111.266C181.906 109.732 181.331 108.269 180.234 107.146C179.134 106.019 177.643 105.369 176.035 105.315C175.963 105.312 175.892 105.311 175.821 105.311Z" fill="#FAF5E7"/>
        <path d="M177.009 113.8L176.763 112.599C177.612 112.107 178.162 110.802 178.153 109.627C178.141 107.981 176.98 106.655 175.56 106.666C174.14 106.677 172.999 108.02 173.012 109.666C173.022 110.975 173.54 112.298 174.555 112.691L174.344 113.816C174.344 113.816 172.26 113.938 171.811 114.318C171.645 114.459 171.452 114.807 171.292 115.208C172.39 116.315 173.923 117.027 175.64 117.084C177.367 117.142 178.953 116.527 180.125 115.485C179.974 115.082 179.786 114.72 179.635 114.572C179.253 114.197 177.009 113.8 177.009 113.8Z" fill="#D3A32D"/>
        <path d="M175.865 117.357C175.787 117.357 175.709 117.355 175.631 117.353C173.903 117.295 172.295 116.6 171.101 115.397C171.064 115.36 171.038 115.312 171.028 115.261C171.017 115.209 171.022 115.156 171.042 115.107C171.152 114.829 171.376 114.331 171.637 114.111C172.065 113.748 173.509 113.605 174.117 113.56L174.251 112.847C173.155 112.277 172.75 110.805 172.742 109.666C172.728 107.874 173.991 106.407 175.558 106.395H175.577C176.336 106.395 177.05 106.732 177.587 107.346C178.12 107.954 178.417 108.762 178.423 109.623C178.433 110.88 177.87 112.144 177.064 112.723L177.236 113.565C177.923 113.694 179.452 114.013 179.824 114.378C180.072 114.621 180.294 115.165 180.378 115.388C180.397 115.439 180.401 115.495 180.388 115.548C180.374 115.601 180.346 115.649 180.305 115.685C179.088 116.768 177.519 117.357 175.865 117.357ZM171.612 115.142C172.694 116.17 174.121 116.762 175.649 116.813C177.186 116.865 178.653 116.366 179.804 115.404C179.664 115.067 179.528 114.843 179.447 114.764C179.247 114.568 178.001 114.248 176.962 114.064C176.908 114.055 176.859 114.029 176.82 113.992C176.782 113.954 176.755 113.905 176.744 113.852L176.498 112.651C176.487 112.596 176.493 112.538 176.517 112.487C176.54 112.435 176.579 112.392 176.628 112.364C177.352 111.944 177.892 110.768 177.883 109.627C177.878 108.896 177.629 108.212 177.181 107.701C176.748 107.206 176.178 106.934 175.577 106.934H175.562C174.293 106.944 173.27 108.168 173.282 109.662C173.29 110.783 173.717 112.075 174.653 112.437C174.711 112.46 174.76 112.502 174.791 112.558C174.822 112.613 174.832 112.677 174.821 112.739L174.609 113.865C174.598 113.924 174.567 113.978 174.522 114.017C174.477 114.057 174.419 114.081 174.359 114.084C173.531 114.133 172.247 114.301 171.986 114.523C171.907 114.59 171.767 114.789 171.612 115.142V115.142Z" fill="#D3A32D"/>
        <path d="M135.099 108.489C136.139 107.636 175.87 101.514 185.542 100.033C185.41 99.3096 185.254 98.8106 185.075 98.6167C183.692 97.1194 134.383 105.244 133.318 106.985C133.027 107.462 133.024 108.924 133.208 110.796C133.783 109.946 134.506 108.975 135.099 108.489L135.099 108.489Z" fill="#F06543"/>
        <path d="M133.208 111.066C133.141 111.066 133.076 111.041 133.027 110.996C132.977 110.951 132.946 110.889 132.939 110.823C132.729 108.689 132.779 107.35 133.088 106.845C133.207 106.649 133.456 106.244 139.023 105.016C142.271 104.3 146.709 103.443 151.858 102.537C162.36 100.688 173.529 99.0402 179.653 98.4353C184.804 97.9265 185.109 98.257 185.273 98.4345C185.408 98.5798 185.609 98.8987 185.808 99.9857C185.814 100.021 185.814 100.058 185.806 100.093C185.798 100.128 185.783 100.162 185.762 100.191C185.741 100.22 185.714 100.245 185.684 100.264C185.653 100.283 185.619 100.296 185.583 100.301C163.067 103.747 136.392 108.013 135.265 108.703C134.801 109.085 134.167 109.861 133.432 110.948C133.407 110.984 133.374 111.014 133.335 111.035C133.296 111.055 133.252 111.066 133.208 111.066H133.208ZM183.843 98.6955C180.957 98.6955 172.41 99.6836 159.05 101.865C152.588 102.92 146.476 104.024 141.84 104.972C134.599 106.452 133.658 107.002 133.543 107.135C133.469 107.256 133.247 107.829 133.412 110.032C134.004 109.209 134.513 108.621 134.928 108.281C135.125 108.119 135.65 107.689 157.04 104.231C168.107 102.442 180.237 100.574 185.223 99.81C185.076 99.1054 184.943 98.8791 184.884 98.8087C184.761 98.7337 184.412 98.6954 183.843 98.6954L183.843 98.6955Z" fill="#F06543"/>
    </g>
    <g clip-path="url(#clip4_5_344)">
        <path d="M111.865 177.689C112.695 178.058 158.165 171.978 158.903 171.439C159.641 170.899 159.913 166.125 158.903 165.62C157.893 165.115 111.018 170.371 110.358 171.256C109.699 172.142 111.106 177.352 111.865 177.689Z" fill="#1789FC"/>
        <path d="M112.056 177.975C111.954 177.986 111.851 177.973 111.755 177.937C111.122 177.655 110.532 175.571 110.366 174.938C110.178 174.219 109.605 171.816 110.141 171.096C110.26 170.935 110.441 170.692 118.043 169.664C122.31 169.086 128.143 168.371 134.468 167.648C140.509 166.959 146.52 166.32 150.958 165.894C158.593 165.163 158.884 165.309 159.024 165.379C159.446 165.59 159.707 166.254 159.799 167.354C159.923 168.835 159.704 171.189 159.063 171.658C158.952 171.74 158.746 171.89 151.399 172.964C147.131 173.588 141.469 174.373 135.455 175.175C129.382 175.984 123.713 176.709 119.494 177.214C114.219 177.846 112.6 177.975 112.056 177.975ZM111.96 177.433C112.756 177.52 122.561 176.346 135.407 174.634C148.064 172.947 158.058 171.481 158.756 171.211C159.058 170.946 159.405 169.134 159.259 167.399C159.177 166.427 158.961 165.972 158.796 165.871C157.995 165.709 147.425 166.717 134.642 168.175C121.234 169.703 111.386 171.043 110.557 171.447C110.395 171.736 110.401 172.765 110.796 174.422C111.21 176.157 111.737 177.282 111.96 177.433Z" fill="#1789FC"/>
        <path d="M164.992 167.79C164.992 167.79 162.166 167.737 162.166 166.995C162.166 166.253 167.806 163.178 168.323 163.735C168.841 164.293 166.484 170.339 165.755 170.339C165.025 170.339 164.992 167.79 164.992 167.79Z" fill="#1789FC"/>
        <path d="M165.755 170.61C164.938 170.61 164.761 168.987 164.727 168.054C163.708 168.015 161.895 167.828 161.895 166.995C161.895 166.126 165.585 164.223 166.862 163.723C168.037 163.262 168.361 163.377 168.522 163.551C168.682 163.723 168.792 164.086 168.399 165.469C168.12 166.419 167.78 167.35 167.384 168.256C166.356 170.61 165.934 170.61 165.755 170.61ZM162.438 167.007C162.481 167.199 163.543 167.492 164.996 167.52C165.067 167.521 165.134 167.55 165.183 167.599C165.233 167.649 165.261 167.717 165.262 167.787C165.278 168.976 165.53 170.001 165.734 170.066C165.947 169.932 166.56 168.936 167.264 167.121C167.951 165.351 168.174 164.217 168.12 163.938C167.898 163.916 167.125 164.128 165.729 164.83C163.839 165.781 162.554 166.728 162.439 167.007H162.438Z" fill="#1789FC"/>
    </g>
    <defs>
        <filter id="filter0_d_5_344" x="0" y="0" width="256" height="256" filterUnits="userSpaceOnUse" color-interpolation-filters="sRGB">
            <feFlood flood-opacity="0" result="BackgroundImageFix"/>
            <feColorMatrix in="SourceAlpha" type="matrix" values="0 0 0 0 0 0 0 0 0 0 0 0 0 0 0 0 0 0 127 0" result="hardAlpha"/>
            <feMorphology radius="1" operator="dilate" in="SourceAlpha" result="effect1_dropShadow_5_344"/>
            <feOffset dy="4"/>
            <feGaussianBlur stdDeviation="10"/>
            <feComposite in2="hardAlpha" operator="out"/>
            <feColorMatrix type="matrix" values="0 0 0 0 0.313726 0 0 0 0 0.607843 0 0 0 0 0.807843 0 0 0 1 0"/>
            <feBlend mode="normal" in2="BackgroundImageFix" result="effect1_dropShadow_5_344"/>
            <feBlend mode="normal" in="SourceGraphic" in2="effect1_dropShadow_5_344" result="shape"/>
        </filter>
        <linearGradient id="paint0_linear_5_344" x1="128" y1="24" x2="128" y2="224" gradientUnits="userSpaceOnUse">
            <stop stop-color="#5AC2AF"/>
            <stop offset="1" stop-color="#509BCE"/>
        </linearGradient>
        <clipPath id="clip0_5_344">
            <rect width="73.332" height="121.068" fill="white" transform="matrix(-0.998212 0.059767 0.059767 0.998212 174.057 65.084)"/>
        </clipPath>
        <clipPath id="clip1_5_344">
            <rect width="73.332" height="121.068" fill="white" transform="matrix(-0.998155 0.0607121 0.0607121 0.998155 168.165 60.9492)"/>
        </clipPath>
        <clipPath id="clip2_5_344">
            <rect width="75.06" height="30.672" fill="white" transform="translate(74.816 79.2637)"/>
        </clipPath>
        <clipPath id="clip3_5_344">
            <rect width="53.568" height="25.704" fill="white" transform="translate(132.812 98.1641)"/>
        </clipPath>
        <clipPath id="clip4_5_344">
            <rect width="58.752" height="14.58" fill="white" transform="translate(109.916 163.396)"/>
        </clipPath>
    </defs>
</svg>