<svg width="256" height="256" viewBox="0 0 256 256" fill="none" xmlns="http://www.w3.org/2000/svg">
    <g filter="url(#filter0_d_5_344)">
        <circle cx="128" cy="124" r="100" fill="#D9D9D9" fill-opacity="0.5" shape-rendering="crispEdges"/>
        <circle cx="128" cy="124" r="103.5" stroke="url(#paint0_linear_5_344)" stroke-width="7" stroke-dasharray="20 20" shape-rendering="crispEdges"/>
    </g>
    <g clip-path="url(#clip0_5_344)">
        <path d="M183.09 129.401C182.847 126.854 177.594 106.666 176.949 103.997C176.304 101.328 166.6 86.4743 164.252 85.1446C161.903 83.8147 135.246 73.0079 133.004 73.2219C130.761 73.4359 109.525 77.041 107.421 77.3832C105.316 77.7256 94.2576 76.9197 91.8003 77.1542C89.3428 77.3887 69.6515 87.4578 68.0006 89.1709C66.3499 90.8841 57.6131 101.328 57.341 103.66C57.0689 105.992 59.2387 121.494 60.9816 123.269C62.7244 125.044 80.953 132.494 80.953 132.494C80.953 132.494 81.8949 147.352 83.3193 149.452C84.7436 151.552 99.4643 158.079 102.663 158.256C103.682 158.313 110.697 157.602 119.867 156.548C122.585 160.149 134.742 178.241 136.12 178.696C137.651 179.202 141.544 180.397 143.263 179.03C144.121 178.349 141.735 172.002 137.659 165.917C140.27 166.984 142.78 167.811 143.816 167.712C146.176 167.487 157.82 165.741 159.623 164.123C161.425 162.505 163.458 156.824 163.278 154.942C163.181 153.923 162.657 152.382 161.895 151.061C166.82 150.283 170.158 149.634 170.707 149.245C173.249 147.446 183.333 131.947 183.09 129.401H183.09Z" fill="#1E1E1E"/>
        <path d="M140.937 179.962C139.646 179.962 138.005 179.635 136.026 178.98C135.052 178.659 130.294 171.925 124.176 163.156C122.258 160.408 120.592 158.019 119.731 156.864C112.207 157.728 103.818 158.62 102.646 158.555C99.489 158.38 84.6127 151.891 83.0723 149.62C81.6903 147.583 80.7859 134.506 80.6671 132.7C78.6878 131.889 62.4622 125.203 60.7684 123.479C58.8687 121.544 56.7877 105.827 57.0446 103.626C57.337 101.119 66.2328 90.5762 67.7857 88.9646C68.6877 88.0285 74.3005 84.9642 79.4629 82.3426C84.5156 79.7768 90.4025 76.9884 91.772 76.8577C92.9438 76.7459 95.9483 76.8631 99.1292 76.9871C102.647 77.1244 106.284 77.2663 107.373 77.0892C107.804 77.0191 109.041 76.8115 110.753 76.5243C117.384 75.4118 131.182 73.0965 132.975 72.9254C135.36 72.6973 162.028 83.5428 164.399 84.8855C165.693 85.6186 168.909 90.0249 171.487 93.904C174.007 97.6949 176.881 102.449 177.239 103.927C177.383 104.524 177.75 105.967 178.258 107.964C179.984 114.748 183.197 127.375 183.387 129.373C183.559 131.166 179.457 137.779 178.195 139.764C175.664 143.746 172.295 148.488 170.879 149.489C170.53 149.736 169.261 150.191 162.362 151.289C163.011 152.517 163.478 153.901 163.575 154.914C163.768 156.936 161.631 162.723 159.822 164.346C157.89 166.08 145.819 167.821 143.845 168.01C142.73 168.116 140.247 167.257 138.429 166.547C140.086 169.122 141.581 171.936 142.588 174.387C143.373 176.3 144.16 178.699 143.449 179.264C142.865 179.729 142.025 179.962 140.937 179.962ZM119.867 156.25C119.913 156.25 119.959 156.261 120 156.281C120.042 156.302 120.078 156.332 120.106 156.369C120.939 157.473 122.666 159.948 124.666 162.814C128.641 168.511 135.294 178.047 136.215 178.414C140.503 179.831 142.314 179.405 143.078 178.797C143.237 178.643 143.186 177.4 142.01 174.551C140.912 171.895 139.236 168.808 137.411 166.084C137.375 166.031 137.358 165.967 137.361 165.904C137.364 165.84 137.387 165.779 137.428 165.729C137.468 165.68 137.523 165.644 137.585 165.629C137.647 165.613 137.713 165.617 137.772 165.641C140.732 166.851 142.924 167.498 143.788 167.416C146.292 167.177 157.743 165.41 159.424 163.902C161.097 162.399 163.159 156.837 162.981 154.971C162.883 153.947 162.343 152.435 161.636 151.21C161.612 151.168 161.599 151.121 161.597 151.073C161.595 151.024 161.605 150.976 161.626 150.932C161.647 150.889 161.678 150.851 161.717 150.822C161.755 150.793 161.801 150.774 161.848 150.766C168.784 149.672 170.267 149.191 170.535 149.002C171.673 148.197 174.682 144.177 177.691 139.443C180.842 134.488 182.892 130.463 182.793 129.43C182.607 127.477 179.402 114.879 177.68 108.111C177.171 106.112 176.804 104.668 176.659 104.067C176.371 102.88 173.987 98.7443 170.99 94.2342C167.798 89.4318 165.096 85.966 164.104 85.4046C162.913 84.7299 155.611 81.6822 148.479 78.8825C139.705 75.4385 133.93 73.4339 133.032 73.5194C131.26 73.6886 117.476 76.0013 110.851 77.1129C109.138 77.4002 107.901 77.6079 107.469 77.6783C106.321 77.865 102.653 77.7218 99.1058 77.5835C96.0845 77.4657 92.9605 77.3438 91.8286 77.4518C90.785 77.5514 85.9243 79.7307 79.7331 82.8747C73.7755 85.9001 68.9317 88.6353 68.2156 89.3785C66.5308 91.1271 57.8972 101.47 57.6376 103.695C57.374 105.954 59.5636 121.4 61.1947 123.061C62.5391 124.43 74.7809 129.65 81.066 132.219C81.1179 132.24 81.1628 132.275 81.1955 132.321C81.2282 132.366 81.2474 132.42 81.251 132.476C81.5751 137.587 82.476 147.678 83.5665 149.285C84.1628 150.164 87.7322 152.181 92.4486 154.304C97.056 156.377 101.263 157.881 102.68 157.959C103.636 158.012 110.209 157.358 119.833 156.252C119.845 156.251 119.856 156.25 119.867 156.25L119.867 156.25Z" fill="#1E1E1E"/>
    </g>
    <g clip-path="url(#clip1_5_344)">
        <path d="M139.924 164.112C138.437 162.777 137.534 155.879 138.339 154.524C139.144 153.17 167.622 148.345 169.586 149.143C171.551 149.941 173.233 153.721 173.418 155.664C173.603 157.607 171.509 163.471 169.651 165.141C167.794 166.811 154.657 169.084 152.225 169.317C149.794 169.549 141.411 165.447 139.924 164.112Z" fill="#FFA9D8"/>
        <path d="M152.018 169.624C149.181 169.624 141.151 165.613 139.726 164.334C138.12 162.893 137.19 155.875 138.084 154.372C138.198 154.181 138.435 153.782 143.22 152.71C145.931 152.103 149.574 151.401 153.478 150.734C158.919 149.804 168.459 148.364 169.698 148.868C171.873 149.751 173.534 153.752 173.713 155.636C173.912 157.721 171.711 163.688 169.85 165.362C167.845 167.164 154.43 169.405 152.254 169.613C152.18 169.62 152.101 169.623 152.018 169.623V169.624ZM140.122 163.891C141.599 165.216 149.943 169.236 152.197 169.021C155.072 168.746 167.736 166.463 169.453 164.92C171.179 163.367 173.306 157.621 173.122 155.692C172.934 153.724 171.226 150.13 169.474 149.419C168.678 149.095 161.924 149.899 153.763 151.288C144.488 152.867 139.032 154.215 138.589 154.685C137.854 155.954 138.77 162.677 140.122 163.891L140.122 163.891Z" fill="#FFA9D8"/>
        <path d="M128.105 156.215C128.105 156.215 143.433 180.361 144.965 181.005C146.497 181.649 150.4 183.192 152.276 181.924C154.153 180.656 138.378 154.861 138.378 154.861L128.105 156.215Z" fill="#FFA9D8"/>
        <path d="M150.358 182.705C148.953 182.705 147.112 182.228 144.85 181.278C144.565 181.158 143.809 180.84 135.713 168.53C131.734 162.481 127.893 156.433 127.855 156.373C127.828 156.331 127.812 156.283 127.809 156.233C127.806 156.183 127.815 156.133 127.836 156.088C127.857 156.042 127.889 156.003 127.93 155.973C127.97 155.944 128.017 155.925 128.067 155.919L138.34 154.565C138.397 154.558 138.454 154.567 138.506 154.591C138.558 154.616 138.602 154.656 138.632 154.705C138.671 154.769 142.621 161.233 146.29 167.77C148.447 171.612 150.087 174.729 151.165 177.033C153.04 181.038 152.887 181.869 152.443 182.169C151.914 182.526 151.218 182.705 150.358 182.705ZM128.606 156.447C129.521 157.883 132.801 163.021 136.185 168.168C143.39 179.123 144.806 180.602 145.081 180.73C149.376 182.535 151.274 182.241 152.11 181.676C152.142 181.632 152.425 181.071 150.488 176.99C149.392 174.68 147.759 171.592 145.633 167.814C142.337 161.955 138.856 156.215 138.225 155.18L128.606 156.447Z" fill="#FFA9D8"/>
        <path d="M173.401 155.521C173.151 153.542 171.504 149.923 169.586 149.144C167.622 148.346 140.658 153.638 138.339 154.525L128.203 156.678C128.203 156.678 129.81 159.205 131.881 162.104C132.965 161.984 155.658 160.763 158.246 160.272C160.218 159.899 171.748 156.526 173.401 155.521Z" fill="#E075B5"/>
        <path d="M131.881 162.401C131.834 162.401 131.787 162.39 131.745 162.368C131.703 162.346 131.667 162.315 131.64 162.277C129.588 159.405 127.969 156.863 127.952 156.838C127.927 156.797 127.911 156.751 127.907 156.703C127.903 156.655 127.911 156.607 127.929 156.563C127.948 156.519 127.977 156.479 128.014 156.449C128.051 156.418 128.094 156.397 128.141 156.387L138.255 154.239C139.515 153.773 146.711 152.255 154.042 150.91C159.364 149.935 168.475 148.372 169.698 148.869C171.702 149.683 173.431 153.39 173.696 155.484C173.703 155.541 173.693 155.599 173.669 155.651C173.644 155.703 173.604 155.746 173.555 155.776C171.814 156.834 160.213 160.202 158.301 160.565C156.439 160.917 144.398 161.637 137.204 162.068C134.418 162.234 132.218 162.366 131.914 162.399C131.903 162.4 131.892 162.401 131.881 162.401ZM128.686 156.879C129.193 157.662 130.478 159.622 132.024 161.793C132.654 161.744 134.594 161.628 137.169 161.474C144.349 161.044 156.366 160.326 158.191 159.98C160.274 159.585 171.009 156.413 173.078 155.36C172.75 153.357 171.164 150.106 169.475 149.419C167.659 148.682 140.868 153.876 138.445 154.803C138.43 154.808 138.416 154.813 138.4 154.816L128.686 156.879V156.879Z" fill="#E075B5"/>
        <path d="M64.2616 102.729C64.542 100.322 73.5442 89.5415 75.2451 87.773C76.9461 86.0046 97.2359 75.611 99.7679 75.3689C102.3 75.1269 113.695 75.9586 115.863 75.6054C118.031 75.2521 139.913 71.5309 142.223 71.3099C144.534 71.089 172.001 82.2441 174.421 83.6168C176.84 84.9895 186.839 100.322 187.504 103.077C188.169 105.832 193.582 126.671 193.832 129.299C194.083 131.928 183.692 147.926 181.073 149.784C178.453 151.641 114.257 159.268 110.961 159.085C107.665 158.902 92.4972 152.165 91.0295 149.997C89.5619 147.83 88.5913 132.493 88.5913 132.493C88.5913 132.493 69.8088 124.802 68.013 122.97C66.217 121.139 63.9813 105.136 64.2616 102.729Z" fill="#FFA9D8"/>
        <path d="M111.094 159.387C111.035 159.387 110.985 159.386 110.944 159.384C107.692 159.203 92.37 152.509 90.7835 150.166C89.3595 148.062 88.4274 134.537 88.3067 132.699C86.2954 131.873 69.5462 124.961 67.8008 123.18C65.8446 121.185 63.7022 104.967 63.9667 102.696C64.2679 100.11 73.4316 89.2315 75.0313 87.5683C75.9598 86.603 81.742 83.4407 87.0605 80.735C92.2658 78.0869 98.3302 75.2092 99.7398 75.0744C100.947 74.959 104.042 75.08 107.319 75.2081C110.944 75.3498 114.693 75.4963 115.815 75.3134C116.259 75.2411 117.533 75.027 119.295 74.7307C126.129 73.582 140.348 71.192 142.195 71.0154C144.654 70.7802 172.124 81.9738 174.567 83.3596C175.899 84.1155 179.212 88.6623 181.868 92.6655C184.463 96.5779 187.424 101.483 187.793 103.009C187.941 103.624 188.319 105.114 188.843 107.175C190.621 114.177 193.931 127.211 194.128 129.273C194.304 131.12 190.078 137.944 188.779 139.992C186.172 144.101 182.701 148.995 181.244 150.028C179.655 151.154 158.673 153.938 146.307 155.496C129.563 157.607 113.429 159.387 111.094 159.387ZM101.166 75.6232C100.586 75.6232 100.115 75.6359 99.7962 75.6664C98.7197 75.7693 93.7098 78.0193 87.3294 81.2652C81.1897 84.3886 76.1975 87.2129 75.4591 87.9808C73.7226 89.7861 64.8244 100.466 64.5566 102.765C64.2849 105.097 66.5431 121.048 68.2246 122.764C69.6112 124.178 82.2265 129.567 88.7034 132.219C88.755 132.24 88.7996 132.276 88.8322 132.321C88.8647 132.366 88.8839 132.42 88.8874 132.476C89.2214 137.752 90.1502 148.171 91.2752 149.832C91.8906 150.741 95.5703 152.824 100.431 155.016C105.18 157.157 109.517 158.709 110.977 158.79C112.591 158.88 129.396 157.028 146.233 154.906C166.565 152.343 179.849 150.288 180.901 149.542C182.075 148.71 185.177 144.559 188.278 139.673C191.525 134.555 193.639 130.398 193.537 129.329C193.344 127.313 190.042 114.308 188.267 107.321C187.743 105.258 187.365 103.767 187.215 103.148C186.919 101.921 184.462 97.6507 181.373 92.9944C178.084 88.0359 175.297 84.4571 174.274 83.8768C173.047 83.1801 165.522 80.0339 158.173 77.1438C149.131 73.5882 143.179 71.5185 142.252 71.6071C140.425 71.7817 126.22 74.1695 119.394 75.3169C117.63 75.6133 116.356 75.8276 115.911 75.9001C114.729 76.0926 110.951 75.945 107.296 75.8021C105.033 75.7136 102.713 75.623 101.166 75.623L101.166 75.6232Z" fill="#FFA9D8"/>
        <path d="M79.59 90.3965C81.5062 88.8261 99.2971 81.0525 101.082 80.676C102.868 80.2996 115.391 80.7126 117.02 80.3464C118.65 79.9803 140.033 76.5707 142.124 76.5327C144.214 76.4946 171.999 87.0742 173.438 87.7691C174.877 88.4639 181.651 101.626 182.576 103.036C183.5 104.446 189.221 109.872 189.221 109.872C188.386 106.576 187.712 103.939 187.504 103.077C186.839 100.322 176.84 84.9894 174.421 83.6167C172.001 82.2441 144.534 71.089 142.223 71.3099C139.913 71.5308 118.031 75.252 115.863 75.6054C113.695 75.9586 102.3 75.1269 99.7678 75.3689C97.2358 75.611 76.946 86.0047 75.245 87.773C73.5441 89.5415 64.5418 100.322 64.2615 102.729C64.1216 103.93 64.6084 108.517 65.3543 113.039C65.3543 113.039 67.7076 104.975 69.2723 103.172C70.837 101.37 77.6738 91.9669 79.59 90.3965Z" fill="#FFD2ED"/>
        <path d="M65.3545 113.338C65.2841 113.338 65.216 113.313 65.1623 113.268C65.1086 113.222 65.0728 113.159 65.0614 113.089C64.3037 108.496 63.8228 103.931 63.9667 102.696C64.2679 100.11 73.4316 89.2314 75.0313 87.5683C75.9598 86.603 81.7419 83.4407 87.0604 80.735C92.2658 78.0869 98.3302 75.2092 99.7398 75.0744C100.946 74.959 104.042 75.08 107.319 75.2081C110.944 75.3498 114.693 75.4963 115.815 75.3134C116.259 75.2411 117.533 75.0268 119.297 74.7304C126.13 73.5819 140.348 71.1919 142.195 71.0154C144.654 70.7802 172.124 81.9737 174.567 83.3596C175.899 84.1155 179.212 88.6623 181.868 92.6655C184.463 96.578 187.424 101.483 187.792 103.009C187.941 103.623 188.318 105.109 188.84 107.166C189.045 107.973 189.271 108.86 189.509 109.801C189.525 109.863 189.52 109.929 189.495 109.988C189.47 110.048 189.427 110.098 189.371 110.13C189.316 110.163 189.251 110.177 189.187 110.169C189.123 110.162 189.064 110.134 189.017 110.09C188.782 109.867 183.26 104.624 182.327 103.201C182.065 102.8 181.382 101.55 180.438 99.8187C178.28 95.8629 174.263 88.4996 173.309 88.0386C171.649 87.237 144.227 76.8316 142.14 76.8316H142.129C140.072 76.869 118.897 80.2312 117.085 80.6382C116.244 80.8272 112.815 80.8172 109.186 80.8065C105.659 80.7962 102.012 80.7855 101.144 80.9686C99.255 81.3669 81.5242 89.197 79.7779 90.6282C78.5343 91.6475 75.0447 96.2048 72.4969 99.5323C71.173 101.261 70.0297 102.754 69.4963 103.369C67.9919 105.102 65.6626 113.045 65.6392 113.125C65.6212 113.186 65.5837 113.24 65.5324 113.279C65.481 113.318 65.4186 113.338 65.3544 113.338L65.3545 113.338ZM101.166 75.6232C100.586 75.6232 100.115 75.6359 99.7962 75.6664C98.7197 75.7693 93.7098 78.0193 87.3295 81.2652C81.19 84.3886 76.1977 87.2129 75.4592 87.9808C73.7227 89.786 64.8245 100.466 64.5567 102.765C64.4335 103.822 64.8227 107.682 65.4447 111.72C66.1765 109.369 67.8219 104.391 69.0483 102.979C69.5698 102.378 70.7081 100.891 72.0259 99.1701C74.7345 95.6329 78.1052 91.2306 79.4021 90.1677C81.416 88.5171 99.2974 80.7499 101.021 80.3864C101.951 80.1904 105.466 80.2006 109.188 80.2116C112.625 80.2217 116.179 80.2321 116.955 80.0577C118.774 79.6492 140.047 76.2744 142.118 76.2367C144.313 76.1969 172.058 86.774 173.567 87.5026C174.607 88.0049 177.657 93.48 180.959 99.5333C181.862 101.187 182.574 102.494 182.824 102.874C183.521 103.938 187.102 107.427 188.679 108.943C188.534 108.372 188.395 107.826 188.265 107.312C187.742 105.254 187.364 103.766 187.215 103.148C186.919 101.921 184.462 97.6506 181.373 92.9944C178.084 88.036 175.297 84.4571 174.274 83.8768C173.047 83.1801 165.522 80.0339 158.173 77.1438C149.131 73.5882 143.179 71.5185 142.252 71.6072C140.425 71.7818 126.221 74.1694 119.395 75.3168C117.631 75.6133 116.356 75.8277 115.911 75.9002C114.729 76.0927 110.95 75.9451 107.296 75.8022C105.032 75.7137 102.712 75.6232 101.166 75.6232Z" fill="#FFD2ED"/>
        <path d="M153.118 113.051C153.118 113.051 138.965 117.145 136.598 117.481C134.23 117.817 114.465 116.18 112.084 116.263C109.702 116.345 93.1477 121.339 91.1187 123.37C89.0897 125.402 88.2646 132.7 88.2646 132.7L81.106 129.344C81.106 129.344 87.417 118.954 88.6318 117.994C89.8465 117.033 110.992 111.34 112.411 111.34C113.829 111.34 133.756 114.423 135.805 114.287C137.853 114.152 153.117 113.051 153.117 113.051L153.118 113.051Z" fill="#E075B5"/>
        <path d="M88.2647 132.996C88.2219 132.996 88.1789 132.987 88.1388 132.968L80.9802 129.611C80.9424 129.594 80.9087 129.568 80.8814 129.537C80.8542 129.505 80.8338 129.468 80.8218 129.428C80.8097 129.388 80.8062 129.346 80.8115 129.305C80.8167 129.263 80.8307 129.223 80.8524 129.188C81.1112 128.761 87.2054 118.741 88.4478 117.759C89.2609 117.116 97.0536 114.929 100.366 114.018C105.617 112.575 111.623 111.041 112.411 111.041C113.008 111.041 116.499 111.53 120.919 112.15C127.014 113.004 134.6 114.067 135.785 113.989C137.809 113.855 152.943 112.764 153.096 112.753C153.169 112.748 153.242 112.77 153.299 112.815C153.357 112.86 153.396 112.925 153.409 112.998C153.422 113.07 153.408 113.144 153.369 113.207C153.33 113.269 153.27 113.315 153.2 113.335C152.621 113.503 139 117.438 136.639 117.773C135.214 117.976 127.867 117.495 121.386 117.07C116.917 116.778 113.057 116.525 112.094 116.558C109.879 116.635 93.2899 121.616 91.3286 123.579C89.3961 125.514 88.5677 132.66 88.5597 132.732C88.5514 132.805 88.5167 132.872 88.4623 132.921C88.4079 132.969 88.3375 132.996 88.2645 132.996L88.2647 132.996ZM81.5321 129.214L88.0205 132.256C88.2299 130.662 89.09 124.98 90.9089 123.159C92.2132 121.853 98.6648 119.676 101.378 118.801C106.182 117.252 110.88 116.005 112.073 115.964C113.067 115.93 116.94 116.183 121.425 116.477C127.558 116.878 135.192 117.378 136.556 117.185C138.236 116.947 146.046 114.758 150.284 113.552C145.76 113.877 137.303 114.485 135.825 114.583C134.579 114.665 127.278 113.642 120.836 112.739C116.789 112.172 112.967 111.636 112.411 111.636C111.787 111.636 106.454 112.962 100.524 114.592C94.0033 116.384 89.2982 117.844 88.816 118.226C87.8839 118.963 83.4003 126.15 81.5321 129.214ZM164.99 131.591C164.074 130.995 155.755 136.843 154.435 137.104C153.428 137.303 139.131 136.562 138.491 135.612C137.851 134.662 140.159 129.012 139.816 128.967C139.482 128.924 133.623 135.183 132.403 135.787C131.182 136.39 117.948 139.844 117.11 139.694C116.019 139.499 107.568 136.972 107.568 137.986C107.568 139.001 115.945 143.813 117.109 143.813C118.273 143.813 132.336 138.278 134.307 137.99C136.278 137.702 154.151 140.566 155.641 140.27C157.131 139.973 165.905 132.188 164.989 131.592L164.99 131.591Z" fill="#E075B5"/>
        <path d="M117.109 144.111C116.3 144.111 113.25 142.427 111.751 141.537C110.558 140.828 109.481 140.128 108.719 139.565C107.446 138.624 107.271 138.251 107.271 137.987C107.271 137.841 107.336 137.711 107.455 137.619C108.064 137.149 110.733 137.731 115.445 138.97C116.27 139.187 116.921 139.358 117.162 139.401C117.991 139.494 130.984 136.157 132.271 135.52C132.911 135.204 135.169 132.974 136.818 131.346C139.48 128.718 139.61 128.641 139.854 128.673C139.902 128.679 139.947 128.695 139.987 128.721C140.027 128.747 140.061 128.781 140.087 128.821C140.226 129.036 140.147 129.346 139.644 130.988C139.249 132.276 138.43 134.947 138.732 135.438C139.013 135.69 141.208 136.118 146.491 136.503C150.317 136.782 153.933 136.901 154.377 136.813C154.862 136.717 156.657 135.625 158.393 134.57C162.864 131.851 164.557 130.955 165.151 131.342C165.228 131.393 165.401 131.543 165.341 131.855C165.143 132.882 161.941 135.8 160.965 136.67C159.069 138.359 156.552 140.392 155.698 140.562C154.977 140.705 151.365 140.248 145.503 139.479C140.73 138.852 135.321 138.142 134.35 138.284C133.391 138.424 129.365 139.887 125.471 141.302C120.662 143.05 117.699 144.111 117.109 144.111L117.109 144.111ZM107.91 138.062C108.164 138.434 109.427 139.474 112.169 141.093C114.703 142.59 116.707 143.516 117.109 143.516C117.637 143.516 121.691 142.043 125.268 140.743C129.371 139.253 133.246 137.845 134.264 137.696C135.316 137.542 140.302 138.196 145.58 138.889C149.951 139.463 154.906 140.113 155.583 139.978C156.163 139.863 158.348 138.213 160.664 136.142C163.34 133.748 164.514 132.324 164.724 131.85C164.51 131.88 163.962 132.045 162.615 132.776C161.445 133.41 160.05 134.258 158.701 135.078C156.456 136.443 155.052 137.286 154.492 137.396C153.925 137.509 150.022 137.361 146.304 137.086C138.75 136.528 138.383 135.984 138.245 135.779C137.805 135.126 138.336 133.228 139.076 130.814C139.199 130.413 139.331 129.983 139.425 129.645C138.891 130.134 138.026 130.988 137.235 131.769C135.372 133.609 133.26 135.695 132.534 136.054C131.392 136.619 118.056 140.166 117.057 139.987C116.793 139.94 116.165 139.774 115.294 139.545C114.011 139.208 112.255 138.746 110.743 138.424C108.79 138.009 108.128 138.021 107.91 138.062H107.91ZM124.03 83.0537C124.748 83.3443 118.007 92.6627 117.858 93.6946C117.708 94.7264 121.109 106.662 120.147 106.661C119.185 106.661 113.116 94.4862 113.401 93.1791C113.686 91.8718 123.311 82.7631 124.03 83.0537Z" fill="#E075B5"/>
        <path d="M120.147 106.959C119.935 106.959 119.723 106.803 119.415 106.421C118.472 105.247 116.773 102.078 115.508 99.4581C114.725 97.8368 112.924 93.9733 113.111 93.1161C113.302 92.242 116.433 89.1461 117.77 87.8557C119.941 85.7606 122.58 83.41 123.58 82.8809C123.754 82.7886 123.957 82.7042 124.141 82.7784C124.246 82.821 124.324 82.9063 124.359 83.0183C124.517 83.5192 123.621 85.0237 120.849 89.2906C119.672 91.1026 118.207 93.3578 118.152 93.7378C118.101 94.0838 118.642 96.3984 119.119 98.4407C120.459 104.176 120.864 106.301 120.467 106.801C120.387 106.903 120.273 106.959 120.147 106.959H120.147ZM123.683 83.5026C122.904 83.9952 120.999 85.5921 118.552 87.9289C115.483 90.8606 113.783 92.8213 113.691 93.243C113.601 93.6568 114.542 96.1868 116.464 100.06C118.11 103.377 119.478 105.649 120.03 106.234C120.079 105.159 119.128 101.09 118.541 98.5762C117.875 95.7235 117.501 94.0884 117.564 93.6524C117.634 93.1666 118.618 91.6338 120.351 88.9663C121.537 87.1404 123.249 84.5052 123.683 83.5026H123.683ZM107.572 105.709C108.421 105.709 104.175 97.2173 103.459 96.4395C102.744 95.6616 92.5229 94.296 90.7755 94.8541C89.0282 95.4122 79.1775 103.138 79.633 103.989C80.0885 104.839 89.7722 99.7344 91.2891 99.3558C92.8062 98.9772 100.357 98.6818 101.402 99.1855C102.447 99.6892 106.723 105.709 107.572 105.709Z" fill="#E075B5"/>
        <path d="M107.572 106.007C107.033 106.007 106.08 104.929 104.036 102.47C102.94 101.152 101.698 99.659 101.273 99.4542C100.381 99.0243 92.9667 99.2444 91.361 99.6451C90.8467 99.7734 89.1987 100.542 87.4541 101.355C81.2279 104.257 79.7171 104.776 79.3713 104.13C79.3028 104.002 79.3038 103.848 79.3745 103.674C80.0123 102.097 88.96 95.1226 90.6852 94.5716C92.5061 93.9901 102.827 95.3145 103.678 96.2388C104.078 96.6734 105.28 98.9512 106.211 100.902C108.22 105.113 108.013 105.587 107.934 105.766C107.868 105.917 107.733 106.007 107.572 106.007ZM98.0832 98.6161C99.7 98.6161 101.078 98.6999 101.531 98.9182C102.036 99.1615 102.986 100.279 104.492 102.089C105.416 103.201 106.747 104.802 107.355 105.278C107.24 104.758 106.796 103.497 105.624 101.051C104.534 98.7787 103.512 96.9365 103.241 96.6417C103.021 96.4232 101.072 95.9042 97.4334 95.4371C94.2317 95.0262 91.5924 94.9061 90.8659 95.138C90.1309 95.3728 87.5333 97.1777 84.8235 99.3367C81.6927 101.831 80.2815 103.28 79.9773 103.787C80.2404 103.762 80.8989 103.605 82.5279 102.925C83.9456 102.334 85.6765 101.527 87.2036 100.816C89.1278 99.9187 90.6477 99.2101 91.2175 99.068C92.1218 98.8423 95.4255 98.6161 98.0834 98.6161H98.0832ZM144.782 100.504C144.433 99.961 151.776 95.4563 152.143 94.953C152.509 94.4498 151.481 86.0044 152.268 86.0747C153.054 86.145 154.944 94.8915 155.232 95.5111C155.52 96.1307 163.72 99.4902 164.541 99.4505C165.362 99.4109 173.955 98.4407 174.164 98.9856C174.373 99.5306 168.118 101.294 167.586 101.643C167.054 101.993 168.619 107.668 169.112 108.101C169.605 108.535 174.662 112.238 174.6 112.927C174.539 113.617 166.19 109.025 165.565 108.377C164.939 107.729 164.075 102.538 163.33 101.969C162.585 101.399 154.906 98.3929 153.894 98.6037C152.883 98.8146 145.132 101.047 144.782 100.504L144.782 100.504Z" fill="#E075B5"/>
        <path d="M174.49 113.293C174.162 113.293 173.217 113.042 169.879 111.27C167.929 110.234 165.702 108.946 165.351 108.582C165.022 108.242 164.731 107.193 164.283 105.511C163.958 104.291 163.467 102.446 163.15 102.204C162.44 101.661 154.853 98.7065 153.955 98.8937C153.731 98.9403 153.139 99.0966 152.389 99.2945C145.958 100.991 144.806 101.087 144.533 100.664C144.229 100.192 144.783 99.6488 149.506 96.464C150.535 95.7702 151.698 94.9864 151.891 94.7882C151.982 94.471 151.888 92.7774 151.811 91.4112C151.618 87.9541 151.571 86.2829 151.971 85.8949C152.061 85.8083 152.176 85.7664 152.294 85.777C152.896 85.8308 153.461 87.4315 154.923 93.2243C155.176 94.2259 155.415 95.1734 155.495 95.3692C156.011 95.9507 163.711 99.1796 164.527 99.1523C164.69 99.1444 165.218 99.0939 165.886 99.03C173.794 98.2735 174.289 98.4794 174.442 98.8779C174.479 98.9757 174.474 99.0847 174.427 99.1846C174.221 99.6217 172.889 100.126 169.783 101.163C168.959 101.438 168.032 101.748 167.79 101.868C167.731 102.102 167.814 103.081 168.291 104.916C168.733 106.616 169.168 107.73 169.311 107.88C169.405 107.962 169.724 108.208 170.128 108.52C173.785 111.341 174.944 112.418 174.896 112.953C174.883 113.097 174.788 113.217 174.648 113.267C174.598 113.286 174.544 113.295 174.491 113.294L174.49 113.293ZM153.992 98.2978C155.572 98.2978 162.801 101.189 163.51 101.731C163.956 102.072 164.316 103.329 164.857 105.358C165.161 106.5 165.54 107.922 165.778 108.169C166.005 108.404 167.808 109.492 170.034 110.678C172.073 111.766 173.435 112.386 174.084 112.606C173.3 111.718 170.704 109.715 169.766 108.991C169.321 108.648 169.027 108.422 168.916 108.323C168.36 107.835 167.099 103.173 167.186 101.928C167.197 101.758 167.235 101.517 167.423 101.393C167.63 101.257 168.31 101.027 169.595 100.598C170.769 100.206 172.784 99.5335 173.581 99.1248C172.151 99.0277 167.573 99.4657 165.942 99.6216C165.24 99.6888 164.733 99.7373 164.555 99.7459C163.859 99.7791 160.009 98.183 159.573 98.0009C156.684 96.7967 155.133 96.0006 154.963 95.635C154.871 95.4373 154.688 94.7223 154.347 93.3697C153.889 91.5572 152.873 87.5288 152.322 86.5443C152.18 87.3624 152.318 89.83 152.404 91.3777C152.559 94.1374 152.572 94.8664 152.383 95.1265C152.232 95.3326 151.566 95.7922 149.838 96.9569C148.416 97.9158 145.907 99.6079 145.225 100.296C146.416 100.254 150.575 99.1574 152.237 98.7189C153.026 98.511 153.595 98.3608 153.834 98.311C153.886 98.3011 153.94 98.2966 153.993 98.2974L153.992 98.2978Z" fill="#E075B5"/>
    </g>
    <g clip-path="url(#clip2_5_344)">
        <path d="M163.634 140.43C163.132 139.165 165.881 134.283 167.167 134.167C168.453 134.05 202.65 150.85 203.368 152.031C204.086 153.213 201.709 161.76 200.772 162.231C199.836 162.702 164.136 141.696 163.634 140.43H163.634Z" fill="#1789FC"/>
        <path d="M200.73 162.538C200.615 162.538 200.465 162.498 200.24 162.412C198.045 161.577 188.721 156.276 180.453 151.393C175.981 148.752 171.852 146.254 168.826 144.357C163.562 141.058 163.429 140.722 163.357 140.541C162.971 139.568 164.05 137.385 164.749 136.249C165.172 135.56 166.252 133.95 167.14 133.87C168.178 133.774 183.83 141.468 185.612 142.345C189.702 144.359 203.089 150.999 203.623 151.877C204.262 152.928 202.926 157.687 202.771 158.226C202.355 159.681 201.558 162.17 200.906 162.498C200.852 162.525 200.791 162.539 200.73 162.538L200.73 162.538ZM163.906 140.306C164.385 140.968 172.15 145.821 182.017 151.623C191.897 157.433 199.656 161.718 200.679 161.933C201 161.625 201.805 159.722 202.538 156.796C203.21 154.111 203.309 152.533 203.117 152.194C202.633 151.629 195.176 147.719 185.359 142.885C175.722 138.14 167.923 134.527 167.185 134.465C166.849 134.506 166.108 135.176 165.256 136.561C164.298 138.12 163.709 139.757 163.905 140.306L163.906 140.306Z" fill="#1789FC"/>
        <path d="M131.752 113.453C124.857 121.202 125.025 135.343 133.292 142.71C141.559 150.077 154.794 147.88 161.689 140.131C168.584 132.382 168.844 117.821 160.577 110.455C152.311 103.088 138.647 105.705 131.752 113.453Z" fill="#F6F6F6"/>
        <path d="M145.553 147.527C140.819 147.527 136.465 145.935 133.094 142.931C129.157 139.423 126.768 134.067 126.539 128.235C126.314 122.531 128.133 117.071 131.53 113.254C134.993 109.362 140.126 106.714 145.611 105.989C151.454 105.216 156.839 106.723 160.776 110.231C164.69 113.719 167.002 119.154 167.117 125.143C167.229 130.95 165.331 136.485 161.911 140.328C158.47 144.196 153.414 146.767 148.039 147.384C147.214 147.479 146.384 147.527 145.553 147.528L145.553 147.527ZM148.586 106.412C142.318 106.412 135.919 109.218 131.975 113.651C124.964 121.53 125.7 135.544 133.49 142.486C136.75 145.391 140.968 146.931 145.555 146.931C146.35 146.931 147.156 146.885 147.971 146.791C153.202 146.191 158.121 143.691 161.466 139.931C167.958 132.636 168.897 118.267 160.379 110.676C157.051 107.71 152.848 106.412 148.586 106.412Z" fill="#F6F6F6"/>
        <path d="M167.167 134.167C165.881 134.283 163.132 139.165 163.634 140.431C163.712 140.627 164.637 141.299 166.148 142.291C167.718 140.922 169.611 137.622 170.597 135.525C168.287 134.511 167.427 134.144 167.167 134.167Z" fill="#090C9B"/>
        <path d="M166.148 142.589C166.091 142.589 166.035 142.573 165.985 142.54C163.504 140.91 163.412 140.679 163.357 140.54C162.971 139.568 164.05 137.385 164.749 136.248C165.172 135.56 166.252 133.95 167.14 133.87C167.463 133.84 168.063 134.087 170.716 135.251C170.753 135.267 170.786 135.29 170.813 135.319C170.84 135.348 170.862 135.382 170.876 135.419C170.89 135.457 170.896 135.496 170.894 135.536C170.893 135.576 170.883 135.615 170.866 135.651C169.746 138.034 167.853 141.199 166.344 142.516C166.29 142.563 166.22 142.589 166.148 142.589L166.148 142.589ZM163.905 140.305C163.965 140.384 164.296 140.709 166.119 141.914C167.478 140.627 169.133 137.873 170.195 135.674C168.627 134.986 167.411 134.462 167.193 134.464C166.861 134.496 166.114 135.165 165.257 136.561C164.299 138.12 163.71 139.756 163.906 140.305L163.905 140.305Z" fill="#090C9B"/>
        <path d="M164.547 112.707L139.281 106.49L135.654 108.093L165.398 114.642L164.547 112.707Z" fill="white"/>
        <path d="M165.398 114.939C165.377 114.939 165.356 114.937 165.334 114.933L135.59 108.384C135.529 108.37 135.473 108.338 135.431 108.291C135.39 108.244 135.364 108.185 135.357 108.122C135.351 108.06 135.365 107.997 135.397 107.942C135.428 107.888 135.476 107.845 135.534 107.82L139.16 106.217C139.22 106.19 139.288 106.184 139.352 106.2L164.618 112.417C164.708 112.439 164.783 112.501 164.82 112.586L165.671 114.521C165.691 114.566 165.7 114.616 165.696 114.665C165.692 114.715 165.675 114.762 165.648 114.804C165.621 114.846 165.584 114.88 165.541 114.903C165.497 114.927 165.448 114.939 165.399 114.939L165.398 114.939ZM136.608 107.997L164.889 114.224L164.333 112.961L139.308 106.804L136.608 107.997ZM166.136 116.94L133.02 110.752L131.673 112.218L167.546 121.083L166.136 116.94Z" fill="white"/>
        <path d="M167.546 121.38C167.522 121.38 167.498 121.377 167.474 121.372L131.602 112.506C131.552 112.494 131.506 112.469 131.468 112.433C131.43 112.397 131.403 112.353 131.388 112.303C131.373 112.253 131.371 112.201 131.383 112.15C131.394 112.1 131.419 112.053 131.454 112.015L132.801 110.549C132.835 110.512 132.878 110.484 132.926 110.468C132.974 110.452 133.026 110.449 133.075 110.458L166.191 116.646C166.243 116.656 166.292 116.68 166.332 116.714C166.372 116.749 166.402 116.793 166.419 116.844L167.828 120.986C167.843 121.031 167.848 121.079 167.841 121.126C167.834 121.173 167.816 121.217 167.788 121.256C167.761 121.294 167.724 121.326 167.682 121.348C167.64 121.369 167.593 121.381 167.546 121.381L167.546 121.38ZM132.234 112.048L167.088 120.662L165.91 117.201L133.128 111.075L132.234 112.048Z" fill="white"/>
        <path d="M127.08 115.697C120.543 127.286 124.037 141.648 134.884 147.776C145.731 153.903 159.824 149.476 166.361 137.887C172.898 126.298 169.404 111.936 158.557 105.808C147.71 99.6806 133.618 104.108 127.08 115.697ZM161.689 140.131C154.794 147.88 141.559 150.076 133.292 142.71C125.025 135.343 124.857 121.202 131.752 113.453C138.647 105.704 152.311 103.088 160.577 110.454C168.844 117.821 168.584 132.382 161.689 140.131V140.131Z" fill="#1789FC"/>
        <path d="M145.398 150.823C141.743 150.823 138.086 149.926 134.738 148.035C123.765 141.836 120.214 127.264 126.821 115.55C133.428 103.836 147.731 99.3489 158.703 105.548C169.676 111.746 173.228 126.319 166.62 138.033C162.029 146.172 153.722 150.823 145.398 150.823ZM148.041 103.356C139.926 103.356 131.822 107.897 127.34 115.843C120.894 127.271 124.344 141.479 135.031 147.515C138.286 149.354 141.845 150.226 145.4 150.226C153.515 150.227 161.619 145.686 166.101 137.739C172.547 126.312 169.097 112.104 158.41 106.067C155.155 104.228 151.597 103.356 148.041 103.356ZM145.553 147.528C140.819 147.528 136.465 145.936 133.094 142.932C129.157 139.424 126.768 134.067 126.539 128.236C126.314 122.531 128.133 117.071 131.53 113.254C134.993 109.362 140.126 106.714 145.611 105.989C151.454 105.217 156.839 106.723 160.776 110.231C164.69 113.72 167.002 119.155 167.117 125.143C167.229 130.95 165.331 136.485 161.911 140.328C158.47 144.196 153.414 146.768 148.039 147.384C147.214 147.479 146.384 147.527 145.553 147.528L145.553 147.528ZM148.586 106.413C142.318 106.413 135.919 109.218 131.975 113.651C124.964 121.53 125.7 135.544 133.49 142.486C136.75 145.391 140.968 146.931 145.555 146.931C146.35 146.931 147.156 146.885 147.971 146.792C153.202 146.191 158.121 143.691 161.466 139.932C167.958 132.636 168.897 118.268 160.379 110.677C157.051 107.711 152.848 106.413 148.586 106.413Z" fill="#1789FC"/>
    </g>
    <g clip-path="url(#clip3_5_344)">
        <path d="M72.7586 147.211C75.714 144.952 107.643 143.977 109.265 146.047C110.886 148.118 106.408 167.639 104.401 169.068C102.394 170.498 83.1041 169.642 83.1041 169.642C81.8725 171.795 80.0245 173.59 76.8124 174.301C76.6337 174.339 76.4478 174.325 76.2763 174.263C76.1047 174.2 75.9544 174.09 75.8426 173.946C75.7308 173.801 75.6621 173.628 75.6444 173.447C75.6266 173.266 75.6606 173.083 75.7424 172.92C76.1706 172.043 76.3242 171.187 76.0628 169.796C75.901 168.935 72.371 169.64 71.1208 167.858C69.9348 166.167 69.8032 149.47 72.7586 147.211Z" fill="#FFD04D"/>
        <path d="M76.39 174.569C76.096 174.516 75.8316 174.358 75.6475 174.123C75.5012 173.939 75.4103 173.718 75.3853 173.485C75.3603 173.251 75.4023 173.016 75.5065 172.806C75.8769 172.047 76.0694 171.253 75.8048 169.845C75.7722 169.672 74.9881 169.57 74.4699 169.502C73.3003 169.35 71.6993 169.141 70.906 168.009C70.1978 166.999 69.9526 161.994 70.1243 157.737C70.2345 154.994 70.6971 148.456 72.5985 147.003C74.1706 145.802 83.2263 145.002 91.5033 144.744C95.9403 144.605 100.132 144.617 103.305 144.776C108.82 145.054 109.311 145.681 109.472 145.886C109.998 146.559 110.009 148.674 109.502 152.173C108.642 158.13 106.128 168.161 104.554 169.282C102.578 170.69 85.8632 170.025 83.2519 169.912C81.7779 172.413 79.6883 173.934 76.8696 174.558C76.712 174.593 76.549 174.597 76.39 174.569ZM75.231 169.082C75.8234 169.187 76.2455 169.346 76.3212 169.749C76.5737 171.092 76.4775 172.014 75.9787 173.036C75.9184 173.157 75.8941 173.294 75.9085 173.429C75.9229 173.563 75.9755 173.692 76.0601 173.798C76.1398 173.902 76.2478 173.98 76.371 174.024C76.4943 174.068 76.6276 174.075 76.7549 174.045C79.5106 173.435 81.4551 171.995 82.8754 169.512C82.8993 169.47 82.9344 169.436 82.9767 169.412C83.019 169.389 83.0669 169.378 83.1152 169.38C88.4554 169.617 102.662 169.985 104.248 168.855C105.451 167.997 107.973 159.071 108.982 152.098C109.641 147.538 109.254 146.461 109.057 146.209C108.939 146.058 108.173 145.547 103.279 145.3C100.12 145.141 95.9435 145.13 91.52 145.268C81.8289 145.571 74.1796 146.456 72.9186 147.42C71.7219 148.334 70.8737 152.2 70.6496 157.759C70.448 162.757 70.8498 167.014 71.3366 167.708C71.997 168.65 73.4059 168.834 74.5375 168.982C74.7852 169.014 75.0193 169.045 75.231 169.082Z" fill="#FFD04D"/>
        <path d="M84.0969 158.807C84.4787 157.905 84.1371 156.898 83.334 156.56C82.5308 156.221 81.5702 156.678 81.1884 157.581C80.8066 158.483 81.1482 159.489 81.9513 159.828C82.7545 160.167 83.7151 159.71 84.0969 158.807Z" fill="#D3A32D"/>
        <path d="M82.2126 160.177C82.0878 160.155 81.9659 160.119 81.8491 160.069C80.9136 159.675 80.5085 158.512 80.946 157.478C81.1459 156.992 81.5173 156.597 81.9898 156.367C82.2132 156.256 82.4579 156.194 82.7075 156.185C82.957 156.177 83.2055 156.222 83.4362 156.317C84.3717 156.712 84.7769 157.874 84.3393 158.909C84.1394 159.394 83.768 159.789 83.2955 160.019C82.9601 160.184 82.5813 160.239 82.2126 160.177ZM82.9833 156.727C82.722 156.684 82.4538 156.724 82.2165 156.841C81.8601 157.016 81.5804 157.315 81.4307 157.682C81.1058 158.45 81.3853 159.304 82.0534 159.586C82.2157 159.652 82.3904 159.683 82.5655 159.676C82.7407 159.669 82.9123 159.625 83.0687 159.546C83.4252 159.371 83.7048 159.072 83.8546 158.704C84.1793 157.937 83.9 157.083 83.2317 156.801C83.1519 156.767 83.0686 156.742 82.9833 156.727Z" fill="#D3A32D"/>
        <path d="M90.5705 159.633C91.2785 159.065 91.3049 157.925 90.6295 157.087C89.9541 156.248 88.8326 156.028 88.1246 156.596C87.4166 157.163 87.3902 158.303 88.0656 159.142C88.741 159.98 89.8624 160.2 90.5705 159.633Z" fill="#D3A32D"/>
        <path d="M89.2937 160.176C88.7265 160.067 88.2175 159.758 87.8606 159.304C87.0955 158.354 87.14 157.046 87.96 156.389C88.1665 156.228 88.4064 156.114 88.6623 156.056C88.9182 155.999 89.1838 155.998 89.4401 156.055C89.9899 156.177 90.4818 156.482 90.8348 156.921C91.1878 157.359 91.3808 157.904 91.3821 158.466C91.3826 158.728 91.3249 158.986 91.2131 159.223C91.1013 159.46 90.9382 159.669 90.7357 159.835C90.5341 159.992 90.3009 160.104 90.0521 160.163C89.8032 160.221 89.5446 160.226 89.2937 160.176ZM89.3096 156.564C89.1326 156.528 88.9498 156.53 88.7737 156.57C88.5976 156.61 88.4323 156.689 88.2894 156.799C87.6955 157.275 87.6871 158.251 88.2705 158.976C88.8539 159.7 89.812 159.902 90.4058 159.426C90.5481 159.308 90.6622 159.159 90.74 158.99C90.8178 158.822 90.8572 158.639 90.8556 158.453C90.8513 158.015 90.6993 157.591 90.4242 157.25C90.149 156.908 89.7666 156.669 89.3387 156.57C89.3291 156.568 89.3193 156.566 89.3095 156.565L89.3096 156.564Z" fill="#D3A32D"/>
        <path d="M97.1953 159.783C98.0041 159.219 98.2263 158.143 97.6918 157.381C97.1573 156.619 96.0684 156.459 95.2597 157.023C94.451 157.587 94.2287 158.663 94.7632 159.425C95.2977 160.187 96.3866 160.347 97.1953 159.783Z" fill="#D3A32D"/>
        <path d="M95.7811 160.35C95.5345 160.309 95.2985 160.219 95.0868 160.086C94.8752 159.953 94.692 159.779 94.5478 159.575C93.9311 158.695 94.1829 157.454 95.109 156.808C95.5464 156.499 96.0861 156.369 96.617 156.445C96.8747 156.48 97.1224 156.568 97.3445 156.703C97.5666 156.838 97.7582 157.018 97.9074 157.231C98.0566 157.443 98.16 157.685 98.2112 157.939C98.2624 158.193 98.2603 158.456 98.205 158.709C98.0949 159.233 97.7875 159.694 97.3463 159.998C97.1215 160.156 96.8675 160.269 96.599 160.33C96.3304 160.39 96.0525 160.397 95.7811 160.35ZM96.5835 156.971C96.5692 156.969 96.5549 156.966 96.5405 156.964C96.1425 156.908 95.7381 157.006 95.4106 157.238C94.7221 157.718 94.5283 158.632 94.9787 159.274C95.429 159.917 96.3559 160.048 97.0447 159.568C97.3757 159.34 97.6067 158.995 97.6898 158.603C97.73 158.423 97.7329 158.237 97.6984 158.055C97.6638 157.874 97.5926 157.702 97.489 157.549C97.3854 157.396 97.2517 157.266 97.096 157.167C96.9402 157.068 96.7659 157.001 96.5835 156.971Z" fill="#D3A32D"/>
        <path d="M109.265 146.046C108.254 144.755 95.4559 144.648 85.2485 145.299C92.4405 146.152 103.879 147.497 105.714 149.159C107.417 150.701 107.861 156.388 107.464 160.876C109.024 154.759 110.234 147.284 109.265 146.046Z" fill="#FFDE8A"/>
        <path d="M107.418 161.135C107.353 161.124 107.295 161.088 107.255 161.036C107.215 160.984 107.196 160.919 107.202 160.853C107.599 156.369 107.151 150.815 105.538 149.354C103.778 147.761 92.259 146.395 85.3768 145.579L85.2176 145.56C85.1524 145.552 85.0925 145.521 85.0495 145.471C85.0065 145.421 84.9837 145.358 84.9854 145.292C84.9871 145.227 85.0133 145.164 85.0589 145.117C85.1044 145.07 85.166 145.042 85.2315 145.038C90.3749 144.71 96.1617 144.577 100.711 144.683C105.995 144.805 108.943 145.21 109.472 145.885C110.626 147.359 109.056 155.697 107.718 160.942C107.702 161.006 107.662 161.061 107.607 161.097C107.552 161.133 107.485 161.147 107.419 161.135L107.418 161.135ZM98.8233 146.887C102.276 147.498 105.037 148.192 105.891 148.966C107.307 150.248 107.904 154.142 107.863 158.08C109.197 152.136 109.735 147.074 109.058 146.208C108.746 145.811 106.387 145.339 100.699 145.207C97.0311 145.122 92.5558 145.192 88.2643 145.395C91.7217 145.815 95.5781 146.314 98.8233 146.887Z" fill="#FFDE8A"/>
    </g>
    <defs>
        <filter id="filter0_d_5_344" x="0" y="0" width="256" height="256" filterUnits="userSpaceOnUse" color-interpolation-filters="sRGB">
            <feFlood flood-opacity="0" result="BackgroundImageFix"/>
            <feColorMatrix in="SourceAlpha" type="matrix" values="0 0 0 0 0 0 0 0 0 0 0 0 0 0 0 0 0 0 127 0" result="hardAlpha"/>
            <feMorphology radius="1" operator="dilate" in="SourceAlpha" result="effect1_dropShadow_5_344"/>
            <feOffset dy="4"/>
            <feGaussianBlur stdDeviation="10"/>
            <feComposite in2="hardAlpha" operator="out"/>
            <feColorMatrix type="matrix" values="0 0 0 0 0.278431 0 0 0 0 0.482353 0 0 0 0 0.905882 0 0 0 1 0"/>
            <feBlend mode="normal" in2="BackgroundImageFix" result="effect1_dropShadow_5_344"/>
            <feBlend mode="normal" in="SourceGraphic" in2="effect1_dropShadow_5_344" result="shape"/>
        </filter>
        <linearGradient id="paint0_linear_5_344" x1="128" y1="24" x2="128" y2="224" gradientUnits="userSpaceOnUse">
            <stop stop-color="#509BCE"/>
            <stop offset="1" stop-color="#477BE7"/>
        </linearGradient>
        <clipPath id="clip0_5_344">
            <rect width="126.374" height="107.042" fill="white" transform="translate(57.0193 72.9199)"/>
        </clipPath>
        <clipPath id="clip1_5_344">
            <rect width="130.193" height="111.696" fill="white" transform="translate(63.9407 71.0098)"/>
        </clipPath>
        <clipPath id="clip2_5_344">
            <rect width="80.3113" height="59.786" fill="white" transform="translate(123.488 102.752)"/>
        </clipPath>
        <clipPath id="clip3_5_344">
            <rect width="38.306" height="34.368" fill="white" transform="translate(72.9524 139.061) rotate(10.0248)"/>
        </clipPath>
    </defs>
</svg>