<svg width="272" height="272" viewBox="0 0 272 272" fill="none" xmlns="http://www.w3.org/2000/svg">
    <g clip-path="url(#clip0_1255_186)">
        <path d="M212.73 55.3505C209.45 53.7994 179.516 71.0995 173.225 74.5795C173.324 67.3393 173.378 62.7171 173.378 62.7171C173.378 62.7171 177.81 50.8075 175.767 49.1774C173.723 47.5475 58.0994 72.0252 58.2249 75.1413C58.3504 78.2575 66.6946 82.8189 66.4583 82.9528C66.4583 82.9528 67.9884 88.0718 70.3569 95.8851C61.5557 93.3904 42.5945 88.3809 40.5969 90.917C37.9857 94.2322 43.1235 148.027 45.79 151.423C48.4564 154.82 81.4871 163.316 81.4871 163.316C81.4871 163.316 76.9342 169.727 77.3107 171.668C77.6873 173.61 84.1231 174.991 86.3971 174.701C87.7219 174.532 90.6603 170.651 92.85 166.623C94.4394 171.019 95.6153 173.848 96.149 174.309C98.6445 176.46 115.93 186.06 123.526 190.24C121.655 190.799 120.501 191.283 120.514 191.608C120.58 193.263 124.912 200.862 126.849 201.479C127.134 201.57 127.794 201.528 128.712 201.389C127.706 207.388 124.619 225.323 123.276 227.761C121.958 230.154 109.414 239.752 104.829 243.214C99.0806 243.823 95.2743 244.343 94.9565 244.639C93.5273 245.967 96.8728 250.018 96.8728 250.018H168.067C168.067 250.018 172.679 241.062 170.463 239.26C169.982 238.869 166.226 238.838 160.624 239.043C157.692 236.027 146.218 224.141 145.346 221.922C144.478 219.714 144.774 201.871 144.868 197.163C147.069 196.441 148.653 195.83 148.939 195.531C150.004 194.417 152.353 186.322 151.532 185.251C151.368 185.037 150.027 185.097 147.988 185.342C153.675 180.112 170.016 164.846 171.031 161.213C171.243 160.452 171.453 157.011 171.653 151.842C174.755 156.119 179.664 160.866 180.966 160.814C183.015 160.731 189.838 156.101 189.88 153.352C189.921 150.602 180.517 146.081 180.517 146.081C180.517 146.081 225.931 112.35 226.983 107.978C228.035 103.607 216.452 57.1103 212.73 55.3505ZM52.7968 143.258C50.9297 139.427 48.0617 106.693 51.6486 104.371C53.9188 102.902 65.2163 104.141 73.2061 105.25C77.892 120.594 84.1374 140.758 88.9772 155.345C77.3478 151.225 54.1943 146.126 52.7968 143.258ZM214.021 108.078C213.768 111.589 181.526 136.1 171.934 143.353C172.386 127.772 172.775 105.09 173.036 87.7467C180.222 84.2111 204.214 71.4961 207.102 72.6814C210.604 74.1185 214.317 103.975 214.021 108.078V108.078Z" fill="#1E1E1E"/>
        <path d="M168.067 250.47H96.8726C96.8059 250.47 96.74 250.455 96.6796 250.427C96.6193 250.398 96.5659 250.357 96.5235 250.305C95.9195 249.574 92.9905 245.848 94.6478 244.307C94.846 244.123 95.2147 243.781 104.656 242.777C115.2 234.814 122.01 229.121 122.88 227.543C124.152 225.233 127.125 208.081 128.164 201.919C127.255 202.025 126.909 201.973 126.711 201.91C125.39 201.489 123.564 198.758 122.593 197.168C121.403 195.218 120.102 192.652 120.061 191.626C120.043 191.169 120.435 190.774 122.381 190.126C114.534 185.8 98.2891 176.751 95.8532 174.651C95.4796 174.329 94.7893 173.231 92.7626 167.706C90.9488 170.861 88.0938 174.94 86.4545 175.149C84.383 175.415 77.3371 174.183 76.866 171.755C76.5183 169.961 79.5991 165.259 80.7442 163.59C78.6505 163.044 71.6573 161.198 64.5095 159.077C47.1891 153.939 45.8678 152.256 45.4335 151.703C43.9493 149.812 41.9721 134.556 40.7633 121.181C40.3408 116.506 38.3299 93.0636 40.241 90.6374C40.8763 89.8307 42.8922 88.998 53.0162 91.0715C58.6871 92.2327 65.0723 93.9294 69.6836 95.2252C68.4664 91.2096 67.2556 87.1921 66.0512 83.1726C65.8934 83.0545 65.5231 82.8104 65.1629 82.573C62.7981 81.0147 57.8776 77.772 57.7722 75.1596C57.7546 74.7237 58.1948 74.4398 58.6733 74.1979C63.6303 71.6906 94.7994 64.4967 119.985 59.0981C134.165 56.0585 147.631 53.3199 157.904 51.3865C175.184 48.1341 175.747 48.5828 176.049 48.8239C176.697 49.3404 177.373 50.7163 175.776 56.6755C175.002 59.5631 174.007 62.3169 173.83 62.8002C173.823 63.4085 173.773 67.545 173.688 73.8038C174.346 73.4359 175.164 72.9758 176.128 72.4332C181.104 69.6329 189.432 64.9463 196.942 61.0948C209.408 54.701 212.034 54.5208 212.923 54.9415C215.477 56.1491 220.181 73.2671 222.085 80.5709C225.175 92.4262 228 105.683 227.423 108.084C227.251 108.797 226.729 110.969 203.635 129.025C193.756 136.748 183.864 144.15 181.38 146.003C183.672 147.159 190.372 150.762 190.332 153.358C190.286 156.409 183.193 161.177 180.984 161.265C180.973 161.266 180.962 161.266 180.951 161.266C179.35 161.266 174.873 156.739 172.055 153.126C171.855 157.946 171.662 160.635 171.467 161.334C170.489 164.837 156.368 178.216 149.301 184.746C151.56 184.543 151.735 184.772 151.891 184.976C152.486 185.752 151.942 188.404 151.38 190.492C150.795 192.667 149.915 195.165 149.267 195.843C149.136 195.98 148.795 196.337 145.314 197.492C145.105 208.198 145.116 220.099 145.767 221.756C146.423 223.424 153.94 231.514 160.809 238.583C169.945 238.255 170.488 238.696 170.749 238.909C171.848 239.802 171.774 241.947 170.523 245.466C169.647 247.93 168.482 250.202 168.47 250.224C168.432 250.298 168.374 250.36 168.303 250.403C168.232 250.447 168.151 250.47 168.067 250.47L168.067 250.47ZM97.0885 249.565H167.789C169.482 246.209 171.539 240.754 170.187 239.619C169.979 239.51 168.68 239.201 160.641 239.494C160.578 239.497 160.514 239.486 160.456 239.463C160.397 239.439 160.344 239.403 160.3 239.357C155.966 234.9 145.792 224.295 144.924 222.087C144.06 219.886 144.28 203.917 144.415 197.154C144.417 197.06 144.448 196.969 144.503 196.894C144.559 196.819 144.637 196.762 144.726 196.733C148.127 195.617 148.574 195.254 148.614 195.216C148.991 194.821 149.799 192.874 150.494 190.3C151.249 187.505 151.332 185.996 151.204 185.596C150.992 185.56 150.286 185.521 148.042 185.791C147.947 185.802 147.851 185.783 147.767 185.736C147.684 185.689 147.617 185.617 147.577 185.531C147.537 185.444 147.525 185.346 147.544 185.252C147.563 185.159 147.611 185.073 147.681 185.008C152.806 180.295 169.603 164.642 170.595 161.091C170.725 160.623 170.936 158.636 171.201 151.824C171.204 151.73 171.237 151.639 171.295 151.565C171.352 151.49 171.432 151.436 171.522 151.408C171.612 151.381 171.708 151.383 171.798 151.413C171.887 151.443 171.964 151.5 172.02 151.576C175.327 156.137 179.971 160.361 180.935 160.361C180.94 160.361 180.944 160.361 180.948 160.361C182.732 160.289 189.389 155.846 189.427 153.344C189.454 151.553 183.856 148.188 180.321 146.488C180.251 146.455 180.19 146.403 180.146 146.339C180.101 146.276 180.074 146.201 180.067 146.124C180.059 146.046 180.072 145.968 180.103 145.897C180.135 145.826 180.184 145.764 180.247 145.718C198.449 132.198 225.799 110.962 226.543 107.872C227.006 105.945 224.663 94.053 221.208 80.7983C216.931 64.3896 213.715 56.3161 212.536 55.7588C212.034 55.5218 209.55 55.645 197.355 61.8993C189.861 65.7428 181.542 70.424 176.572 73.221C175.239 73.9712 174.186 74.5638 173.444 74.9745C173.374 75.0129 173.296 75.0325 173.217 75.0312C173.138 75.0299 173.06 75.0078 172.992 74.9671C172.924 74.9264 172.868 74.8685 172.829 74.7993C172.79 74.73 172.771 74.6519 172.772 74.5726C172.87 67.3331 172.926 62.7112 172.926 62.711C172.926 62.6589 172.936 62.6075 172.954 62.5588C172.965 62.5291 174.066 59.56 174.903 56.4354C176.34 51.069 175.789 49.8382 175.522 49.5645C173.525 49.1414 147.283 54.1206 116.722 60.725C101.548 64.0042 87.5913 67.1969 77.4218 69.7149C62.0167 73.5295 59.1528 74.8258 58.686 75.2347C58.9359 77.3846 63.8076 80.5951 65.6616 81.8168C66.7558 82.5379 66.9094 82.639 66.9159 82.9028C67.1205 83.5866 68.608 88.5553 70.7899 95.7532C70.8133 95.8308 70.8154 95.9134 70.796 95.9922C70.7765 96.071 70.7362 96.1431 70.6793 96.201C70.6224 96.2588 70.551 96.3004 70.4725 96.3212C70.394 96.3421 70.3114 96.3415 70.2332 96.3195C50.1518 90.6283 41.9409 89.9411 40.9523 91.1967C39.9012 92.5311 40.1943 104.827 41.6649 121.099C43.0822 136.778 45.0085 149.695 46.146 151.144C48.2556 153.831 72.454 160.525 81.5999 162.878C81.671 162.896 81.7365 162.931 81.791 162.981C81.8454 163.03 81.887 163.091 81.9122 163.16C81.9375 163.229 81.9456 163.303 81.9358 163.376C81.9261 163.449 81.8988 163.518 81.8563 163.578C80.1393 165.996 77.5076 170.307 77.7552 171.582C78.046 173.082 83.9952 174.55 86.3399 174.252C87.2792 174.132 90.0205 170.881 92.4522 166.407C92.494 166.331 92.557 166.268 92.6336 166.226C92.7102 166.184 92.7972 166.166 92.8842 166.172C92.9711 166.179 93.0543 166.21 93.1238 166.263C93.1933 166.316 93.2461 166.387 93.2759 166.469C95.535 172.717 96.2447 173.794 96.4449 173.966C98.9165 176.097 116.36 185.78 123.745 189.844C123.823 189.887 123.887 189.952 123.928 190.031C123.969 190.11 123.986 190.2 123.977 190.289C123.967 190.377 123.932 190.461 123.874 190.53C123.817 190.598 123.741 190.648 123.656 190.674C121.698 191.259 121.135 191.581 120.977 191.703C121.221 193.425 125.295 200.509 126.986 201.048C127.059 201.071 127.393 201.131 128.645 200.941C128.715 200.931 128.788 200.937 128.856 200.959C128.924 200.982 128.985 201.02 129.036 201.071C129.086 201.122 129.123 201.184 129.145 201.252C129.166 201.321 129.171 201.393 129.159 201.463C127.959 208.621 125.022 225.532 123.673 227.979C122.332 230.415 110.239 239.697 105.102 243.575C105.036 243.624 104.959 243.655 104.877 243.664C96.8505 244.515 95.4747 244.887 95.2418 244.993C94.5517 245.711 95.8621 248.029 97.089 249.566L97.0885 249.565ZM88.977 155.797C88.9255 155.798 88.8743 155.789 88.8258 155.771C84.5639 154.262 78.6888 152.603 73.0072 150.999C60.7838 147.547 53.2966 145.317 52.3896 143.456C51.4347 141.496 50.2393 132.443 49.7252 123.274C49.4506 118.378 49.4075 114.086 49.6 110.861C49.9177 105.543 50.7808 104.393 51.4023 103.991C53.279 102.776 60.6358 103.049 73.2682 104.802C73.3537 104.813 73.4341 104.849 73.4997 104.905C73.5654 104.961 73.6137 105.035 73.6389 105.118C78.1225 119.799 84.4974 140.406 89.4067 155.203C89.4293 155.271 89.4354 155.343 89.4245 155.414C89.4136 155.485 89.386 155.552 89.344 155.61C89.3021 155.668 89.2469 155.715 89.183 155.748C89.1192 155.78 89.0485 155.797 88.9768 155.797L88.977 155.797ZM53.2037 143.06C53.4347 143.534 54.7562 144.45 59.7383 146.117C63.4676 147.365 68.2209 148.707 73.2533 150.128C78.573 151.63 84.0621 153.18 88.2586 154.616C83.4186 139.976 77.2496 120.038 72.8571 105.658C61.1328 104.044 53.499 103.712 51.8943 104.751C50.8699 105.414 49.924 110.65 50.629 123.223C51.129 132.138 52.308 141.222 53.2035 143.06L53.2037 143.06ZM171.934 143.805C171.873 143.805 171.814 143.792 171.758 143.769C171.702 143.745 171.652 143.711 171.609 143.667C171.567 143.624 171.534 143.573 171.512 143.516C171.49 143.46 171.48 143.4 171.481 143.339C171.939 127.539 172.333 104.383 172.583 87.7394C172.584 87.6561 172.609 87.5748 172.653 87.5044C172.698 87.434 172.761 87.3772 172.836 87.3404C174.053 86.7417 175.768 85.871 177.755 84.863C182.647 82.3808 189.347 78.9815 195.116 76.3296C204.342 72.0887 206.46 71.9285 207.274 72.2624C208.968 72.9572 210.703 78.6918 212.433 89.3066C213.78 97.576 214.621 106.054 214.473 108.11C214.424 108.781 214.296 110.562 196.764 124.664C190.143 129.989 181.881 136.398 172.207 143.713C172.128 143.772 172.033 143.804 171.934 143.804L171.934 143.805ZM173.484 88.0293C173.239 104.325 172.857 126.737 172.414 142.422C210.358 113.698 213.512 108.848 213.57 108.045C213.714 106.039 212.877 97.6615 211.539 89.4522C209.677 78.0257 207.937 73.5128 206.93 73.0994C206.413 72.8877 204.24 73.1316 195.495 77.1516C189.741 79.7961 183.051 83.1909 178.166 85.6696C176.307 86.6123 174.686 87.4351 173.485 88.0295L173.484 88.0293Z" fill="#1E1E1E"/>
    </g>
    <g clip-path="url(#clip1_1255_186)">
        <path d="M116.609 233.084C118.647 232.712 116.26 217.253 115.006 214.824C113.751 212.395 105.275 204.113 103.275 205.286C101.276 206.459 103.356 217.748 103.806 220.202C104.255 222.656 114.572 233.457 116.609 233.084Z" fill="#334E3B"/>
        <path d="M116.526 233.542C114.866 233.542 110.941 229.71 109.289 228.018C106.525 225.187 103.621 221.697 103.362 220.283L103.354 220.241C100.786 206.223 102.488 205.225 103.047 204.897C103.403 204.688 103.877 204.667 104.455 204.834C107.613 205.747 114.272 212.42 115.407 214.617C116.579 216.887 118.744 230.23 117.438 232.886C117.212 233.345 116.907 233.489 116.691 233.528C116.636 233.538 116.581 233.543 116.526 233.543V233.542ZM103.749 205.624C103.62 205.624 103.545 205.651 103.504 205.675C103.218 205.843 101.906 207.328 104.243 220.079L104.25 220.12C104.436 221.134 106.88 224.258 109.935 227.388C113.817 231.364 116.032 232.717 116.522 232.642C116.794 232.48 117.321 230.718 116.561 224.506C116.059 220.398 115.182 216.147 114.605 215.031C113.577 213.041 107.046 206.522 104.205 205.701C104.006 205.643 103.858 205.624 103.749 205.624H103.749Z" fill="#334E3B"/>
        <path d="M116.509 232.571C114.774 231.116 100.424 233.313 98.1362 233.834C95.8487 234.355 88.1804 244.341 88.5758 246.485C88.9711 248.63 100.908 244.797 103.379 243.554C105.474 242.5 118.245 234.026 116.509 232.571L116.509 232.571Z" fill="#334E3B"/>
        <path d="M90.2047 247.574C89.5899 247.574 89.0883 247.499 88.745 247.329C88.315 247.115 88.1742 246.797 88.1319 246.567C87.8263 244.91 91.0081 240.569 91.9907 239.278C92.6836 238.368 96.2313 233.806 98.0359 233.394C99.1185 233.148 114.696 230.463 116.799 232.226C117.042 232.429 117.153 232.725 117.114 233.059C117.067 233.468 116.922 234.714 110.919 239.118C107.833 241.381 104.566 243.462 103.582 243.957C101.992 244.757 93.9774 247.574 90.2047 247.574ZM113.384 232.532C112.101 232.532 110.25 232.628 107.577 232.91C103.466 233.345 99.3111 234.029 98.2364 234.274C97.323 234.482 94.9983 236.816 92.709 239.824C90.1181 243.229 88.8918 245.711 89.0194 246.404C89.0221 246.419 89.0304 246.463 89.1465 246.521C90.9189 247.4 100.588 244.454 103.176 243.151C104.172 242.65 107.598 240.457 110.697 238.16C116.204 234.08 116.227 232.999 116.219 232.917C116.076 232.797 115.515 232.532 113.384 232.532ZM96.7319 225.151C98.3866 224.997 100.14 212.658 98.9398 210.78C97.7395 208.902 90.6745 197.522 88.8076 197.746C86.9408 197.971 86.4889 208.61 86.8834 210.658C87.2778 212.707 95.0774 225.306 96.7321 225.151H96.7319Z" fill="#334E3B"/>
        <path d="M96.6764 225.606C96.2344 225.606 95.0097 225.199 90.957 218.977C88.9396 215.88 86.6711 211.942 86.4402 210.744C86.0902 208.926 86.3738 199.966 87.9113 197.86C88.1556 197.526 88.439 197.337 88.7537 197.299C89.754 197.177 91.7544 198.597 99.001 210.035C99.1319 210.241 99.2395 210.411 99.3204 210.538C100.46 212.32 99.3128 221.601 97.8798 224.532C97.6675 224.966 97.3219 225.549 96.7744 225.601C96.7468 225.603 96.7144 225.606 96.6765 225.606H96.6764ZM88.871 198.194C88.8672 198.194 88.8642 198.194 88.8616 198.194C88.8228 198.199 88.7414 198.253 88.6407 198.392C87.3528 200.155 86.9618 208.677 87.3268 210.573C87.4997 211.472 89.4211 214.949 91.6096 218.325C94.5252 222.823 96.2245 224.585 96.6848 224.698C96.7561 224.649 97.0804 224.359 97.5194 222.951C98.6876 219.204 99.3 212.181 98.5598 211.023C98.4784 210.896 98.3703 210.725 98.2386 210.517C97.3689 209.145 95.3321 205.93 93.3357 203.144C89.9304 198.393 89.0019 198.194 88.8712 198.194H88.871Z" fill="#334E3B"/>
        <path d="M96.5371 225.68C97.0096 227.306 87.4239 234.884 85.6567 235.697C83.8895 236.509 68.5588 238.371 67.5047 236.082C66.4508 233.792 77.7541 224.103 79.8334 223.956C81.9125 223.809 96.0647 224.054 96.5371 225.68Z" fill="#334E3B"/>
        <path d="M72.7213 237.639C67.7241 237.639 67.265 236.64 67.0948 236.271C66.8533 235.746 67.0071 235.033 67.5651 234.091C69.7408 230.418 77.872 223.643 79.8015 223.507C80.9217 223.428 85.0884 223.466 88.8165 223.703C96.5765 224.198 96.8426 225.114 96.9706 225.554C97.0791 225.928 97.3674 226.92 92.2312 231.335C89.7439 233.474 86.8195 235.659 85.8454 236.107C84.8346 236.571 80.3057 237.237 76.3436 237.503C74.9276 237.598 73.7314 237.639 72.7213 237.639ZM81.5674 224.371C80.787 224.371 80.1878 224.384 79.8652 224.407C78.3551 224.513 70.4689 230.96 68.3419 234.551C67.7962 235.472 67.877 235.812 67.9148 235.894C68.1256 236.352 70.1253 237.016 76.283 236.603C80.3846 236.328 84.6617 235.658 85.4679 235.287C86.2469 234.929 88.9377 232.969 91.553 230.728C95.1937 227.61 96.1175 226.165 96.1036 225.816C95.9987 225.69 95.1251 224.993 88.5183 224.589C86.0127 224.435 83.3286 224.371 81.567 224.371L81.5674 224.371ZM79.2 217.029C80.9834 217.111 84.9153 206.124 84.1479 204.169C83.3805 202.214 80.6655 191.25 79.0694 191.461C77.4734 191.672 73.0685 201.431 73.0566 203.229C73.0445 205.027 77.4165 216.946 79.2 217.029Z" fill="#334E3B"/>
        <path d="M79.2217 217.48C79.2073 217.48 79.193 217.479 79.1788 217.479C78.8083 217.462 77.6811 217.41 75.0369 210.942C73.8359 208.005 72.5978 204.315 72.605 203.226C72.6122 202.164 73.8467 199.066 75.0625 196.553C76.7841 192.996 78.112 191.132 79.01 191.014C80.3509 190.836 81.5876 194.156 83.6868 201.197C84.0603 202.45 84.3829 203.532 84.5677 204.003C85.2794 205.816 82.6424 213.664 80.7019 216.372C80.1612 217.126 79.6895 217.48 79.2217 217.48ZM79.1118 191.911C78.7469 192.01 77.5658 193.447 75.8625 196.971C74.569 199.648 73.5125 202.456 73.5073 203.231C73.5024 203.96 74.4608 207.137 75.8439 210.532C77.8151 215.369 78.947 216.534 79.2203 216.577C79.2394 216.575 79.5301 216.517 80.1197 215.625C82.0994 212.633 84.2099 205.563 83.727 204.333C83.5281 203.826 83.2161 202.78 82.8211 201.455C82.2586 199.568 81.5585 197.219 80.8438 195.278C79.7503 192.308 79.2115 191.953 79.1114 191.911H79.1118Z" fill="#334E3B"/>
        <path d="M79.42 216.749C79.9199 218.292 65.9746 223.044 64.0437 223.72C62.1126 224.396 48.9233 220.961 49.0087 218.256C49.0941 215.551 61.4737 213.052 63.5523 212.508C65.6309 211.964 78.9201 215.206 79.42 216.749V216.749Z" fill="#334E3B"/>
        <path d="M63.2624 224.259C60.2194 224.259 52.5688 222.121 49.8028 220.095C48.9453 219.466 48.5378 218.86 48.5573 218.242C48.6324 215.865 55.1535 214.016 62.1894 212.371C62.7411 212.242 63.1769 212.14 63.4377 212.072C64.6487 211.755 68.7065 212.515 72.1901 213.409C75.4849 214.255 79.4883 215.497 79.8492 216.61C80.0676 217.285 79.7478 218.16 73.3753 220.751C69.9254 222.154 66.0424 223.503 64.5807 224.011L64.1925 224.146C63.9735 224.223 63.6565 224.259 63.2624 224.259V224.259ZM64.2124 212.896C63.9773 212.896 63.7928 212.911 63.6663 212.945C63.394 213.016 62.9532 213.119 62.395 213.249C60.4588 213.702 57.2182 214.46 54.4008 215.409C49.9755 216.899 49.471 217.907 49.4594 218.271C49.4506 218.552 49.7703 218.952 50.3364 219.367C53.4805 221.671 62.6012 223.748 63.8941 223.295L64.2842 223.159C77.114 218.701 78.7581 217.197 78.9628 216.85C78.6384 216.448 76.5112 215.44 71.8383 214.25C68.5976 213.425 65.5672 212.896 64.2124 212.896ZM66.2278 205.772C63.7159 206.757 60.3969 198.995 59.5809 196.847C58.7649 194.698 58.909 180.552 61.4593 180.219C64.0096 179.887 67.4462 189.602 68.3916 191.633C69.3239 193.635 68.7397 204.786 66.2278 205.772Z" fill="#334E3B"/>
        <path d="M65.774 206.309C65.5072 206.309 65.2322 206.247 64.9512 206.122C62.2286 204.917 59.4651 197.812 59.1591 197.006C58.3523 194.882 58.4399 183.692 60.2444 180.678C60.5697 180.134 60.9589 179.829 61.4011 179.772C63.6763 179.478 65.9706 184.589 68.1294 189.85C68.4173 190.552 68.6448 191.107 68.8009 191.442C69.6519 193.27 69.3089 200.83 67.9526 204.217C67.5172 205.305 67.007 205.95 66.393 206.191C66.196 206.269 65.9859 206.309 65.774 206.309ZM61.5814 180.662C61.5579 180.662 61.5368 180.664 61.5177 180.666C61.3675 180.686 61.1904 180.854 61.0189 181.141C59.3181 183.981 59.3629 195.001 60.0029 196.686C60.9913 199.288 63.3735 204.437 65.3167 205.297C65.5962 205.421 65.8403 205.439 66.063 205.351C66.4172 205.212 66.7906 204.69 67.1144 203.882C68.4326 200.59 68.6684 193.296 67.9826 191.822C67.8178 191.468 67.5867 190.905 67.2942 190.192C66.6064 188.515 65.5669 185.982 64.4563 183.947C62.8711 181.043 61.9531 180.662 61.5818 180.662L61.5814 180.662Z" fill="#334E3B"/>
        <path d="M65.111 205.749C64.8516 207.431 54.1017 212.611 50.9908 212.7C47.8798 212.789 35.6585 210.042 35.3773 207.495C35.096 204.949 46.2983 203.115 48.8304 202.815C51.3623 202.515 65.3704 204.067 65.111 205.749Z" fill="#334E3B"/>
        <path d="M50.8739 213.152C47.8676 213.152 35.2663 210.603 34.9286 207.545C34.7762 206.165 36.6842 204.999 40.9333 203.876C44.2 203.013 47.703 202.494 48.7771 202.366C50.8889 202.115 63.5781 203.314 65.2915 205.086C65.561 205.365 65.5847 205.638 65.557 205.817C65.3588 207.102 61.563 209.131 59.3182 210.226C56.6198 211.543 52.8231 213.098 51.0036 213.15C50.9628 213.151 50.9192 213.152 50.8739 213.152ZM49.7128 203.226C49.3689 203.226 49.0874 203.238 48.8834 203.262C47.8268 203.387 44.3805 203.898 41.1642 204.748C37.1263 205.815 35.7592 206.841 35.8258 207.446C35.898 208.099 37.623 209.331 42.2468 210.652C45.8758 211.688 49.6034 212.29 50.9777 212.248C52.3339 212.21 55.5225 211.073 58.9127 209.42C62.6455 207.601 64.4804 206.191 64.6535 205.721C64.4067 205.399 62.6453 204.648 57.4843 203.916C54.543 203.499 51.3865 203.226 49.7128 203.226ZM57.1836 199.002C58.0315 197.693 50.7181 187.344 48.7569 186.18C46.7956 185.017 34.7648 180.327 33.1908 182.053C31.8294 183.547 38.2792 193.501 39.844 194.911C41.4086 196.32 56.3356 200.312 57.1836 199.002Z" fill="#334E3B"/>
        <path d="M56.1109 199.713C52.3066 199.713 40.9916 196.553 39.5418 195.247C38.2064 194.043 32.7029 185.813 32.5554 182.816C32.5326 182.353 32.6343 181.995 32.8572 181.75C33.1605 181.417 34.0832 180.405 40.966 182.604C44.3444 183.683 47.9048 185.151 48.9871 185.793C50.8685 186.909 56.9749 195.394 57.638 198.219C57.745 198.676 57.721 199.003 57.5624 199.248C57.3607 199.559 56.9681 199.644 56.69 199.681C56.5241 199.702 56.3297 199.713 56.1107 199.713L56.1109 199.713ZM34.5349 182.124C33.9806 182.124 33.6546 182.215 33.5246 182.357C33.5107 182.373 33.4419 182.465 33.4569 182.772C33.5844 185.361 38.8165 193.379 40.1462 194.576C40.7858 195.153 44.4908 196.419 48.5811 197.461C53.775 198.783 56.3348 198.947 56.8027 198.738C56.8608 198.284 56.0483 196.294 53.5324 192.618C51.5101 189.662 49.3581 187.062 48.5265 186.569C47.6078 186.024 44.1825 184.579 40.6912 183.463C37.5946 182.474 35.624 182.124 34.5349 182.124V182.124Z" fill="#334E3B"/>
        <path d="M124.332 235.452C112.184 231.083 98.8178 226.334 90.937 222.406C80.4163 217.163 69.6841 210.47 57.1836 199.002C68.8103 211.07 83.9417 220.363 90.0082 223.445C95.7051 226.339 123.632 236.604 123.632 236.604L124.332 235.452Z" fill="#334E3B"/>
        <path d="M123.631 237.055C123.58 237.055 123.527 237.046 123.476 237.028C122.335 236.608 95.4593 226.721 89.8035 223.848C83.4961 220.643 68.4931 211.392 56.8584 199.315C56.7758 199.231 56.7296 199.118 56.7295 199C56.7294 198.882 56.7755 198.769 56.8579 198.685C56.9402 198.6 57.0524 198.552 57.1703 198.549C57.2881 198.546 57.4024 198.59 57.4886 198.67C68.3201 208.607 78.6978 215.803 91.1382 222.003C98.614 225.729 110.865 230.133 122.713 234.391L124.484 235.028C124.547 235.051 124.604 235.087 124.651 235.135C124.699 235.182 124.735 235.239 124.757 235.302C124.779 235.365 124.787 235.432 124.78 235.499C124.773 235.565 124.752 235.629 124.717 235.687L124.017 236.839C123.977 236.905 123.92 236.96 123.853 236.998C123.785 237.036 123.709 237.055 123.631 237.055ZM77.9997 215.661C83.0581 219.097 87.4659 221.648 90.2124 223.043C95.4772 225.718 120.198 234.858 123.439 236.052L123.659 235.69L122.407 235.24C110.535 230.972 98.2584 226.559 90.7352 222.81C86.2637 220.582 82.0563 218.225 77.9995 215.661H77.9997Z" fill="#334E3B"/>
    </g>
    <g clip-path="url(#clip2_1255_186)">
        <path d="M172.866 230.611C170.975 230.851 166.781 218.728 166.85 216.192C166.919 213.657 170.672 201.783 172.802 201.992C174.932 202.201 178.217 214.814 178.827 217.057C179.436 219.301 174.756 230.37 172.866 230.611Z" fill="#334E3B"/>
        <path d="M172.81 231.066C172.519 231.066 172.218 230.926 171.911 230.649C169.786 228.727 166.333 218.609 166.399 216.18C166.461 213.881 169.438 204.032 171.771 201.975C172.135 201.654 172.497 201.51 172.847 201.543C173.933 201.65 175.631 203.449 179.151 216.522L179.263 216.939C179.814 218.965 176.814 226.342 174.826 229.314C173.84 230.786 173.268 231.015 172.923 231.059C172.885 231.063 172.848 231.066 172.81 231.066ZM172.748 202.441C172.704 202.441 172.584 202.463 172.369 202.652C170.395 204.392 167.366 213.841 167.302 216.205C167.244 218.346 170.53 228.012 172.45 229.916C172.691 230.155 172.804 230.163 172.81 230.163C172.854 230.157 173.233 230.07 174.075 228.813C176.262 225.544 178.804 218.692 178.392 217.176L178.279 216.758C177.865 215.222 176.897 211.625 175.78 208.386C173.861 202.823 172.927 202.458 172.759 202.442C172.755 202.441 172.752 202.441 172.748 202.441L172.748 202.441Z" fill="#334E3B"/>
        <path d="M172.838 230.064C173.777 228.001 187.684 223.796 189.974 223.281C192.265 222.765 203.501 228.476 204.07 230.583C204.639 232.69 190.518 235.479 187.75 235.422C185.404 235.373 171.9 232.126 172.839 230.064H172.838Z" fill="#334E3B"/>
        <path d="M187.831 235.874C187.8 235.874 187.77 235.874 187.74 235.873C185.672 235.83 173.983 233.187 172.527 230.874C172.261 230.452 172.326 230.099 172.427 229.877C173.565 227.377 188.791 223.084 189.875 222.84C191.683 222.433 196.855 225.024 197.874 225.547C199.319 226.289 204.066 228.837 204.506 230.466C204.565 230.683 204.572 231.023 204.272 231.406C202.563 233.589 190.583 235.874 187.831 235.874L187.831 235.874ZM190.335 223.697C190.234 223.697 190.147 223.705 190.073 223.721C188.997 223.964 184.95 225.138 181.05 226.518C174.302 228.906 173.373 229.979 173.25 230.251C173.244 230.263 173.23 230.295 173.292 230.393C174.388 232.134 185.424 234.922 187.759 234.971C187.786 234.971 187.815 234.972 187.845 234.972C190.531 234.972 202.154 232.647 203.561 230.85C203.619 230.776 203.639 230.721 203.634 230.701C203.45 230.02 201.271 228.307 197.461 226.35C194.365 224.76 191.488 223.697 190.335 223.697L190.335 223.697ZM189.321 216.91C187.576 217.493 181.545 206.339 181.405 203.984C181.225 200.946 182.484 188.607 184.472 187.998C186.46 187.389 191.299 200.623 191.706 202.779C192.112 204.936 191.065 216.327 189.321 216.91Z" fill="#334E3B"/>
        <path d="M189.181 217.383C188.929 217.383 188.654 217.283 188.359 217.084C185.892 215.417 181.082 206.158 180.954 204.01C180.867 202.537 181.119 198.678 181.678 195.012C182.741 188.056 183.944 187.687 184.339 187.566C184.622 187.48 184.923 187.531 185.234 187.719C187.701 189.209 191.814 200.92 192.149 202.695C192.368 203.853 192.2 207.278 191.768 210.494C190.912 216.853 189.822 217.218 189.464 217.338C189.374 217.368 189.279 217.383 189.182 217.383H189.181ZM184.61 188.429C184.608 188.429 184.606 188.429 184.604 188.429C184.212 188.549 183.342 190.099 182.571 195.148C182.02 198.756 181.771 202.53 181.856 203.957C181.963 205.763 186.301 214.211 188.659 216.179C189.01 216.472 189.159 216.482 189.181 216.48C189.439 216.384 190.235 215.111 190.872 210.374C191.322 207.03 191.436 203.79 191.262 202.862C190.827 200.56 186.704 189.661 184.766 188.491C184.679 188.438 184.628 188.428 184.61 188.428V188.429Z" fill="#334E3B"/>
        <path d="M189.712 217.326C189.766 219.019 203.04 222.544 205.091 222.551C207.037 222.558 220.27 220.751 220.564 218.246C220.858 215.741 207.1 210.015 205.076 210.518C203.051 211.022 189.658 215.632 189.712 217.326Z" fill="#334E3B"/>
        <path d="M205.103 223.002H205.089C203.981 222.998 200.058 222.082 196.521 221.002C189.307 218.799 189.273 217.739 189.261 217.339C189.246 216.881 189.216 215.927 196.448 213.055C199.922 211.676 203.876 210.351 204.966 210.08C206.844 209.611 216.682 213.546 219.89 216.369C220.713 217.093 221.08 217.724 221.013 218.298C220.957 218.778 220.785 220.239 213.542 221.782C210.03 222.529 206.212 223.002 205.103 223.002L205.103 223.002ZM190.17 217.312C190.34 217.661 191.953 218.679 197.005 220.205C200.686 221.317 204.221 222.096 205.092 222.099C205.97 222.097 209.676 221.681 213.353 220.898C219.645 219.559 220.09 218.409 220.116 218.192C220.126 218.103 220.098 217.754 219.293 217.046C216.157 214.287 206.655 210.59 205.185 210.956C204.162 211.21 200.378 212.477 197.006 213.806C190.942 216.196 190.249 217.138 190.17 217.312ZM203.533 203.728C201.861 204.358 195.456 195.028 194.841 193.018C194.05 190.435 193.24 177.649 194.825 177.356C196.409 177.063 204.537 186.985 205.106 188.693C205.674 190.4 205.205 203.098 203.533 203.728Z" fill="#334E3B"/>
        <path d="M203.357 204.209C203.149 204.209 202.921 204.149 202.674 204.028C200.163 202.795 194.962 194.956 194.409 193.15C193.721 190.905 192.83 179.516 194.121 177.389C194.286 177.119 194.495 176.958 194.743 176.912C195.074 176.851 196.085 176.664 200.688 181.979C202.782 184.397 205.192 187.522 205.534 188.551C205.879 189.585 205.843 193.48 205.61 196.648C205.096 203.621 204.039 204.02 203.692 204.15C203.585 204.19 203.471 204.21 203.357 204.21L203.357 204.209ZM194.929 177.802C194.663 178.075 194.238 179.811 194.405 184.665C194.521 188.066 194.902 191.677 195.273 192.886C195.533 193.737 197.141 196.416 199.118 199.047C201.883 202.726 203.146 203.375 203.373 203.306C203.619 203.182 204.336 201.724 204.714 196.507C204.979 192.848 204.907 189.528 204.677 188.836C204.084 187.055 196.304 177.919 194.929 177.803V177.802Z" fill="#334E3B"/>
        <path d="M203.236 203.53C203.238 205.153 217.982 205.363 220.03 205.409C222.077 205.455 233.599 200.255 232.68 197.707C231.76 195.159 219.171 194.46 217.024 194.585C214.878 194.71 203.234 201.907 203.236 203.53V203.53Z" fill="#334E3B"/>
        <path d="M220.054 205.861C220.043 205.861 220.031 205.861 220.02 205.86L219.61 205.852C218.061 205.82 213.949 205.738 210.23 205.469C203.362 204.974 202.786 204.24 202.785 203.531C202.783 202.359 206.209 199.939 209.083 198.115C212.121 196.186 215.747 194.207 216.998 194.134C218.128 194.071 231.977 194.427 233.104 197.554C233.287 198.061 233.155 198.63 232.711 199.246C230.718 202.014 222.101 205.861 220.054 205.861L220.054 205.861ZM203.703 203.485C204.005 203.752 206.036 204.675 219.628 204.949L220.04 204.958C221.536 204.987 230.065 201.376 231.978 198.718C232.156 198.471 232.349 198.121 232.255 197.86C232.137 197.534 231.285 196.407 225.252 195.591C221.698 195.11 218.079 194.975 217.051 195.036C216.167 195.087 212.998 196.708 209.678 198.807C205.6 201.385 203.887 203.002 203.703 203.485ZM212.392 189.001C215.039 188.467 214.935 177.443 214.454 175.193C213.972 172.944 206.525 163.441 204.2 164.546C201.876 165.651 202.582 176.067 202.891 178.288C203.195 180.477 209.745 189.536 212.392 189.001L212.392 189.001Z" fill="#334E3B"/>
        <path d="M212.151 189.475C211.573 189.475 210.897 189.197 210.097 188.63C207.116 186.518 202.721 180.348 202.443 178.349C202.425 178.223 200.986 165.573 204.006 164.138C204.485 163.91 205.099 163.977 205.832 164.338C208.917 165.859 214.447 173.003 214.895 175.099C215.333 177.144 215.452 185.83 213.685 188.524C213.346 189.041 212.94 189.35 212.481 189.443C212.372 189.465 212.262 189.476 212.151 189.475ZM204.624 164.909C204.534 164.909 204.457 164.924 204.394 164.954C202.626 165.793 202.854 174.749 203.338 178.226C203.561 179.837 207.723 185.841 210.62 187.893C211.331 188.398 211.929 188.634 212.302 188.558C212.516 188.515 212.727 188.337 212.929 188.029C214.509 185.62 214.45 177.337 214.012 175.288C213.643 173.565 208.453 166.637 205.432 165.148C205.111 164.99 204.834 164.909 204.624 164.909Z" fill="#334E3B"/>
        <path d="M213.079 189.36C214.141 190.693 226.055 189.854 228.802 188.386C231.548 186.918 239.557 181.656 238.536 179.304C237.514 176.952 228.111 177.728 225.762 178.725C223.414 179.722 212.017 188.028 213.079 189.36H213.079Z" fill="#334E3B"/>
        <path d="M217.279 190.483C215.256 190.483 213.253 190.303 212.725 189.641C212.612 189.499 212.497 189.251 212.593 188.875C213.199 186.484 223.627 179.141 225.585 178.31C227.974 177.295 237.751 176.365 238.95 179.124C239.492 180.372 238.32 182.139 235.366 184.527C233.057 186.394 230.302 188.095 229.014 188.784C227.408 189.642 223.336 190.177 220.338 190.374C219.464 190.431 218.368 190.483 217.279 190.483ZM213.463 189.109C213.847 189.432 216.142 189.745 220.289 189.472C224.056 189.224 227.391 188.628 228.588 187.988C232.373 185.965 238.867 181.2 238.121 179.484C237.302 177.599 228.369 178.109 225.939 179.141C224.829 179.612 221.623 181.783 218.793 183.981C214.674 187.18 213.517 188.707 213.463 189.109H213.463ZM218.903 179.761C217.396 179.35 216.281 170.081 216.966 167.905C217.65 165.729 224.481 154.66 226.808 154.896C228.821 155.101 228.271 165.497 228.046 167.592C227.821 169.688 220.41 180.171 218.903 179.761L218.903 179.761Z" fill="#334E3B"/>
        <path d="M218.998 180.225C218.924 180.225 218.853 180.215 218.784 180.197C218.461 180.109 218.178 179.836 217.92 179.364C216.635 177.014 215.912 169.75 216.535 167.77C216.918 166.55 218.917 163.102 220.9 160.239C223.646 156.273 225.65 154.33 226.854 154.447C227.158 154.478 227.426 154.636 227.653 154.915C229.395 157.062 228.506 167.538 228.495 167.641C228.275 169.694 222.243 178.268 219.889 179.874C219.543 180.11 219.254 180.225 218.998 180.225V180.225ZM226.724 155.344C226.099 155.344 224.414 156.75 221.642 160.753C219.533 163.799 217.712 167.038 217.397 168.04C217.097 168.991 217.163 171.657 217.552 174.38C218.048 177.848 218.738 179.19 219.009 179.32C219.426 179.276 221.051 177.854 223.725 174.165C225.841 171.247 227.505 168.4 227.597 167.544C227.89 164.804 228.137 156.945 226.951 155.483C226.903 155.424 226.832 155.352 226.762 155.345C226.75 155.344 226.737 155.343 226.724 155.343V155.344Z" fill="#334E3B"/>
        <path d="M166.286 235.225C176.494 227.308 190.604 215.574 194.483 211.482C200.46 205.177 210.932 191.735 218.903 179.761C213.009 191.835 200.926 207.07 195.445 212.725C189.924 218.421 166.849 236.636 166.849 236.636L166.286 235.225V235.225Z" fill="#334E3B"/>
        <path d="M166.849 237.087C166.759 237.087 166.671 237.06 166.596 237.009C166.521 236.959 166.463 236.887 166.43 236.803L165.867 235.392C165.83 235.301 165.825 235.201 165.85 235.106C165.876 235.012 165.932 234.928 166.009 234.868C176.138 227.013 190.327 215.21 194.155 211.172C200.465 204.515 210.943 190.903 218.527 179.511C218.59 179.415 218.688 179.347 218.799 179.321C218.911 179.294 219.028 179.311 219.128 179.368C219.227 179.425 219.302 179.518 219.335 179.628C219.369 179.737 219.359 179.856 219.309 179.959C213.198 192.477 200.963 207.681 195.77 213.039C190.291 218.692 167.36 236.807 167.129 236.99C167.05 237.053 166.951 237.087 166.849 237.087ZM166.832 235.373L167.044 235.906C170.369 233.271 190.121 217.569 195.121 212.411C199.158 208.245 207.482 198.088 213.817 187.911C207.174 197.203 199.733 206.599 194.811 211.792C190.876 215.943 176.984 227.485 166.832 235.373Z" fill="#334E3B"/>
    </g>
    <g clip-path="url(#clip3_1255_186)">
        <path d="M79.7815 88.7884C79.7815 88.7884 46.4638 78.684 43.7103 82.1811C40.9568 85.6782 46.3745 142.426 49.186 146.009C51.9975 149.592 86.8267 158.555 86.8267 158.555C86.8267 158.555 82.0258 165.317 82.4229 167.366C82.82 169.414 89.6063 170.871 92.0042 170.565C94.4021 170.258 101.815 158.416 101.639 154.049C101.463 149.683 58.543 141.438 56.5743 137.396C54.6055 133.354 51.5814 98.8233 55.3636 96.3741C59.1459 93.9249 86.6957 98.6106 86.6957 98.6106L79.7815 88.7884Z" fill="url(#paint0_linear_1255_186)"/>
        <path d="M91.2638 171.057C88.3122 171.057 82.4059 169.659 81.978 167.452C81.611 165.559 84.8929 160.562 86.0831 158.829C83.9178 158.264 76.5072 156.308 68.9314 154.059C50.6756 148.641 49.286 146.871 48.8293 146.289C47.2673 144.298 45.1842 128.21 43.91 114.104C43.4645 109.174 41.3447 84.4532 43.3542 81.9009C44.1701 80.865 47.0823 79.9272 62.8844 83.7331C71.4714 85.8012 79.8293 88.3297 79.9127 88.3549C80.0094 88.3842 80.0935 88.4451 80.1516 88.5276L87.0658 98.3498C87.1172 98.4229 87.1458 98.5096 87.1479 98.5989C87.1501 98.6882 87.1258 98.7762 87.0781 98.8518C87.0304 98.9273 86.9614 98.9871 86.8798 99.0235C86.7982 99.0599 86.7076 99.0714 86.6195 99.0565C79.0051 97.7616 58.5911 94.8235 55.6097 96.7538C54.1799 97.6796 53.6518 105.337 54.2643 116.262C54.7916 125.669 56.0358 135.257 56.9812 137.197C57.227 137.702 58.6244 138.673 63.886 140.435C67.8188 141.751 72.8313 143.167 78.1381 144.666C83.883 146.289 89.8235 147.967 94.2827 149.512C101.098 151.873 102.055 153.121 102.091 154.031C102.189 156.461 100.132 160.807 98.1744 164.063C97.5034 165.179 94.0558 170.759 92.0611 171.013C91.8314 171.043 91.5627 171.057 91.2637 171.057H91.2638ZM46.6805 81.8928C44.869 81.8928 44.2625 82.2109 44.0658 82.4608C42.9539 83.8732 43.2607 96.8517 44.8119 114.022C46.3066 130.567 48.3402 144.198 49.542 145.73C51.7705 148.57 77.293 155.634 86.939 158.116C87.0101 158.134 87.0757 158.17 87.1302 158.219C87.1846 158.268 87.2262 158.33 87.2515 158.399C87.2767 158.468 87.2848 158.542 87.2751 158.615C87.2653 158.687 87.238 158.757 87.1955 158.817C85.3827 161.371 82.6048 165.927 82.8671 167.28C83.1756 168.871 89.4675 170.431 91.9462 170.115C92.7511 170.013 94.9353 167.693 97.398 163.596C99.7731 159.646 101.26 155.905 101.186 154.068C101.171 153.7 100.44 152.603 93.986 150.367C89.5516 148.831 83.6241 147.157 77.8917 145.538C65.0093 141.898 57.1187 139.548 56.1667 137.594C55.161 135.529 53.9018 125.982 53.3596 116.313C53.0703 111.15 53.0246 106.623 53.2277 103.221C53.5619 97.6233 54.4661 96.4155 55.1169 95.994C55.7356 95.5934 57.6178 94.3744 72.5005 96.1242C78.101 96.7826 83.481 97.6269 85.7032 97.9878L79.5006 89.1764C78.3399 88.8279 70.6011 86.5227 62.6685 84.6124C53.8061 82.478 49.136 81.8928 46.6802 81.8928H46.6805Z" fill="url(#paint1_linear_1255_186)"/>
        <path d="M101.639 154.05C101.574 152.452 96.3628 150.518 88.5601 148.151L96.7811 165.428C99.3946 161.321 101.756 156.979 101.639 154.05Z" fill="url(#paint2_linear_1255_186)"/>
        <path d="M96.7812 165.881C96.6956 165.881 96.6117 165.857 96.5393 165.811C96.4669 165.765 96.4089 165.7 96.3721 165.623L88.1511 148.346C88.1134 148.267 88.0995 148.178 88.1111 148.091C88.1228 148.004 88.1594 147.922 88.2167 147.856C88.2739 147.789 88.3493 147.741 88.4336 147.717C88.5179 147.692 88.6075 147.693 88.6915 147.718C98.5162 150.698 102.023 152.35 102.091 154.032C102.193 156.565 100.673 160.155 97.1632 165.671C97.1223 165.736 97.0659 165.788 96.9991 165.825C96.9323 165.862 96.8574 165.881 96.7812 165.881V165.881ZM89.4105 148.884L96.8368 164.492C98.8778 161.226 101.3 156.892 101.186 154.068C101.176 153.816 100.828 153.092 97.823 151.805C95.9511 151.003 93.2621 150.069 89.4105 148.884ZM86.6953 98.6111L79.7811 88.7889C79.7811 88.7889 72.4566 86.5676 64.3921 84.5684L69.0379 96.202C77.524 97.0513 86.6953 98.6111 86.6953 98.6111Z" fill="url(#paint3_linear_1255_186)"/>
        <path d="M86.6955 99.0636C86.67 99.0635 86.6446 99.0614 86.6194 99.0571C86.528 99.0415 77.3655 97.49 68.9928 96.6522C68.9103 96.6439 68.8317 96.6132 68.7655 96.5633C68.6993 96.5135 68.648 96.4465 68.6173 96.3695L63.9715 84.7359C63.9404 84.6585 63.9314 84.5741 63.9453 84.4919C63.9593 84.4098 63.9956 84.3331 64.0504 84.2703C64.1052 84.2075 64.1763 84.161 64.2558 84.136C64.3354 84.1111 64.4203 84.1085 64.5011 84.1287C72.4845 86.1077 79.8393 88.3331 79.9127 88.3554C80.0092 88.3847 80.0934 88.4456 80.1514 88.5282L87.0656 98.3503C87.1133 98.4181 87.1414 98.4977 87.147 98.5804C87.1525 98.6631 87.1353 98.7457 87.0971 98.8193C87.0589 98.8929 87.0012 98.9545 86.9304 98.9976C86.8596 99.0407 86.7784 99.0635 86.6955 99.0636ZM69.3567 95.779C76.0014 96.4548 83.0705 97.5608 85.7035 97.9885L79.5009 89.1771C78.4611 88.8648 72.1403 86.9816 65.1408 85.2217L69.3567 95.779Z" fill="url(#paint4_linear_1255_186)"/>
        <path d="M182.162 65.7231C182.162 65.7231 217.882 45.685 221.807 47.5414C225.731 49.3978 239.67 101.873 238.561 106.484C237.452 111.096 191.248 140.374 191.248 140.374C191.248 140.374 201.165 145.143 201.12 148.043C201.076 150.943 193.883 155.828 191.721 155.915C189.561 156.002 177.973 143.545 179.234 140.219C180.494 136.893 224.582 110.918 224.894 106.589C225.206 102.261 219.565 67.3394 215.872 65.8234C212.18 64.3075 180.785 80.114 180.785 80.114L182.162 65.7229L182.162 65.7231Z" fill="url(#paint5_linear_1255_186)"/>
        <path d="M191.705 156.368C189.839 156.368 184.322 150.583 181.479 146.64C179.233 143.525 178.336 141.311 178.81 140.059C179.384 138.544 186.466 133.8 197.973 126.184C204.29 122.003 210.822 117.679 215.903 114.027C223.245 108.75 224.405 107.082 224.442 106.557C224.587 104.554 223.334 95.0108 221.441 85.2379C218.859 71.91 216.782 66.6864 215.7 66.2423C215.06 65.9795 211.97 66.0945 197.131 72.8126C188.924 76.528 181.068 80.4789 180.989 80.5184C180.917 80.5547 180.836 80.571 180.755 80.5655C180.675 80.5601 180.597 80.5332 180.53 80.4875C180.463 80.4419 180.41 80.3792 180.375 80.306C180.341 80.2327 180.327 80.1516 180.334 80.0711L181.711 65.68C181.718 65.6073 181.742 65.5373 181.782 65.476C181.822 65.4148 181.876 65.3641 181.94 65.3284C182.03 65.2782 190.987 60.2595 200.308 55.5325C219.346 45.8774 221.344 46.8218 222.001 47.1323C222.668 47.4479 223.877 48.7868 226.664 56.7364C228.4 61.688 230.475 68.4795 232.508 75.8596C236.192 89.2312 239.605 104.081 239.002 106.59C238.82 107.345 238.268 109.643 214.743 125.533C204.785 132.259 194.818 138.637 192.17 140.324C194.605 141.554 201.615 145.333 201.573 148.05C201.525 151.259 194.063 156.274 191.74 156.367C191.728 156.368 191.717 156.368 191.705 156.368H191.705ZM215.216 65.2567C215.683 65.2567 215.899 65.3452 216.044 65.405C216.684 65.6675 217.719 66.6466 219.318 72.0968C220.278 75.368 221.32 79.8527 222.33 85.0659C224.104 94.2248 225.513 104.298 225.346 106.622C225.168 109.094 214.59 116.272 198.473 126.939C189.468 132.898 180.157 139.061 179.657 140.379C179.317 141.276 180.273 143.418 182.214 146.11C185.715 150.966 190.655 155.462 191.69 155.462C191.694 155.462 191.699 155.462 191.703 155.462C193.589 155.386 200.627 150.684 200.668 148.036C200.697 146.135 194.785 142.577 191.052 140.781C190.979 140.746 190.917 140.693 190.872 140.626C190.827 140.558 190.801 140.481 190.796 140.4C190.792 140.319 190.809 140.239 190.845 140.167C190.882 140.095 190.938 140.035 191.006 139.991C191.121 139.918 202.686 132.584 214.237 124.782C234.451 111.128 237.878 107.391 238.121 106.378C238.606 104.362 235.757 91.0623 231.635 76.0999C229.607 68.7389 227.538 61.9683 225.809 57.0358C223.04 49.1377 221.897 48.0851 221.613 47.9508C220.935 47.6306 217.545 47.8065 200.72 56.3388C192.2 60.6593 183.984 65.2246 182.59 66.0025L181.314 79.3441C183.457 78.2772 189.988 75.0526 196.757 71.9882C209.583 66.1816 213.709 65.2567 215.216 65.2567Z" fill="url(#paint6_linear_1255_186)"/>
        <path d="M179.233 140.22C178.337 142.584 182.529 147.61 186.435 151.809L188.56 133.006C183.836 136.047 179.548 139.389 179.233 140.22Z" fill="url(#paint7_linear_1255_186)"/>
        <path d="M186.435 152.261C186.311 152.261 186.19 152.21 186.103 152.116C180.274 145.85 178.025 142.131 178.81 140.059C179.218 138.983 184.061 135.362 188.315 132.625C188.387 132.578 188.471 132.553 188.556 132.553C188.642 132.552 188.726 132.576 188.799 132.621C188.872 132.666 188.93 132.731 188.968 132.808C189.005 132.885 189.02 132.971 189.01 133.056L186.885 151.859C186.873 151.969 186.82 152.072 186.737 152.146C186.654 152.22 186.546 152.261 186.435 152.261ZM179.657 140.38C178.811 142.615 183.685 148.155 186.096 150.776L188.003 133.908C183.275 137.015 179.882 139.818 179.657 140.38ZM182.162 65.723L180.785 80.1141C180.785 80.1141 185.024 77.9799 190.569 75.3552L191.325 60.7461C185.126 64.0287 182.161 65.7228 182.161 65.7228L182.162 65.723Z" fill="url(#paint8_linear_1255_186)"/>
        <path d="M180.785 80.5673C180.722 80.5672 180.659 80.554 180.602 80.5285C180.544 80.5029 180.492 80.4656 180.45 80.419C180.407 80.3723 180.375 80.3173 180.355 80.2575C180.335 80.1976 180.328 80.1343 180.334 80.0715L181.711 65.6804C181.718 65.6083 181.742 65.5388 181.781 65.4779C181.82 65.417 181.874 65.3664 181.937 65.3304C181.966 65.3134 184.978 63.5949 191.113 60.3466C191.184 60.3091 191.263 60.2911 191.343 60.2943C191.423 60.2975 191.501 60.3219 191.568 60.3649C191.636 60.408 191.691 60.4681 191.728 60.5393C191.764 60.6104 191.781 60.69 191.777 60.77L191.022 75.3791C191.017 75.4607 190.991 75.5397 190.946 75.6076C190.9 75.6755 190.837 75.7299 190.763 75.7648C185.287 78.3569 181.031 80.4976 180.989 80.5188C180.924 80.5512 180.854 80.5671 180.785 80.5671L180.785 80.5673ZM182.59 66.0011L181.314 79.3443C184.239 77.8895 187.179 76.4622 190.131 75.0625L190.831 61.5211C186.044 64.0634 183.324 65.5868 182.59 66.0011Z" fill="url(#paint9_linear_1255_186)"/>
        <path d="M70.9795 73.7802C71.2288 73.639 62.4302 68.8272 62.298 65.54C62.1655 62.2527 184.084 36.431 186.239 38.1505C188.394 39.87 183.721 52.4334 183.721 52.4334C183.721 52.4334 182.542 151.691 181.245 156.337C179.948 160.982 154.908 183.656 154.908 183.656L134.915 189.021C134.915 189.021 105.674 173.074 102.287 170.152C98.899 167.229 70.9793 73.7801 70.9793 73.7801L70.9795 73.7802Z" fill="url(#paint10_linear_1255_186)"/>
        <path d="M134.915 189.473C134.84 189.473 134.765 189.455 134.698 189.418C133.503 188.766 105.376 173.414 101.991 170.494C101.443 170.021 99.7756 168.583 84.9303 121.004C77.8373 98.2712 71.0485 75.5911 70.5715 73.9965C70.4077 73.8727 70.0119 73.6118 69.6272 73.3581C67.1371 71.7164 61.9557 68.3004 61.8452 65.5573C61.8273 65.1115 62.2849 64.8172 62.7818 64.5655C68.0062 61.9216 100.87 54.3336 127.425 48.6389C142.377 45.4324 156.577 42.5435 167.408 40.5042C185.619 37.0755 186.206 37.5445 186.521 37.7964C187.199 38.3371 187.905 39.7812 186.225 46.0535C185.407 49.107 184.355 52.0182 184.172 52.5163C184.112 57.5729 182.972 151.835 181.681 156.458C180.364 161.176 156.238 183.062 155.212 183.991C155.159 184.039 155.095 184.074 155.025 184.093L135.033 189.458C134.995 189.469 134.955 189.474 134.915 189.474L134.915 189.473ZM71.4376 73.7315C82.6464 111.245 100.172 167.729 102.583 169.808C105.767 172.556 132.642 187.263 134.973 188.537L154.685 183.247C163.335 175.41 179.814 159.778 180.809 156.215C182.075 151.678 183.256 53.4195 183.267 52.4276C183.268 52.3756 183.278 52.324 183.296 52.2753C183.308 52.244 184.469 49.111 185.352 45.8137C186.878 40.1131 186.276 38.82 185.993 38.5364C183.952 38.0732 156.254 43.3295 123.964 50.3106C107.949 53.7733 93.222 57.1437 82.4973 59.8012C66.1862 63.8428 63.2236 65.2035 62.7582 65.6284C63.0059 67.9086 68.1647 71.3097 70.1259 72.6028C71.2726 73.3588 71.4313 73.4633 71.4376 73.7316V73.7315ZM136.964 196.661L153.683 193.06C153.683 193.06 153.106 217.692 154.161 220.378C155.216 223.064 170.989 239.175 170.989 239.175L109.678 244.162C109.678 244.162 129.186 229.634 130.891 226.538C132.595 223.443 136.964 196.661 136.964 196.661H136.964Z" fill="url(#paint11_linear_1255_186)"/>
        <path d="M109.678 244.615C109.583 244.615 109.49 244.585 109.413 244.529C109.336 244.473 109.278 244.395 109.248 244.304C109.218 244.214 109.217 244.117 109.246 244.026C109.275 243.935 109.331 243.856 109.407 243.799C116.128 238.794 129.183 228.7 130.494 226.32C131.813 223.925 135.01 205.824 136.517 196.588C136.532 196.498 136.573 196.415 136.636 196.349C136.699 196.283 136.78 196.237 136.869 196.218L153.588 192.618C153.654 192.603 153.724 192.604 153.79 192.62C153.857 192.637 153.919 192.668 153.972 192.711C154.024 192.755 154.067 192.81 154.095 192.872C154.123 192.934 154.137 193.002 154.136 193.071C153.976 199.897 153.745 218.079 154.583 220.213C155.421 222.346 166.944 234.395 171.313 238.858C171.373 238.92 171.414 238.997 171.432 239.081C171.45 239.165 171.443 239.253 171.413 239.333C171.383 239.414 171.331 239.484 171.262 239.536C171.193 239.588 171.112 239.619 171.026 239.626L109.715 244.613C109.703 244.614 109.69 244.615 109.678 244.615V244.615ZM137.361 197.038C136.848 200.162 132.93 223.773 131.288 226.756C129.793 229.47 115.589 240.284 111.205 243.584L169.992 238.802C166.926 235.649 154.701 222.99 153.74 220.544C152.743 218.006 153.135 197.438 153.217 193.624L137.361 197.038Z" fill="url(#paint12_linear_1255_186)"/>
        <path d="M136.599 228.963C137.619 225.852 140.222 201.638 140.836 195.826L136.964 196.66C136.964 196.66 132.595 223.442 130.891 226.538C129.186 229.633 109.678 244.162 109.678 244.162L122.401 243.127C125.906 240.196 135.649 231.86 136.599 228.963L136.599 228.963Z" fill="#2D2102"/>
        <path d="M109.678 244.615C109.583 244.615 109.49 244.585 109.413 244.529C109.336 244.473 109.278 244.395 109.248 244.305C109.218 244.214 109.217 244.117 109.246 244.026C109.275 243.935 109.331 243.856 109.407 243.799C116.128 238.794 129.183 228.7 130.494 226.32C131.813 223.925 135.01 205.824 136.517 196.588C136.532 196.498 136.573 196.415 136.636 196.349C136.699 196.283 136.78 196.237 136.869 196.218L140.741 195.384C140.811 195.369 140.884 195.371 140.953 195.389C141.022 195.408 141.086 195.442 141.139 195.49C141.192 195.538 141.233 195.598 141.259 195.664C141.285 195.731 141.294 195.803 141.287 195.874C140.545 202.885 138.047 226.002 137.029 229.105C136.057 232.067 126.679 240.141 122.692 243.475C122.62 243.535 122.531 243.571 122.438 243.578L109.715 244.614C109.702 244.614 109.69 244.615 109.678 244.615L109.678 244.615ZM137.361 197.038C136.848 200.162 132.93 223.773 131.288 226.756C129.793 229.47 115.59 240.284 111.205 243.584L122.221 242.688C125.409 240.018 135.255 231.607 136.169 228.823C137.147 225.839 139.667 202.545 140.32 196.401L137.361 197.038V197.038Z" fill="#2D2102"/>
        <path d="M103.05 250.017H178.12C178.12 250.017 182.983 240.57 180.646 238.668C178.309 236.766 102.536 242.941 101.029 244.343C99.5223 245.744 103.05 250.017 103.05 250.017Z" fill="url(#paint13_linear_1255_186)"/>
        <path d="M178.12 250.47H103.05C102.983 250.47 102.917 250.455 102.857 250.426C102.797 250.398 102.743 250.357 102.701 250.305C102.312 249.834 98.9525 245.656 100.721 244.011C100.934 243.813 101.377 243.401 113.731 242.147C121.055 241.403 130.809 240.553 140.492 239.815C150.888 239.022 160.449 238.414 167.412 238.103C179.979 237.541 180.623 238.065 180.932 238.317C182.082 239.253 182.001 241.506 180.686 245.207C179.763 247.805 178.535 250.2 178.523 250.224C178.485 250.298 178.427 250.36 178.356 250.403C178.285 250.447 178.204 250.47 178.12 250.47ZM103.266 249.564H177.843C179.637 246.01 181.82 240.208 180.36 239.019C179.355 238.439 166.695 238.728 140.711 240.706C120.586 242.239 102.615 244.059 101.316 244.695C100.501 245.527 102.196 248.22 103.266 249.564Z" fill="url(#paint14_linear_1255_186)"/>
        <path d="M112.673 164.05C110.28 160.812 85.1023 74.9874 80.8747 59.7393C69.6703 62.5438 62.2654 64.7285 62.298 65.5399C62.4302 68.8271 71.2288 73.6391 70.9795 73.7801C70.9795 73.7801 98.8992 167.229 102.287 170.152C105.675 173.074 134.915 189.021 134.915 189.021L139.405 187.816C133.987 183.247 114.912 167.079 112.673 164.05Z" fill="#2D2102"/>
        <path d="M134.916 189.473C134.84 189.473 134.766 189.454 134.699 189.418C133.503 188.765 105.376 173.414 101.991 170.493C101.443 170.021 99.7758 168.582 84.9306 121.004C77.8376 98.2706 71.0488 75.5906 70.5718 73.996C70.408 73.8722 70.012 73.6112 69.6273 73.3575C67.1371 71.7159 61.956 68.2999 61.8455 65.5567C61.8214 64.9567 61.785 64.0495 80.7647 59.2987C80.8793 59.27 81.0006 59.2872 81.1028 59.3467C81.2049 59.4062 81.2797 59.5032 81.3112 59.6171C86.0313 76.6412 110.757 160.695 113.037 163.779C114.784 166.142 127.954 177.566 139.697 187.469C139.761 187.522 139.808 187.592 139.835 187.67C139.861 187.749 139.866 187.833 139.848 187.913C139.83 187.994 139.79 188.068 139.733 188.128C139.675 188.188 139.603 188.231 139.523 188.252L135.033 189.457C134.995 189.467 134.955 189.473 134.916 189.473L134.916 189.473ZM71.4377 73.7311C82.6465 111.244 100.173 167.729 102.583 169.808C105.768 172.555 132.642 187.262 134.973 188.536L138.451 187.603C132.071 182.215 114.487 167.263 112.309 164.318C109.844 160.984 84.8819 75.7943 80.5565 60.2849C65.9191 63.9598 63.2003 65.2254 62.7583 65.6279C63.006 67.908 68.1646 71.3092 70.1256 72.6021C71.2725 73.3583 71.431 73.4627 71.4375 73.7311H71.4377Z" fill="#2D2102"/>
        <path d="M127.978 188.4C127.907 186.653 159.819 180.565 160.685 181.694C161.55 182.824 159.074 191.363 157.951 192.538C156.828 193.713 136.7 199.463 134.658 198.813C132.615 198.162 128.048 190.146 127.978 188.4Z" fill="url(#paint15_linear_1255_186)"/>
        <path d="M135.121 199.31C134.866 199.31 134.663 199.289 134.52 199.244C133.135 198.802 131.214 195.928 130.192 194.253C128.938 192.199 127.569 189.496 127.525 188.418C127.505 187.918 128.007 187.557 129.444 187.038C133.048 185.735 141.269 183.988 147.215 182.888C150.741 182.235 153.993 181.709 156.369 181.406C160.618 180.863 160.855 181.171 161.044 181.419C161.666 182.23 161.092 185.019 160.501 187.217C159.885 189.508 158.959 192.139 158.278 192.851C157.304 193.871 147.199 196.678 146.77 196.797C143.883 197.596 137.423 199.31 135.121 199.31ZM128.44 188.486C128.676 190.281 133.002 197.81 134.795 198.381C135.434 198.585 139.361 197.907 146.478 195.938C152.802 194.188 157.188 192.648 157.625 192.224C158.724 191.074 160.825 183.166 160.361 182.035C159.387 181.818 153.079 182.633 144.206 184.385C134.719 186.258 129.171 187.844 128.44 188.486L128.44 188.486Z" fill="url(#paint16_linear_1255_186)"/>
        <path d="M136.13 199.618C136.02 199.618 135.913 199.577 135.831 199.504C135.748 199.431 135.695 199.331 135.681 199.221C135.667 199.112 135.694 199.001 135.756 198.91C135.819 198.819 135.912 198.753 136.019 198.726L154.011 194.136C154.254 194.073 154.5 194.22 154.562 194.462C154.624 194.705 154.478 194.951 154.235 195.013L136.243 199.603C136.206 199.613 136.168 199.618 136.13 199.618ZM111.356 242.843C111.239 242.842 111.127 242.797 111.043 242.716C110.958 242.634 110.909 242.523 110.905 242.406C110.9 242.289 110.942 242.175 111.02 242.088C111.098 242.001 111.207 241.947 111.323 241.939L170.418 237.571C170.477 237.566 170.537 237.573 170.594 237.592C170.65 237.61 170.703 237.64 170.748 237.679C170.793 237.718 170.83 237.765 170.856 237.818C170.883 237.872 170.899 237.93 170.903 237.989C170.907 238.048 170.9 238.108 170.881 238.164C170.863 238.221 170.833 238.273 170.794 238.318C170.755 238.363 170.708 238.4 170.655 238.427C170.602 238.454 170.544 238.47 170.485 238.474L111.39 242.842C111.379 242.842 111.368 242.843 111.356 242.843ZM130.165 187.357C130.055 187.356 129.948 187.316 129.866 187.243C129.783 187.17 129.73 187.069 129.717 186.959C129.703 186.85 129.73 186.739 129.792 186.648C129.854 186.557 129.948 186.492 130.055 186.465C138.743 184.274 148.178 182.339 158.099 180.714C158.217 180.696 158.338 180.725 158.435 180.795C158.532 180.865 158.597 180.97 158.616 181.088C158.636 181.206 158.608 181.327 158.538 181.425C158.469 181.522 158.364 181.588 158.246 181.608C148.35 183.229 138.94 185.158 130.276 187.343C130.24 187.352 130.203 187.357 130.165 187.357H130.165Z" fill="url(#paint17_linear_1255_186)"/>
        <path d="M131.182 106.922L135.129 94.6106C135.245 94.2542 135.457 93.9365 135.744 93.6933C136.03 93.45 136.379 93.2908 136.751 93.2334C137.123 93.176 137.503 93.2228 137.85 93.3685C138.196 93.5141 138.495 93.753 138.712 94.0581L146.185 104.608L159.235 104.483C159.611 104.477 159.981 104.576 160.303 104.769C160.624 104.962 160.885 105.242 161.054 105.575C161.224 105.909 161.295 106.283 161.261 106.655C161.227 107.028 161.088 107.383 160.86 107.681L152.996 117.997L157.113 130.223C157.641 131.793 156.116 133.285 154.533 132.751L142.201 128.577L131.698 136.272C130.352 137.26 128.448 136.295 128.478 134.637L128.721 121.739L118.114 114.271C117.809 114.055 117.57 113.758 117.426 113.414C117.282 113.07 117.238 112.692 117.299 112.324C117.36 111.956 117.524 111.612 117.772 111.331C118.02 111.05 118.341 110.844 118.701 110.736L131.182 106.922Z" fill="url(#paint18_linear_1255_186)" stroke="#1C1C1A" stroke-width="4" stroke-linecap="round" stroke-linejoin="round"/>
    </g>
    <defs>
        <linearGradient id="paint0_linear_1255_186" x1="72.2968" y1="81.4453" x2="72.2968" y2="170.605" gradientUnits="userSpaceOnUse">
            <stop stop-color="#FFF978"/>
            <stop offset="1" stop-color="#FFB844"/>
        </linearGradient>
        <linearGradient id="paint1_linear_1255_186" x1="72.2987" y1="80.9854" x2="72.2987" y2="171.057" gradientUnits="userSpaceOnUse">
            <stop stop-color="#FFF978"/>
            <stop offset="1" stop-color="#FFB844"/>
        </linearGradient>
        <linearGradient id="paint2_linear_1255_186" x1="95.1015" y1="148.151" x2="95.1015" y2="165.428" gradientUnits="userSpaceOnUse">
            <stop stop-color="#FFF978"/>
            <stop offset="1" stop-color="#FFB844"/>
        </linearGradient>
        <linearGradient id="paint3_linear_1255_186" x1="83.244" y1="84.5684" x2="83.244" y2="165.881" gradientUnits="userSpaceOnUse">
            <stop stop-color="#FFF978"/>
            <stop offset="1" stop-color="#FFB844"/>
        </linearGradient>
        <linearGradient id="paint4_linear_1255_186" x1="75.5435" y1="84.1152" x2="75.5435" y2="99.0636" gradientUnits="userSpaceOnUse">
            <stop stop-color="#FFF978"/>
            <stop offset="1" stop-color="#FFB844"/>
        </linearGradient>
        <linearGradient id="paint5_linear_1255_186" x1="208.881" y1="47.4199" x2="208.881" y2="155.915" gradientUnits="userSpaceOnUse">
            <stop stop-color="#FFF978"/>
            <stop offset="1" stop-color="#FFB844"/>
        </linearGradient>
        <linearGradient id="paint6_linear_1255_186" x1="208.879" y1="46.9541" x2="208.879" y2="156.368" gradientUnits="userSpaceOnUse">
            <stop stop-color="#FFF978"/>
            <stop offset="1" stop-color="#FFB844"/>
        </linearGradient>
        <linearGradient id="paint7_linear_1255_186" x1="183.835" y1="133.006" x2="183.835" y2="151.809" gradientUnits="userSpaceOnUse">
            <stop stop-color="#FFF978"/>
            <stop offset="1" stop-color="#FFB844"/>
        </linearGradient>
        <linearGradient id="paint8_linear_1255_186" x1="184.992" y1="60.7461" x2="184.992" y2="152.261" gradientUnits="userSpaceOnUse">
            <stop stop-color="#FFF978"/>
            <stop offset="1" stop-color="#FFB844"/>
        </linearGradient>
        <linearGradient id="paint9_linear_1255_186" x1="186.055" y1="60.2939" x2="186.055" y2="80.5673" gradientUnits="userSpaceOnUse">
            <stop stop-color="#FFF978"/>
            <stop offset="1" stop-color="#FFB844"/>
        </linearGradient>
        <linearGradient id="paint10_linear_1255_186" x1="124.552" y1="38.0684" x2="124.552" y2="189.021" gradientUnits="userSpaceOnUse">
            <stop stop-color="#FFF978"/>
            <stop offset="1" stop-color="#FFB844"/>
        </linearGradient>
        <linearGradient id="paint11_linear_1255_186" x1="124.554" y1="37.6221" x2="124.554" y2="244.162" gradientUnits="userSpaceOnUse">
            <stop stop-color="#FFF978"/>
            <stop offset="1" stop-color="#FFB844"/>
        </linearGradient>
        <linearGradient id="paint12_linear_1255_186" x1="140.333" y1="192.607" x2="140.333" y2="244.615" gradientUnits="userSpaceOnUse">
            <stop stop-color="#FFF978"/>
            <stop offset="1" stop-color="#FFB844"/>
        </linearGradient>
        <linearGradient id="paint13_linear_1255_186" x1="140.968" y1="238.308" x2="140.968" y2="250.017" gradientUnits="userSpaceOnUse">
            <stop stop-color="#FFF978"/>
            <stop offset="1" stop-color="#FFB844"/>
        </linearGradient>
        <linearGradient id="paint14_linear_1255_186" x1="140.974" y1="237.853" x2="140.974" y2="250.47" gradientUnits="userSpaceOnUse">
            <stop stop-color="#FFF978"/>
            <stop offset="1" stop-color="#FFB844"/>
        </linearGradient>
        <linearGradient id="paint15_linear_1255_186" x1="144.421" y1="181.556" x2="144.421" y2="198.864" gradientUnits="userSpaceOnUse">
            <stop stop-color="#FFF978"/>
            <stop offset="1" stop-color="#FFB844"/>
        </linearGradient>
        <linearGradient id="paint16_linear_1255_186" x1="144.419" y1="181.104" x2="144.419" y2="199.31" gradientUnits="userSpaceOnUse">
            <stop stop-color="#FFF978"/>
            <stop offset="1" stop-color="#FFB844"/>
        </linearGradient>
        <linearGradient id="paint17_linear_1255_186" x1="140.904" y1="180.709" x2="140.904" y2="242.843" gradientUnits="userSpaceOnUse">
            <stop stop-color="#FFF978"/>
            <stop offset="1" stop-color="#FFB844"/>
        </linearGradient>
        <linearGradient id="paint18_linear_1255_186" x1="127.365" y1="109.352" x2="153.906" y2="130.555" gradientUnits="userSpaceOnUse">
            <stop stop-color="#FFCE54"/>
            <stop offset="1" stop-color="#FE8632"/>
        </linearGradient>
        <clipPath id="clip0_1255_186">
            <rect width="188.078" height="201.823" fill="white" transform="translate(39.4243 48.6475)"/>
        </clipPath>
        <clipPath id="clip1_1255_186">
            <rect width="92.2307" height="67.8167" fill="white" transform="translate(32.5522 179.76)"/>
        </clipPath>
        <clipPath id="clip2_1255_186">
            <rect width="73.2421" height="82.646" fill="white" transform="translate(165.834 154.441)"/>
        </clipPath>
        <clipPath id="clip3_1255_186">
            <rect width="196.578" height="212.854" fill="white" transform="translate(42.4985 37.6152)"/>
        </clipPath>
    </defs>
</svg>