<svg width="1278" height="92" viewBox="0 0 1278 92" fill="none" xmlns="http://www.w3.org/2000/svg">
    <path d="M343.708 64.0975C325.863 64.0975 304.81 60.8224 277.542 50.9045C250.834 41.1842 223.23 46.8777 194.004 52.9032C158.644 60.1952 122.081 67.7338 83.105 49.2816C35.4431 26.7149 6.38234 49.4061 5.167 50.3847L-1 42.8169C0.398374 41.6723 33.8105 15.1422 87.2831 40.4569C123.306 57.5132 158.249 50.309 192.032 43.344C221.307 37.3088 251.574 31.0735 280.881 41.7285C332.401 60.4759 359.39 54.5261 387.965 48.2322C413.126 42.6875 439.146 36.9549 482.054 48.159C525.274 59.4533 551.836 51.1998 577.527 43.2244C605.35 34.5828 631.626 26.4268 674.49 42.6143C712.859 57.1056 736.378 49.5842 761.282 41.6259C788.098 33.0502 815.831 24.1841 862.417 40.7864C910.508 57.9208 939.811 50.2895 968.156 42.9072C994.386 36.0764 1021.52 29.0064 1061.5 42.2385C1098.75 54.5603 1122.09 48.1126 1146.81 41.2843C1179.13 32.3596 1212.55 23.1298 1277.01 53.8867L1272.81 62.6942C1211.64 33.509 1180.01 42.2458 1149.41 50.6946C1124.38 57.6035 1098.49 64.7564 1058.44 51.5024C1021.18 39.1781 996.622 45.5794 970.619 52.3541C940.843 60.1074 910.059 68.1218 859.144 49.9796C815.663 34.4876 789.53 42.8413 764.255 50.9216C738.857 59.0434 712.593 67.4385 671.042 51.7464C631.316 36.7426 607.732 44.0688 580.424 52.5444C554.684 60.5369 525.509 69.5983 479.592 57.6035C438.956 46.9876 415.21 52.2223 390.071 57.7621C375.819 60.903 361.328 64.0975 343.708 64.0975Z" fill="#14080E"/>
    <path d="M1234.59 64.1948C1221.96 64.1948 1206.88 61.4078 1189.72 53.286C1153.7 36.2298 1118.76 43.4339 1084.97 50.4014C1055.69 56.4366 1025.43 62.6744 996.123 52.017C944.603 33.2695 917.612 39.2144 889.037 45.5132C863.876 51.0579 837.865 56.7929 794.948 45.584C751.735 34.292 725.168 42.5432 699.475 50.5186C671.659 59.1577 645.375 67.3186 602.514 51.1287C564.148 36.6398 540.627 44.1539 515.724 52.1195C488.904 60.6928 461.168 69.5589 414.587 52.9565C366.501 35.8222 337.191 43.451 308.848 50.8358C282.613 57.6642 255.485 64.7317 215.506 51.5069C178.262 39.19 154.914 45.6376 130.193 52.4611C97.8667 61.3834 64.4448 70.6157 -0.00976562 39.8587L4.19512 31.0512C65.36 60.234 96.9979 51.4996 127.594 43.0508C152.628 36.1419 178.516 28.9914 218.569 42.243C255.815 54.5648 280.38 48.1684 306.386 41.3913C336.156 33.638 366.94 25.6212 417.86 43.7659C461.334 59.2602 487.474 50.9042 512.749 42.8239C538.15 34.7021 564.414 26.3045 605.96 41.999C645.683 57.0004 669.27 49.6791 696.578 41.201C722.325 33.2109 751.5 24.152 797.415 36.1419C838.053 46.7603 861.796 41.5255 886.935 35.9833C915.613 29.6601 945.269 23.1271 999.459 42.8458C1026.17 52.5637 1053.77 46.8726 1083 40.8447C1118.35 33.5526 1154.92 26.0117 1193.89 44.4663C1241.56 67.0355 1270.62 44.3418 1271.83 43.3632L1278 50.9285C1277.05 51.7022 1261.34 64.1948 1234.59 64.1948Z" fill="#14080E"/>
    <path d="M161.798 5.94922C161.798 5.94922 166.337 31.5764 180.497 37.924C180.497 37.924 184.341 29.0919 193.063 35.6543C193.063 35.6543 191.721 26.7882 202.703 32.1132C202.703 32.1132 206.514 23.1861 213.758 32.2694C213.758 32.2694 216.193 23.1788 222.604 32.4061C222.792 32.6745 222.985 32.9723 223.18 33.2895C227.91 27.5154 239.173 13.2876 240.424 7.10599C240.424 7.10599 234.267 34.7172 227.541 42.3875C233.452 56.5738 240.588 78.4914 246.213 81.4078C246.213 81.4078 232.954 75.8631 219.359 52.2591C219.359 52.2591 216.325 58.1088 209.77 52.8545C209.77 52.8545 203.796 57.9258 198.712 52.6886C198.712 52.6886 197.202 53.8844 195.254 54.8997C197.524 66.1013 203.891 84.717 203.891 84.717C196.45 78.7037 188.338 62.094 185.766 56.5542C183.65 58.0722 179.889 59.1899 175.35 53.5769C152.666 25.4727 161.798 5.94922 161.798 5.94922Z" fill="#14080E"/>
    <path d="M749.689 0C749.689 0 754.225 25.6271 768.387 31.9747C768.387 31.9747 772.229 23.1427 780.951 29.7051C780.951 29.7051 779.611 20.8389 790.591 26.1639C790.591 26.1639 794.402 17.2368 801.646 26.3201C801.646 26.3201 804.079 17.227 810.492 26.4568C810.678 26.7252 810.873 27.023 811.068 27.3402C815.798 21.5661 827.06 7.33841 828.31 1.15677C828.31 1.15677 822.155 28.7655 815.427 36.4383C821.338 50.6246 828.473 72.5421 834.101 75.4585C834.101 75.4585 820.84 69.9138 807.246 46.3098C807.246 46.3098 804.213 52.1596 797.656 46.9053C797.656 46.9053 791.684 51.9765 786.598 46.7393C786.598 46.7393 785.087 47.9352 783.14 48.9504C785.412 60.152 791.777 78.7678 791.777 78.7678C784.333 72.7545 776.221 56.1448 773.651 50.605C771.536 52.123 767.775 53.2407 763.236 47.6277C740.554 19.5235 749.689 0 749.689 0Z" fill="#14080E"/>
    <path d="M460.478 42.8462C453.81 55.9563 445.359 77.071 437.589 85.9103L448.261 77.5127C448.261 77.5127 454.462 65.1787 460.849 54.7629C460.778 56.1954 461.083 57.3741 461.893 58.0916C462.991 59.0434 464.785 59.0116 466.852 58.2502C466.659 60.6687 467.213 62.7358 468.675 64.0073C470.593 65.6863 473.634 65.6546 476.924 64.3148C476.938 65.3812 477.236 66.2281 477.854 66.7723C478.984 67.7533 480.992 67.5044 483.367 66.3867C484.499 68.6173 486.466 70.5354 489.792 68.832C491.247 68.0852 492.85 66.7454 494.585 65.0859C500.11 74.5768 507.239 87.7332 506.768 91.6452C506.768 91.6452 508.049 79.26 506.338 75.7531L500.447 58.9775C505.06 54.0063 510.285 48.4421 515.956 45.0914C523.673 40.8328 531.255 36.1813 535.392 32.3595L541.22 21.7852C541.22 21.7852 512.752 39.4979 499.725 45.9333C499.857 44.5179 499.632 43.3636 498.871 42.7071C497.458 41.4624 494.649 42.1482 491.437 44.1494C491.298 42.4484 490.749 40.9939 489.629 40.0153C487.786 38.4095 484.897 38.346 481.744 39.5442C481.741 38.2849 481.434 37.2307 480.685 36.5767C479.128 35.21 476.211 35.7884 473 37.7456C473.266 35.4711 472.826 32.5694 469.168 31.7519C467.755 31.4371 465.976 33.3309 463.943 36.584C455.545 37.6456 436.737 36.1178 436.737 36.1178L430.985 38.7999C442.123 43.222 453.393 43.3855 460.478 42.8462Z" fill="#14080E"/>
    <path d="M1054.8 55.6133C1048.25 42.4422 1040.01 21.2445 1032.33 12.3344L1042.92 20.8345C1042.92 20.8345 1049 33.2271 1055.28 43.7063C1055.23 42.2714 1055.54 41.0975 1056.36 40.3873C1057.47 39.4453 1059.26 39.4966 1061.32 40.2751C1061.15 37.8541 1061.73 35.792 1063.2 34.5327C1065.14 32.8708 1068.17 32.9342 1071.45 34.3057C1071.48 33.2368 1071.79 32.3948 1072.41 31.8555C1073.54 30.8867 1075.55 31.1551 1077.92 32.2972C1079.07 30.0789 1081.05 28.1778 1084.37 29.9129C1085.82 30.6719 1087.4 32.0263 1089.12 33.7054C1094.74 24.2682 1102 11.1801 1101.56 7.26562C1101.56 7.26562 1102.73 19.6631 1100.98 23.1529L1094.93 39.8724C1099.49 44.8875 1104.67 50.5005 1110.31 53.9074C1117.98 58.2392 1125.52 62.9639 1129.62 66.8247L1135.34 77.4552C1135.34 77.4552 1107.04 59.4691 1094.08 52.9068C1094.2 54.3223 1093.96 55.4741 1093.2 56.1257C1091.77 57.3557 1088.97 56.6455 1085.78 54.6102C1085.62 56.3136 1085.06 57.7608 1083.93 58.7297C1082.07 60.3159 1079.18 60.3526 1076.04 59.1226C1076.02 60.3843 1075.71 61.4337 1074.96 62.0804C1073.38 63.43 1070.47 62.8272 1067.28 60.8382C1067.53 63.1152 1067.06 66.012 1063.39 66.7954C1061.98 67.0956 1060.22 65.1871 1058.21 61.912C1049.83 60.7675 1031.01 62.117 1031.01 62.117L1025.28 59.3789C1036.45 55.0642 1047.72 55.0056 1054.8 55.6133Z" fill="#14080E"/>
</svg>