<svg width="1280" height="229" viewBox="0 0 1280 229" fill="none" xmlns="http://www.w3.org/2000/svg">
<path d="M1125.12 222.828V159.757H1122.64V119.319H1118.18V109.001H1106.94V83.0405H1099.5V66.0663H1103.47V62.2388H1076.69V36.7775H1068.76V26.6262H1071.4V9.98483L1065.95 5.9909L1059.17 10.1512V26.7926H1062.14V36.7775H1055.2V19.1376H1036.03V36.7775H1031.23V135.461H1004.12V170.741H997.016V179.394H983.296V145.113V142.117H979.825V134.296H968.089V141.951H963.13V137.957H960.815V133.131L955.691 130.136L951.063 132.465L947.095 130.136L942.798 131.966V142.284H940.649V179.893H937.839V160.423H934.202V119.152H929.904V110.166H914.035V119.319H897.836V183.222H890.397V159.924H887.422V119.152H882.132V110.332H877.338V104.175L873.206 102.012L868.082 104.341V109.001H862.627V119.152H853.039V121.482H849.072V142.117H845.601V35.2797H839.98V30.7866H827.087V19.1376H819.814V11.9818L813.863 8.81993L807.912 11.8154V16.1421H802.126V31.785H795.68V97.6849H782.952V108.335H772.868V95.5215L749.395 109.667H743.775V146.943H731.708V150.771H725.096V158.925H720.633V151.27H706.087V179.394H702.615V142.45H700.136V119.319H697.326V102.677L692.697 96.52V85.3703L688.399 83.2069L683.606 85.8695V96.52L680.3 102.844V91.8604H663.604V102.677H661.29V142.117H658.645V159.591H655.174V142.117H653.356V119.152H648.892V110.665H632.528V119.152L616.328 118.986V130.468L613.518 132.299V142.117H605.253V60.5746H601.286V46.4295H585.582V60.4082H569.217V143.615H563.763V85.5367H565.25V81.7092H559.299V69.2282H552.853V61.5731L546.241 58.5777L540.29 61.4067V69.2282H532.025V82.2084H519.297V85.7031H513.346V150.438H509.709V118.986H503.262V113.328H505.742V104.175L501.279 101.679L496.32 104.175V113.328H498.799V119.152H492.848V108.335H486.402V62.5716H469.21V47.9272H452.846V62.5716H450.035V74.7198H438.96V87.8665H436.15V22.9651H425.406V6.49014L418.794 0L412.512 6.49014V23.1315H402.429V27.4583H397.635V179.394H373.832V142.45H370.36V77.0496H365.732V73.7213H356.145V59.909H350.524V52.3365L346.227 49.1746L341.763 52.3365V61.7395H336.804V74.0542H330.027V185.551H325.894V144.946H326.886V142.117H322.919V134.462H310.521V142.117H303.579V134.047C303.579 134.047 303 130.136 298.702 130.136C294.404 130.136 293.908 132.716 293.908 132.716C293.908 132.716 293.082 130.302 288.7 130.302C284.899 130.302 284.568 134.047 284.568 134.047V142.284H281.758V144.614H283.246V203.358H278.286V144.614H279.774V142.284H275.972V134.13H263.905V141.285H256.467V132.965C256.467 132.965 255.64 130.302 251.838 130.302C248.449 130.302 247.21 132.965 247.21 132.965C247.21 132.965 246.549 130.218 242.663 130.218C239.688 130.218 238.282 132.798 238.282 132.798V142.117H236.299V179.561H232.83V67.564H234.152V64.0693H228.698V51.0891H209.688V63.9029H190.513V179.561H182.248V121.649H183.57V118.986H178.942V109.334H164.561V118.986H158.279V113.494H159.932V104.175L155.635 101.512L150.345 104.508V113.661H151.998V119.152H146.543V222.662H1124.96" fill="#334E3B"/>
<path d="M1066.61 136.463C1055.93 137.954 1046.1 140.879 1037.12 145.237C1023.03 152.175 1015.04 155.989 1013.17 156.677C997.767 162.297 979.895 166.196 959.551 168.375C957.79 168.605 955.119 168.547 951.538 168.203C947.902 167.859 945.174 167.773 943.356 167.945C936.934 168.748 932.303 169.293 929.462 169.579C924.518 170.095 919.858 170.038 915.482 169.408C913.21 169.121 910.794 168.146 908.237 166.482C905.623 164.762 903.521 163.759 901.93 163.473C899.94 163.128 896.616 163.358 891.956 164.16C887.467 164.906 884.2 165.021 882.153 164.505C881.301 164.275 880.165 163.673 878.745 162.698C877.38 161.838 876.13 161.293 874.994 161.063C871.584 160.433 866.129 160.261 858.628 160.547C850.445 160.891 844.791 160.891 841.665 160.547C835.471 159.859 827.345 158.684 817.287 157.021C805.069 154.957 797 153.667 793.079 153.151C786.771 152.29 776.173 154.441 761.285 159.602C743.725 165.623 733.013 168.892 729.149 169.408C724.83 169.981 719.972 169.379 714.574 167.601C708.777 165.193 704.657 163.501 702.214 162.526C699.089 161.265 694.315 160.605 687.894 160.547C680.79 160.49 675.932 160.118 673.318 159.429C672.181 159.085 670.562 158.168 668.459 156.677C666.584 155.3 664.623 154.469 662.577 154.183C658.941 153.667 654.593 154.269 649.536 155.989C643.001 158.168 638.966 159.372 637.432 159.602C635.386 159.888 632.374 160.06 628.397 160.118C624.135 160.232 621.123 160.375 619.361 160.547C617.656 160.719 615.412 161.264 612.627 162.182C609.616 163.157 607.371 163.759 605.894 163.989C598.961 164.906 592.34 164.705 586.032 163.386C578.986 161.551 573.02 160.29 568.132 159.602C565.121 159.143 561.342 159.171 556.795 159.688C551.625 160.376 547.902 160.834 545.629 161.063C543.129 161.293 539.151 161.121 533.696 160.547C528.241 159.917 524.121 159.745 521.336 160.031C517.87 160.547 515.228 160.891 513.409 161.063C510.227 161.35 507.47 161.35 505.14 161.063C501.447 160.605 498.662 160.232 496.787 159.946C493.548 159.429 490.934 158.799 488.945 158.054C487.468 157.537 486.076 156.648 484.769 155.386C483.405 153.896 482.382 152.835 481.7 152.204C479.995 150.599 475.25 147.904 467.465 144.119C459.452 140.219 453.997 138.012 451.099 137.495C445.985 136.521 439.365 136.492 431.238 137.41C422.146 138.729 415.583 139.56 411.548 139.904C408.423 140.191 400.069 141.739 386.487 144.549C373.588 147.244 365.15 149.136 361.172 150.226C361.001 150.284 356.597 151.688 347.959 154.441C342.504 156.161 337.901 157.222 334.15 157.623C332.048 157.852 328.894 157.938 324.689 157.881C320.2 157.881 317.046 157.939 315.228 158.054C313.353 158.226 308.579 159.086 300.907 160.634C294.713 161.895 289.883 162.354 286.416 162.01C284.598 161.838 281.416 160.863 276.87 159.086C273.006 157.537 269.596 156.878 266.641 157.107C261.925 157.451 255.901 159.114 248.57 162.096C240.899 165.192 234.932 166.97 230.67 167.429C228.511 167.658 225.499 167.601 221.635 167.257C217.657 166.855 214.674 166.741 212.685 166.913C210.469 167.142 207.031 167.63 202.371 168.375C197.881 169.121 194.415 169.608 191.971 169.837C186.289 170.353 178.902 169.866 169.81 168.375C156.739 166.253 149.437 165.106 147.903 164.934C146.085 164.762 143.272 164.934 139.464 165.45C135.657 166.024 132.759 166.196 130.77 165.966C128.952 165.737 126.565 165.107 123.61 164.074C120.541 162.927 118.126 162.239 116.364 162.01C112.898 161.551 108.607 161.924 103.493 163.128C95.8785 164.963 91.7872 165.909 91.2192 165.966C89.4574 166.196 85.1385 165.623 78.2623 164.247C70.932 162.756 66.2724 162.01 64.2836 162.01L59.7653 161.494C59.9357 161.265 59.9357 161.121 59.7653 161.063C59.1973 160.719 56.4982 160.863 51.6682 161.494C47.4628 162.01 45.3601 161.694 45.3601 160.547C39.8482 163.587 28.2556 164.017 10.5822 161.838C-11.3526 159.085 -24.0532 157.824 -27.5196 158.054C-31.554 158.34 -37.3785 159.171 -44.9931 160.547C-52.7787 161.924 -58.6604 162.755 -62.6381 163.042C-65.5931 163.214 -70.4801 162.698 -77.299 161.494C-83.3228 160.405 -88.3236 160.261 -92.3014 161.063C-98.6656 162.325 -106.536 165.021 -115.912 169.15C-129.096 174.884 -136.512 178.066 -138.16 178.696C-145.433 181.335 -148.644 185.693 -147.792 191.771C-147.338 195.154 -145.633 199.971 -142.678 206.222C-142.109 208.056 -141.626 210.751 -141.229 214.307C-140.831 218.034 -140.404 220.729 -139.95 222.392C-139.893 222.621 -139.41 226.607 -138.501 234.348C-137.024 241.401 -134.807 243.322 -131.852 240.111C-133.273 242.003 -130.431 244.756 -123.328 248.368C-118.384 250.892 -112.844 253.214 -106.707 255.336C-90.966 260.726 -70.3096 264.797 -44.7374 267.55C-34.9068 268.64 -12.972 270.302 21.0671 272.538C47.4345 274.259 77.8365 275.807 112.273 277.183C124.888 277.642 155.347 278.703 203.65 280.366C218.482 280.882 240.672 281.714 270.221 282.86C296.418 283.835 318.637 284.466 336.878 284.753C364.211 285.212 405.922 285.384 462.01 285.269C517.927 285.211 558.102 285.384 582.538 285.785C606.178 286.187 632.46 285.814 661.384 284.667C681.785 283.864 707.982 282.431 739.975 280.366C743.214 280.194 752.391 279.793 767.507 279.162C778.873 278.761 787.993 278.187 794.869 277.441C796.744 277.269 799.614 277.097 803.478 276.925C807.285 276.811 810.127 276.639 812.002 276.409C819.503 275.435 822.202 274.947 820.099 274.947C822.316 274.546 826.635 274.947 833.056 276.151C840.557 277.585 845.217 278.331 847.035 278.388C858.514 278.904 873.346 279.248 891.53 279.42C916.306 279.592 931.167 279.735 936.11 279.85C975.718 280.71 1019.19 280.223 1066.53 278.388C1101.93 277.011 1145.15 274.574 1196.18 271.077C1206.4 270.331 1221.72 269.185 1242.12 267.636C1243.77 267.521 1248.77 267.378 1257.12 267.206C1263.49 267.091 1268.37 266.718 1271.78 266.088C1274.17 265.686 1277.41 260.898 1281.5 251.723C1285.31 242.147 1287.47 236.814 1287.98 235.724C1293.32 224.772 1297.33 215.253 1300 207.167C1303.75 195.642 1305.14 186.008 1304.17 178.267C1303.83 175.285 1302.87 171.729 1301.28 167.601C1299.29 162.956 1297.87 159.458 1297.01 157.107C1295.14 152.118 1293.6 148.477 1292.41 146.183C1290.31 142.169 1287.64 138.757 1284.4 135.947C1280.76 132.851 1277.75 129.439 1275.36 125.712C1274.85 124.795 1274.62 123.648 1274.68 122.271C1274.79 120.264 1274.85 119.203 1274.85 119.088C1274.57 116.91 1271.75 115.82 1266.41 115.82L1267.27 116.336C1263.17 115.591 1258.4 116.25 1252.94 118.314C1246.98 120.952 1242.77 122.759 1240.33 123.733C1237.77 124.708 1235.33 125.253 1233 125.368C1228.91 125.597 1226.83 125.712 1226.78 125.712C1223.82 126.113 1219.79 127.174 1214.67 128.894C1209.39 130.614 1205.32 131.676 1202.48 132.077C1199.02 132.536 1194.64 132.593 1189.36 132.249C1183.67 131.848 1179.35 131.79 1176.4 132.077C1169.35 132.708 1160.2 133.31 1148.95 133.884C1134.52 134.571 1125.68 134.628 1122.44 134.055C1118.98 133.138 1116.45 132.507 1114.86 132.163C1112.19 131.475 1109.32 131.274 1106.25 131.561C1103.75 131.79 1100.42 132.421 1096.28 133.453C1091.61 134.543 1088.32 135.231 1086.39 135.518C1084.28 135.804 1081.02 135.976 1076.58 136.034C1072.1 136.034 1068.77 136.177 1066.61 136.463Z" fill="#334E3B"/>
<path d="M1092.18 194.697C1090.25 194.697 1085.59 195.443 1078.2 196.934C1071.39 198.31 1067.07 198.855 1065.25 198.568C1064.4 198.453 1060.28 197.536 1052.89 195.815C1047.83 194.611 1043.54 194.239 1040.02 194.697C1038.26 194.927 1035.87 195.586 1032.86 196.676C1029.9 197.765 1027.49 198.396 1025.61 198.568C1023.57 198.797 1020.7 198.654 1017 198.138C1013.14 197.622 1010.33 197.45 1008.56 197.622C1006.92 197.794 999.614 198.941 986.657 201.063C977.508 202.553 970.093 203.041 964.41 202.525C962.08 202.353 958.642 201.865 954.096 201.063C949.55 200.317 946.112 199.83 943.782 199.6C941.736 199.428 938.724 199.514 934.746 199.858C930.882 200.26 927.871 200.346 925.711 200.116C921.506 199.658 915.568 197.88 907.896 194.783C900.509 191.802 894.457 190.139 889.74 189.795C886.785 189.565 883.404 190.196 879.597 191.687C875.051 193.465 871.84 194.468 869.965 194.697C866.555 195.042 861.753 194.583 855.559 193.322C847.831 191.773 843.029 190.913 841.154 190.741C839.449 190.626 836.295 190.569 831.692 190.569C827.601 190.569 824.447 190.454 822.231 190.225C818.48 189.824 813.877 188.763 808.422 187.043C802.512 185.093 798.136 183.716 795.295 182.914C791.261 181.824 782.794 179.932 769.894 177.237C756.369 174.427 748.044 172.879 744.919 172.592C736.338 171.445 729.775 170.613 725.229 170.097C716.989 169.18 710.34 169.18 705.283 170.097C702.328 170.671 696.901 172.879 689.002 176.721C681.159 180.505 676.386 183.229 674.681 184.892C673.432 186.268 672.437 187.329 671.698 188.075C670.391 189.336 668.999 190.225 667.521 190.741C665.532 191.486 662.89 192.117 659.594 192.633C655.844 193.092 653.088 193.436 651.326 193.665C648.997 194.009 646.24 194.009 643.058 193.665C639.477 193.207 636.835 192.892 635.13 192.72C632.346 192.433 628.226 192.605 622.771 193.235C617.372 193.809 613.394 193.952 610.838 193.665C606.007 193.035 602.285 192.576 599.671 192.289C595.068 191.83 591.289 191.802 588.334 192.204C579.981 194.038 573.986 195.328 570.349 196.073C564.041 197.393 557.421 197.593 550.488 196.676C549.011 196.446 546.795 195.844 543.84 194.87C540.998 193.952 538.725 193.407 537.02 193.235C535.145 193.006 532.162 192.834 528.07 192.72C524.036 192.662 521.024 192.49 519.034 192.204C517.5 191.974 513.466 190.77 506.93 188.591C501.816 186.928 497.44 186.326 493.804 186.785C491.758 187.071 489.798 187.902 487.923 189.278C485.877 190.827 484.257 191.744 483.064 192.031C480.45 192.777 475.619 193.178 468.573 193.235C462.095 193.293 457.321 193.952 454.253 195.214C449.025 197.565 444.877 199.257 441.808 200.289C436.409 202.066 431.551 202.64 427.232 202.009C423.311 201.492 412.628 198.253 395.182 192.289C380.237 187.128 369.61 184.978 363.302 185.838C359.438 186.354 351.398 187.644 339.18 189.709C329.122 191.372 320.967 192.547 314.716 193.235C311.591 193.579 305.937 193.579 297.753 193.235C290.253 192.891 284.826 193.035 281.473 193.665C280.336 193.894 279.086 194.439 277.722 195.299C276.302 196.274 275.137 196.876 274.228 197.106C272.182 197.679 268.943 197.593 264.511 196.848C259.794 196.045 256.441 195.816 254.452 196.16C252.861 196.446 250.758 197.421 248.145 199.084C245.587 200.747 243.201 201.722 240.985 202.009C236.609 202.64 231.949 202.697 227.005 202.181C221.266 201.436 216.606 200.891 213.025 200.547C211.264 200.432 208.537 200.547 204.843 200.891C201.32 201.235 198.649 201.292 196.83 201.063C176.43 198.827 158.586 194.898 143.3 189.278C141.141 188.533 133.128 184.749 119.263 177.924C110.284 173.509 100.453 170.585 89.7701 169.152C87.724 168.865 84.4564 168.693 79.9673 168.636C75.5348 168.636 72.2388 168.463 70.0795 168.119C68.034 167.89 64.7664 167.202 60.2767 166.055C56.0719 165.08 52.7477 164.478 50.304 164.249C47.2352 163.962 44.3371 164.162 41.6098 164.851C38.5981 165.711 36.0979 166.313 34.109 166.657C30.8697 167.23 22.0047 167.173 7.51402 166.485C-3.68077 165.968 -12.8298 165.395 -19.933 164.765C-22.888 164.478 -27.1783 164.535 -32.804 164.936C-38.2027 165.28 -42.6069 165.223 -46.0166 164.765C-48.9144 164.363 -52.9491 163.302 -58.1206 161.582C-63.3482 159.804 -67.4112 158.715 -70.3095 158.314C-73.0941 158.199 -75.1399 158.113 -76.4469 158.056C-78.7767 157.941 -81.2201 157.367 -83.7769 156.335C-89.1189 153.869 -93.324 152.063 -96.3923 150.916C-101.905 148.909 -106.707 148.279 -110.798 149.024L-109.861 148.508C-115.202 148.508 -118.015 149.569 -118.299 151.69C-118.299 151.805 -118.242 152.866 -118.128 154.872C-118.072 156.249 -118.327 157.396 -118.895 158.314C-119.805 159.804 -121.141 161.553 -122.902 163.56C-124.607 165.568 -126.283 167.259 -127.931 168.636C-131.17 171.445 -133.841 174.857 -135.943 178.871C-137.194 181.222 -138.7 184.863 -140.462 189.795C-141.314 192.146 -142.734 195.644 -144.723 200.289C-146.371 204.418 -147.366 207.944 -147.707 210.869C-148.673 218.61 -147.252 228.272 -143.445 239.855C-140.831 247.826 -136.853 257.316 -131.511 268.326C-130.943 269.416 -128.755 274.749 -124.948 284.325C-120.913 293.557 -117.702 298.374 -115.316 298.775C-111.849 299.406 -106.962 299.779 -100.655 299.893C-91.9037 300.065 -86.8747 300.18 -85.5676 300.237C-75.3956 300.925 -60.1092 302.072 -39.7085 303.678C11.0939 307.176 54.3101 309.642 89.94 311.075C137.163 312.91 180.607 313.398 220.271 312.538C225.556 312.423 240.416 312.251 264.851 312.022C283.093 311.85 297.924 311.534 309.346 311.075C311.051 311.018 315.711 310.273 323.326 308.839C329.747 307.635 334.094 307.234 336.367 307.635C335.003 307.635 335.799 307.864 338.754 308.323C341.595 308.782 343.498 309.04 344.465 309.097C346.226 309.269 349.068 309.441 352.989 309.614C356.739 309.728 359.58 309.9 361.512 310.13C368.275 310.875 377.395 311.448 388.875 311.849C403.195 312.365 412.372 312.767 416.406 313.054C447.888 315.061 474.114 316.494 495.083 317.354C523.893 318.501 550.175 318.874 573.929 318.473C599.046 318.014 639.194 317.842 694.372 317.957C751.255 318.014 792.994 317.842 819.588 317.441C837.375 317.154 859.565 316.523 886.161 315.548C930.428 313.885 952.618 313.054 952.732 313.054C1000.75 311.448 1031.24 310.388 1044.19 309.872C1078.63 308.495 1109.03 306.918 1135.4 305.14C1168.87 303.019 1190.81 301.384 1201.2 300.237C1226.72 297.485 1247.38 293.413 1263.17 288.023C1269.31 285.902 1274.85 283.579 1279.79 281.056C1286.96 277.443 1289.83 274.691 1288.4 272.798C1291.3 276.01 1293.52 274.089 1295.05 267.036C1295.96 259.237 1296.44 255.252 1296.5 255.08C1296.9 253.474 1297.33 250.779 1297.78 246.995C1298.12 243.497 1298.6 240.802 1299.23 238.909C1302.18 232.659 1303.89 227.842 1304.34 224.459C1305.2 218.38 1301.99 214.022 1294.71 211.385C1292.95 210.754 1285.53 207.571 1272.46 201.837C1263.09 197.708 1255.19 194.984 1248.77 193.665C1244.79 192.863 1239.82 193.006 1233.85 194.096C1227.09 195.357 1222.17 195.873 1219.1 195.644C1215.13 195.414 1209.27 194.611 1201.55 193.235C1193.87 191.859 1188.02 191.028 1183.99 190.741C1180.52 190.512 1167.82 191.773 1145.88 194.525C1128.21 196.704 1116.62 196.274 1111.11 193.235C1111.11 194.382 1109 194.669 1104.8 194.096C1099.97 193.522 1097.27 193.378 1096.7 193.665V194.181C1094.71 194.525 1093.21 194.697 1092.18 194.697Z" fill="#65806D"/>
<path d="M1155.09 298.861V52.7734H106.48V298.861H1155.09Z" fill="url(#paint0_linear_447_5870)"/>
<path d="M441.479 183.798C440.399 184.257 439.206 185.118 437.898 186.379C436.535 187.64 435.37 188.5 434.404 188.959C431.676 190.221 425.852 189.59 416.929 187.067C408.008 184.544 402.666 183.684 400.905 184.487C398.462 185.633 395.819 187.898 392.978 191.282C389.795 195.009 387.153 197.532 385.051 198.851C383.516 199.826 381.101 201.288 377.805 203.238C375.078 204.958 373.06 206.449 371.753 207.71C371.469 207.94 369.139 207.481 364.763 206.334C359.763 205.015 356.666 204.327 355.472 204.27C351.495 204.27 348.398 204.213 346.181 204.098C342.089 203.983 339.22 203.41 337.572 202.378C335.697 201.117 334.475 200.772 333.907 201.346C332.884 202.32 329.957 202.836 325.127 202.894C320.41 203.008 317.057 202.636 315.069 201.776C308.023 198.737 304.443 197.188 304.329 197.131C298.874 195.124 295.095 194.608 292.992 195.583C290.207 196.844 285.974 199.224 280.292 202.722C274.609 206.277 270.29 208.743 267.335 210.119C265.687 210.865 261.51 209.517 254.805 206.076C248.327 202.693 244.661 201.403 243.809 202.206C243.354 202.665 242.445 202.923 241.081 202.98C239.433 203.037 238.325 203.18 237.757 203.41C233.268 205.474 228.182 205.618 222.499 203.84C218.635 202.693 213.861 200.342 208.179 196.787C206.645 195.869 203.86 195.325 199.825 195.153C195.791 195.038 192.893 194.407 191.131 193.261C189.313 192.171 187.125 190.135 184.567 187.153C182.01 184.171 179.936 182.193 178.345 181.218C175.731 179.613 171.441 177.864 165.474 175.971C159.564 174.136 155.302 172.387 152.688 170.725C147.573 167.513 142.658 162.754 137.942 156.446C133.282 149.45 129.787 144.547 127.457 141.738C127.4 141.68 127.145 141.652 126.69 141.652C123.735 141.48 120.013 140.247 115.524 137.953C110.409 135.2 106.574 133.279 104.017 132.19C102.085 131.33 99.6411 129.753 96.6861 127.459C93.3902 124.707 91.0604 122.757 89.6967 121.61C88.6167 120.75 86.2583 119.373 82.6215 117.481C79.3822 115.761 77.3933 114.442 76.6549 113.525L63.4423 97.3543C62.7039 96.4941 61.1411 95.175 58.7541 93.397C56.4815 91.6766 54.7484 90.0998 53.5546 88.6664L48.0144 82C47.5466 82.0291 46.5239 82.0437 44.9461 82.0437C41.0816 82.0437 38.8368 82.0723 38.2116 82.1295C36.3932 82.4164 33.0972 82.703 28.3238 82.9893C24.1756 83.2762 20.9083 83.6489 18.5219 84.1073C11.6457 85.4835 6.41758 90.2432 2.83738 98.3864C0.905131 102.687 -1.08373 110.141 -3.12924 120.75C-4.7772 129.008 -5.20335 139.501 -4.40769 152.231C-3.15784 172.359 -2.53292 182.853 -2.53292 183.713C-2.47573 192.888 -2.84496 204.012 -3.64062 217.087C-4.03817 224.541 -4.74861 235.694 -5.77193 250.546C-5.94239 253.471 -7.24915 261.241 -9.69221 273.856C-11.5678 285.554 -11.426 292.779 -9.26662 295.531C-6.25442 299.373 2.63889 302.556 17.4133 305.079C20.8797 305.652 30.4548 306.828 46.1388 308.606C94.2705 314.225 149.96 317.523 213.208 318.498C242.246 318.957 298.107 318.813 380.788 318.067C400.45 317.895 429.972 317.695 469.352 317.465C508.676 317.293 538.169 317.093 557.831 316.864C562.717 316.806 574.48 317.236 593.119 318.154C607.838 318.899 619.572 318.87 628.323 318.067C638.552 317.035 648.553 316.834 658.327 317.465C666.567 317.982 676.313 318.24 687.564 318.24C694.043 318.182 703.789 318.068 716.802 317.896C720.439 317.838 725.922 318.153 733.253 318.841C749.164 319.874 761.268 319.587 769.565 317.982C784.169 315.229 793.489 308.52 797.523 297.854C798.944 294.012 799.143 290.801 798.12 288.22C796.87 285.124 793.886 281.884 789.169 278.501C783.714 275.118 780.021 272.824 778.089 271.62C776.952 270.874 774.764 270.502 771.525 270.502C767.945 270.502 765.672 270.33 764.706 269.985C760.956 268.724 756.04 266.372 749.96 262.932C743.027 258.975 738.254 256.424 735.64 255.277C733.651 254.417 730.44 254.159 726.008 254.503C721.348 254.847 718.08 254.703 716.205 254.072C715.296 253.728 701.373 244.238 674.437 225.601C672.221 222.964 667.363 222.247 659.861 223.451C651.451 224.827 646.564 225.229 645.201 224.656C642.302 223.394 638.694 220.211 634.375 215.108C629.659 209.603 626.164 206.162 623.891 204.786C623.38 204.442 622.413 204.327 620.993 204.442C619.458 204.614 618.436 204.585 617.924 204.356C615.708 203.381 612.327 201.575 607.781 198.938C603.178 196.185 599.797 194.35 597.637 193.432C595.591 192.515 591.699 191.712 585.959 191.024C580.674 190.393 576.924 189.389 574.708 188.013C569.195 184.572 565.729 182.451 564.309 181.648C560.558 179.469 557.006 177.634 553.654 176.144C552.063 175.456 549.789 173.85 546.834 171.326C543.823 168.746 541.55 167.112 540.015 166.424C538.822 165.965 534.333 166.079 526.548 166.767C518.763 167.513 514.188 168.201 512.824 168.832C511.005 169.635 507.823 169.664 503.277 168.918C498.39 168.115 495.094 167.943 493.39 168.402C481.513 171.499 472.563 173.821 466.539 175.37C455.742 178.236 447.389 181.046 441.479 183.798Z" fill="#14080E"/>
<path d="M1075.31 120.939C1067.41 128.451 1060.11 134.415 1053.4 138.83C1051.02 140.378 1046.42 142.242 1039.6 144.421C1033.23 146.486 1029.54 148.005 1028.52 148.98C1023.97 153.51 1018.34 157.868 1011.64 162.054C1006.92 164.921 1000.58 168.391 992.629 172.462C990.981 173.322 987.969 173.637 983.594 173.408C979.161 173.236 976.15 173.551 974.558 174.354C968.535 177.393 958.818 179.486 945.406 180.634C931.939 181.78 922.506 183.73 917.107 186.482C915.062 187.514 912.846 189.091 910.459 191.213C907.902 193.793 906.055 195.628 904.918 196.718C903.782 197.808 901.537 199.04 898.184 200.417C894.377 201.965 891.905 203.112 890.768 203.857C880.88 211.197 873.521 216.645 868.691 220.2C860.111 226.565 852.297 230.98 845.25 233.446C841.557 234.765 835.931 236.543 828.373 238.779C820.815 241.016 815.133 242.822 811.325 244.198C809.166 245.001 804.023 245.345 795.897 245.23C788.055 245.115 783.538 245.345 782.344 245.919C781.776 246.205 779.304 247.036 774.928 248.413C771.348 249.503 769.075 250.535 768.109 251.509C763.961 255.523 756.062 260.455 744.412 266.304C741.969 267.566 735.32 269.515 724.467 272.153C713.385 274.905 706.879 276.11 704.947 275.766C704.379 275.651 700.514 274.475 693.355 272.239C688.808 270.805 684.717 270.605 681.08 271.637C678.693 272.325 669.857 274.188 654.571 277.227C643.66 279.407 635.193 282.016 629.169 285.055C627.066 286.145 623.003 286.374 616.98 285.743C610.956 285.17 606.865 285.399 604.705 286.431C603.171 287.234 600.472 287.808 596.607 288.152C592.744 288.496 590.073 289.041 588.595 289.786C586.152 291.047 580.213 293.198 570.78 296.237C563.052 298.76 557.142 301.541 553.05 304.58C546.004 309.798 536.144 314.902 523.472 319.891C522.393 320.35 511.852 324.106 491.849 331.159C489.974 331.79 486.819 333.969 482.387 337.696C477.614 341.825 475.909 344.405 477.273 345.438C480.171 347.731 488.467 349.795 502.162 351.63C509.38 352.605 518.5 353.752 529.525 355.071C536.628 356.39 546.601 358.683 559.443 361.952C573.139 365.392 583.112 367.744 589.362 369.006C600.671 371.241 614.053 373.248 629.51 375.026C629.567 375.026 643.035 376.46 669.914 379.327C732.422 385.75 800.784 389.62 874.999 390.939C893.922 391.283 920.09 390.796 953.504 389.477C990.612 387.986 1016.75 387.24 1031.92 387.24C1081.82 387.24 1121.17 385.807 1149.98 382.939C1199.99 377.95 1237.55 368.259 1262.67 353.867C1272.78 348.017 1280.79 337.409 1286.7 322.041C1290.17 312.924 1293.27 300.423 1296 284.539C1300.54 257.817 1303.16 232.959 1303.84 209.964C1304.58 183.586 1302.79 158.757 1298.47 135.475C1295.34 118.732 1292.76 106.403 1290.71 98.4895C1286.96 84.2681 1282.44 72.4553 1277.16 63.0513C1275.91 60.8149 1269.77 60.0693 1258.75 60.8146L1242.64 62.7075C1240.31 63.9117 1236.41 66.6642 1230.96 70.965C1226.19 74.7492 1222.18 77.2148 1218.94 78.3618C1214 80.1393 1209.36 82.1176 1205.05 84.2969C1200.05 87.0494 1195.84 89.2858 1192.43 91.0062C1190.78 91.8663 1184.64 94.3894 1174.02 98.5753C1165.95 101.787 1160.86 104.425 1158.76 106.489C1158.42 106.775 1156.66 106.488 1153.48 105.628C1150.86 104.94 1148.93 104.367 1147.68 103.909C1147.11 103.679 1146.09 103.707 1144.61 103.994C1143.02 104.338 1141.94 104.453 1141.37 104.338C1134.04 102.618 1126.46 101.327 1118.61 100.467C1106.62 99.0911 1099.32 99.6646 1096.71 102.188C1096.48 102.417 1095.77 102.704 1094.58 103.048C1093.33 103.392 1092.56 103.707 1092.27 103.994C1085.34 111.162 1079.69 116.81 1075.31 120.939Z" fill="#14080E"/>
<defs>
<linearGradient id="paint0_linear_447_5870" x1="630.829" y1="289.89" x2="630.829" y2="73.6144" gradientUnits="userSpaceOnUse">
<stop stop-color="#FAF5E7"/>
<stop offset="1" stop-color="#565414" stop-opacity="0"/>
</linearGradient>
</defs>
</svg>
