<svg width="26" height="25" viewBox="0 0 26 25" fill="none" xmlns="http://www.w3.org/2000/svg">
    <g clip-path="url(#clip0_447_5504)">
        <path d="M24.2691 3.73579C24.2803 3.06851 24.0386 2.45323 23.5888 2.00336C23.3446 1.75929 22.9489 1.75929 22.7049 2.00339C22.4608 2.24748 22.4608 2.6432 22.7049 2.88726C22.9131 3.09545 23.0247 3.38936 23.0193 3.71489C23.0141 4.02545 22.8966 4.32532 22.7049 4.51704C22.3072 4.9147 18.3433 8.39473 15.2475 11.1025L14.4888 10.3438C16.7488 7.75795 19.5534 4.56054 20.6504 3.34648L20.9 3.59607C21.1441 3.84017 21.5398 3.8402 21.7838 3.59614C22.028 3.35207 22.028 2.95636 21.7839 2.71226L21.0751 2.00342C20.958 1.8862 20.799 1.82032 20.6332 1.82032H20.6332C20.4674 1.82032 20.3085 1.88617 20.1912 2.00336C19.8109 2.38367 17.4844 5.02601 15.3852 7.42151C14.8207 6.56704 14.0667 5.83198 13.1698 5.26773C11.8589 4.44301 10.3305 4.02486 8.6272 4.02486C8.25249 4.02486 7.88177 4.04848 7.52542 4.09514C7.18314 4.13995 6.94202 4.4537 6.9868 4.79598C7.03161 5.13823 7.34533 5.37936 7.68761 5.33457C7.99039 5.29495 8.30652 5.27486 8.62717 5.27486C11.2207 5.27486 13.3963 6.43761 14.5245 8.40442C13.4717 9.60739 12.5672 10.6435 12.131 11.1434C11.3524 11.2495 10.7713 11.5682 10.3616 12.1146C9.98074 12.6227 9.81377 13.2294 9.63702 13.8718C9.42389 14.6464 9.20352 15.4473 8.57505 16.0757C8.39627 16.2545 8.3428 16.5233 8.43955 16.7569C8.5363 16.9904 8.76421 17.1427 9.01699 17.1427C10.699 17.1427 12.0322 16.7842 12.9795 16.0771C13.8331 15.4399 14.342 14.5352 14.4623 13.4488C16.0727 12.0424 23.0112 5.97848 23.5887 5.40092C24.0105 4.9792 24.2585 4.37226 24.2691 3.73579ZM14.3043 11.9271C14.1165 12.0912 13.9345 12.2503 13.7594 12.4031L13.1887 11.8325C13.3415 11.6574 13.5005 11.4752 13.6645 11.2874L14.3043 11.9271ZM12.2317 15.0754C11.7401 15.4424 11.0859 15.6869 10.2783 15.8067C10.5531 15.2542 10.7073 14.694 10.8422 14.2034C11.1319 13.1506 11.3084 12.6223 12.0222 12.4337L13.1762 13.5877C13.0491 14.202 12.733 14.7012 12.2317 15.0754Z" fill="#FAF5E7"/>
        <path d="M5.57385 5.93575C5.66488 5.93575 5.75735 5.91575 5.84482 5.87359C5.90091 5.84653 5.95854 5.81994 6.01604 5.79459C6.33182 5.65519 6.47482 5.28619 6.33541 4.9704C6.19601 4.65465 5.82704 4.51165 5.51123 4.65103C5.44101 4.68203 5.3706 4.71453 5.30195 4.74762C4.99104 4.89753 4.86051 5.27112 5.01038 5.58203C5.11813 5.80547 5.34135 5.93575 5.57385 5.93575Z" fill="#FAF5E7"/>
        <path d="M10.0904 17.8376C9.74551 17.8342 9.46226 18.1103 9.45835 18.4555C9.43139 20.8582 9.06867 21.9301 6.99073 21.9301C5.82586 21.9301 4.60336 21.0779 3.63673 19.5922C2.57089 17.9538 1.98389 15.8267 1.98389 13.6027C1.98389 10.7154 2.85576 8.31305 4.43892 6.83818C4.69148 6.6029 4.70548 6.2074 4.4702 5.95484C4.23492 5.70227 3.83942 5.68827 3.58686 5.92355C2.65432 6.79234 1.93279 7.92115 1.44226 9.27865C0.972199 10.5795 0.733887 12.0343 0.733887 13.6027C0.733887 16.0659 1.39273 18.4351 2.58898 20.2738C3.79057 22.1208 5.39498 23.1801 6.99073 23.1801C8.51701 23.1801 9.58079 22.643 10.1524 21.5838C10.6433 20.6743 10.6967 19.4994 10.7083 18.4695C10.7121 18.1244 10.4355 17.8414 10.0904 17.8376Z" fill="#FAF5E7"/>
        <path d="M13.166 8.58027C13.166 7.43214 12.2319 6.49805 11.0837 6.49805C9.93559 6.49805 9.00146 7.43214 9.00146 8.58027C9.00146 9.72842 9.93559 10.6625 11.0837 10.6625C12.2319 10.6625 13.166 9.72842 13.166 8.58027ZM10.2515 8.58027C10.2515 8.12136 10.6248 7.74805 11.0837 7.74805C11.5427 7.74805 11.916 8.12136 11.916 8.58027C11.916 9.0392 11.5427 9.41255 11.0837 9.41255C10.6248 9.41252 10.2515 9.03917 10.2515 8.58027Z" fill="#FAF5E7"/>
        <path d="M6.12131 11.4125C7.26947 11.4125 8.20356 10.4784 8.20356 9.3303C8.20356 8.18214 7.26947 7.24805 6.12131 7.24805C4.97316 7.24805 4.03906 8.18214 4.03906 9.3303C4.03906 10.4784 4.97316 11.4125 6.12131 11.4125ZM6.12131 8.49805C6.58022 8.49805 6.95356 8.87139 6.95356 9.3303C6.95356 9.7892 6.58022 10.1625 6.12131 10.1625C5.66241 10.1625 5.28906 9.7892 5.28906 9.3303C5.28906 8.87139 5.66244 8.49805 6.12131 8.49805Z" fill="#FAF5E7"/>
        <path d="M6.60835 14.1135C6.60835 12.9654 5.67425 12.0312 4.5261 12.0312C3.37794 12.0312 2.44385 12.9654 2.44385 14.1135C2.44385 15.2617 3.37794 16.1957 4.5261 16.1957C5.67425 16.1957 6.60835 15.2617 6.60835 14.1135ZM4.5261 14.9458C4.06719 14.9458 3.69385 14.5724 3.69385 14.1135C3.69385 13.6546 4.06719 13.2812 4.5261 13.2812C4.985 13.2812 5.35835 13.6546 5.35835 14.1135C5.35835 14.5724 4.985 14.9458 4.5261 14.9458Z" fill="#FAF5E7"/>
        <path d="M6.71406 21.0687C7.86221 21.0687 8.79634 20.1346 8.79634 18.9865C8.79634 17.8384 7.86221 16.9043 6.71406 16.9043C5.56593 16.9043 4.63184 17.8384 4.63184 18.9865C4.63184 20.1346 5.56593 21.0687 6.71406 21.0687ZM6.71406 18.1543C7.17299 18.1543 7.54634 18.5276 7.54634 18.9865C7.54634 19.4454 7.17299 19.8187 6.71406 19.8187C6.25518 19.8187 5.88184 19.4454 5.88184 18.9865C5.88184 18.5276 6.25518 18.1543 6.71406 18.1543Z" fill="#FAF5E7"/>
    </g>
    <defs>
        <clipPath id="clip0_447_5504">
            <rect width="25" height="25" fill="white" transform="translate(0.00146484)"/>
        </clipPath>
    </defs>
</svg>